<svg xmlns="http://www.w3.org/2000/svg" width="380" height="63" viewBox="0 0 380 63"><g transform="translate(-58 -480)"><rect width="380" height="59.806" rx="10" transform="translate(58 482.76)" fill="#fff"/><path d="M2.4-11.4a1.412,1.412,0,0,1-1.019-.389,1.288,1.288,0,0,1-.406-.969,1.288,1.288,0,0,1,.406-.969A1.412,1.412,0,0,1,2.4-14.112a1.412,1.412,0,0,1,1.019.389,1.288,1.288,0,0,1,.406.969,1.288,1.288,0,0,1-.406.969A1.412,1.412,0,0,1,2.4-11.4ZM3.539-10.3v9.175H1.22V-10.3Zm13.68-.132A3.68,3.68,0,0,1,19.943-9.4a3.907,3.907,0,0,1,1.035,2.89v5.383H18.664V-6.2a2.292,2.292,0,0,0-.552-1.649,1.965,1.965,0,0,0-1.491-.571,1.993,1.993,0,0,0-1.5.571A2.271,2.271,0,0,0,14.57-6.2v5.069h-2.32V-6.2A2.292,2.292,0,0,0,11.7-7.845a1.965,1.965,0,0,0-1.491-.571A2.014,2.014,0,0,0,8.7-7.845,2.271,2.271,0,0,0,8.146-6.2v5.069H5.825V-10.3H8.143v1.11A3.086,3.086,0,0,1,9.294-10.1a3.588,3.588,0,0,1,1.549-.331,3.983,3.983,0,0,1,1.921.46,3.192,3.192,0,0,1,1.308,1.3,3.322,3.322,0,0,1,1.3-1.275,3.7,3.7,0,0,1,1.847-.48ZM25.5-8.978a3.521,3.521,0,0,1,1.234-1.052,3.739,3.739,0,0,1,1.8-.422,4.013,4.013,0,0,1,2.128.58,4.079,4.079,0,0,1,1.507,1.648,5.3,5.3,0,0,1,.552,2.476,5.4,5.4,0,0,1-.552,2.493,4.173,4.173,0,0,1-1.507,1.681,3.929,3.929,0,0,1-2.128.6,3.7,3.7,0,0,1-1.78-.414A3.819,3.819,0,0,1,25.5-2.436V3.244H23.181V-10.3H25.5Zm4.849,3.23a2.879,2.879,0,0,0-.34-1.433,2.351,2.351,0,0,0-.894-.92,2.392,2.392,0,0,0-1.2-.315,2.316,2.316,0,0,0-1.184.323,2.4,2.4,0,0,0-.894.937,2.927,2.927,0,0,0-.34,1.441,2.927,2.927,0,0,0,.34,1.441,2.4,2.4,0,0,0,.893.938,2.316,2.316,0,0,0,1.184.323,2.3,2.3,0,0,0,1.2-.331,2.458,2.458,0,0,0,.894-.944A2.963,2.963,0,0,0,30.349-5.749Zm8.135,4.77A4.832,4.832,0,0,1,36.1-1.567a4.232,4.232,0,0,1-1.664-1.664,4.988,4.988,0,0,1-.6-2.484A4.881,4.881,0,0,1,34.452-8.2a4.316,4.316,0,0,1,1.694-1.669,4.927,4.927,0,0,1,2.4-.588,4.927,4.927,0,0,1,2.4.588,4.316,4.316,0,0,1,1.7,1.664,4.881,4.881,0,0,1,.621,2.484,4.785,4.785,0,0,1-.638,2.484,4.416,4.416,0,0,1-1.719,1.669,5.008,5.008,0,0,1-2.426.588Zm0-2.024a2.412,2.412,0,0,0,1.184-.306,2.227,2.227,0,0,0,.886-.92,3.1,3.1,0,0,0,.331-1.491,2.76,2.76,0,0,0-.692-2.008,2.26,2.26,0,0,0-1.681-.7,2.208,2.208,0,0,0-1.664.7,2.8,2.8,0,0,0-.671,2.012A2.852,2.852,0,0,0,36.836-3.7a2.154,2.154,0,0,0,1.648.7ZM47.3-8.883a3.26,3.26,0,0,1,1.168-1.143,3.247,3.247,0,0,1,1.648-.414V-8H49.5a2.349,2.349,0,0,0-1.648.513A2.366,2.366,0,0,0,47.3-5.7v4.571h-2.32V-10.3H47.3Zm7.068.486v4.439a.877.877,0,0,0,.224.671,1.1,1.1,0,0,0,.754.207h1.077v1.952H54.963q-2.931,0-2.931-2.852V-8.4H50.939v-1.9h1.093V-12.57h2.332V-10.3h2.054v1.9Zm14.76,5.066h-4.6l-.766,2.2H61.323L65.48-12.7h2.7L72.337-1.128H69.885Zm-.629-1.855-1.673-4.836L65.149-5.186Zm8.1-3.211v4.439a.877.877,0,0,0,.224.671,1.1,1.1,0,0,0,.754.207h1.077v1.952H77.189q-2.931,0-2.931-2.852V-8.4H73.165v-1.9h1.093V-12.57h2.335V-10.3h2.054v1.9Zm7.8,7.418a4.832,4.832,0,0,1-2.385-.588,4.232,4.232,0,0,1-1.664-1.664,4.988,4.988,0,0,1-.6-2.484A4.881,4.881,0,0,1,80.361-8.2a4.316,4.316,0,0,1,1.7-1.669,4.927,4.927,0,0,1,2.4-.588,4.927,4.927,0,0,1,2.4.588,4.316,4.316,0,0,1,1.7,1.664A4.881,4.881,0,0,1,89.18-5.72a4.785,4.785,0,0,1-.638,2.484A4.416,4.416,0,0,1,86.82-1.567a5.009,5.009,0,0,1-2.426.588Zm0-2.024a2.412,2.412,0,0,0,1.184-.306,2.227,2.227,0,0,0,.886-.92,3.1,3.1,0,0,0,.331-1.491,2.76,2.76,0,0,0-.688-2.008,2.26,2.26,0,0,0-1.681-.7,2.208,2.208,0,0,0-1.664.7,2.8,2.8,0,0,0-.671,2.012A2.852,2.852,0,0,0,82.746-3.7a2.154,2.154,0,0,0,1.648.7Zm17.887-7.436A3.68,3.68,0,0,1,105-9.4a3.907,3.907,0,0,1,1.035,2.89v5.386h-2.319V-6.2a2.292,2.292,0,0,0-.547-1.649,1.965,1.965,0,0,0-1.491-.571,1.993,1.993,0,0,0-1.5.571A2.271,2.271,0,0,0,99.632-6.2v5.069H97.313V-6.2a2.292,2.292,0,0,0-.547-1.648,1.965,1.965,0,0,0-1.491-.571,2.014,2.014,0,0,0-1.515.571A2.271,2.271,0,0,0,93.209-6.2v5.068H90.89V-10.3h2.319v1.11A3.086,3.086,0,0,1,94.36-10.1a3.588,3.588,0,0,1,1.549-.331,3.983,3.983,0,0,1,1.921.46,3.192,3.192,0,0,1,1.308,1.3,3.322,3.322,0,0,1,1.3-1.275,3.7,3.7,0,0,1,1.842-.485Zm7.138-.961a1.412,1.412,0,0,1-1.019-.389,1.288,1.288,0,0,1-.406-.969,1.288,1.288,0,0,1,.406-.969,1.412,1.412,0,0,1,1.019-.389,1.412,1.412,0,0,1,1.019.389,1.288,1.288,0,0,1,.406.969,1.288,1.288,0,0,1-.406.969,1.412,1.412,0,0,1-1.019.393Zm1.143,1.093v9.179h-2.319V-10.3Zm1.689,4.588a5.146,5.146,0,0,1,.58-2.493,4.14,4.14,0,0,1,1.606-1.656,4.648,4.648,0,0,1,2.352-.588,4.521,4.521,0,0,1,2.824.853,4.149,4.149,0,0,1,1.5,2.392h-2.5a1.829,1.829,0,0,0-.671-.936,1.947,1.947,0,0,0-1.168-.34,1.912,1.912,0,0,0-1.573.72,3.189,3.189,0,0,0-.58,2.045A3.16,3.16,0,0,0,115.2-3.7a1.912,1.912,0,0,0,1.573.72,1.758,1.758,0,0,0,1.84-1.259h2.5a4.232,4.232,0,0,1-1.507,2.368,4.441,4.441,0,0,1-2.815.878,4.648,4.648,0,0,1-2.352-.588,4.141,4.141,0,0,1-1.606-1.656,5.146,5.146,0,0,1-.581-2.483Zm14.641,4.74a4.832,4.832,0,0,1-2.385-.588,4.232,4.232,0,0,1-1.664-1.664,4.987,4.987,0,0,1-.6-2.484,4.882,4.882,0,0,1,.621-2.484,4.316,4.316,0,0,1,1.7-1.669,4.927,4.927,0,0,1,2.4-.588,4.927,4.927,0,0,1,2.4.588,4.316,4.316,0,0,1,1.7,1.664,4.882,4.882,0,0,1,.621,2.484,4.784,4.784,0,0,1-.638,2.484,4.416,4.416,0,0,1-1.722,1.664,5.009,5.009,0,0,1-2.426.593Zm0-2.024a2.412,2.412,0,0,0,1.184-.306,2.227,2.227,0,0,0,.886-.92,3.1,3.1,0,0,0,.331-1.491,2.76,2.76,0,0,0-.687-2.012,2.26,2.26,0,0,0-1.681-.7,2.208,2.208,0,0,0-1.664.7,2.8,2.8,0,0,0-.671,2.012,2.852,2.852,0,0,0,.654,2.012A2.154,2.154,0,0,0,126.891-3ZM141.531-8.4h-1.606v7.269h-2.352V-8.4h-1.045v-1.9h1.043v-.46a3.042,3.042,0,0,1,.961-2.484,4.291,4.291,0,0,1,2.9-.745v1.954a1.721,1.721,0,0,0-1.176.282,1.41,1.41,0,0,0-.331,1.077v.381h1.606Zm3.826-.48a3.26,3.26,0,0,1,1.168-1.143,3.247,3.247,0,0,1,1.648-.414V-8h-.613a2.349,2.349,0,0,0-1.648.513A2.366,2.366,0,0,0,145.36-5.7v4.571h-2.319V-10.3h2.319Zm8.446,7.9a4.832,4.832,0,0,1-2.385-.588,4.233,4.233,0,0,1-1.664-1.664,4.987,4.987,0,0,1-.6-2.484,4.882,4.882,0,0,1,.621-2.484,4.316,4.316,0,0,1,1.7-1.671,4.927,4.927,0,0,1,2.4-.588,4.927,4.927,0,0,1,2.4.588A4.316,4.316,0,0,1,157.966-8.2a4.882,4.882,0,0,1,.621,2.484,4.784,4.784,0,0,1-.638,2.484,4.416,4.416,0,0,1-1.722,1.664,5.009,5.009,0,0,1-2.424.588ZM153.8-3a2.412,2.412,0,0,0,1.184-.306,2.227,2.227,0,0,0,.886-.92,3.1,3.1,0,0,0,.331-1.491,2.76,2.76,0,0,0-.687-2.012,2.26,2.26,0,0,0-1.681-.7,2.208,2.208,0,0,0-1.664.7,2.8,2.8,0,0,0-.671,2.012,2.852,2.852,0,0,0,.654,2.012A2.154,2.154,0,0,0,153.8-3Zm17.887-7.436A3.68,3.68,0,0,1,174.415-9.4a3.907,3.907,0,0,1,1.033,2.892v5.383h-2.319V-6.2a2.292,2.292,0,0,0-.547-1.648,1.965,1.965,0,0,0-1.491-.571,1.993,1.993,0,0,0-1.5.571,2.271,2.271,0,0,0-.552,1.648v5.068h-2.319V-6.2a2.292,2.292,0,0,0-.547-1.648,1.965,1.965,0,0,0-1.491-.571,2.014,2.014,0,0,0-1.515.571,2.271,2.271,0,0,0-.552,1.648v5.068H160.3V-10.3h2.319v1.11a3.086,3.086,0,0,1,1.151-.911,3.588,3.588,0,0,1,1.549-.331,3.983,3.983,0,0,1,1.921.46,3.192,3.192,0,0,1,1.308,1.3,3.321,3.321,0,0,1,1.3-1.275,3.7,3.7,0,0,1,1.843-.48Zm14.988,0a3.537,3.537,0,0,1,2.65,1.035,3.963,3.963,0,0,1,1.012,2.89v5.384h-2.319V-6.2a2.379,2.379,0,0,0-.547-1.681,1.932,1.932,0,0,0-1.491-.588,1.984,1.984,0,0,0-1.515.588,2.356,2.356,0,0,0-.552,1.681v5.068H181.6V-10.3h2.319V-9.16A3.2,3.2,0,0,1,185.1-10.1a3.663,3.663,0,0,1,1.577-.34Zm8.183,1.459A3.521,3.521,0,0,1,196.1-10.03a3.739,3.739,0,0,1,1.8-.422,4.013,4.013,0,0,1,2.128.58,4.078,4.078,0,0,1,1.507,1.648,5.3,5.3,0,0,1,.552,2.476,5.4,5.4,0,0,1-.552,2.493,4.173,4.173,0,0,1-1.514,1.681,3.929,3.929,0,0,1-2.128.6,3.7,3.7,0,0,1-1.78-.414,3.819,3.819,0,0,1-1.244-1.043V3.244h-2.319V-10.3h2.319Zm4.853,3.23a2.88,2.88,0,0,0-.34-1.433,2.351,2.351,0,0,0-.894-.92,2.392,2.392,0,0,0-1.2-.315,2.316,2.316,0,0,0-1.184.323,2.4,2.4,0,0,0-.894.936,2.927,2.927,0,0,0-.34,1.441,2.927,2.927,0,0,0,.34,1.441,2.4,2.4,0,0,0,.894.936,2.316,2.316,0,0,0,1.184.323,2.3,2.3,0,0,0,1.2-.331,2.459,2.459,0,0,0,.894-.944,2.962,2.962,0,0,0,.338-1.457Zm15.452-4.687A3.68,3.68,0,0,1,217.891-9.4a3.907,3.907,0,0,1,1.035,2.89v5.383h-2.319V-6.2a2.292,2.292,0,0,0-.547-1.648,1.965,1.965,0,0,0-1.491-.571,1.993,1.993,0,0,0-1.5.571A2.271,2.271,0,0,0,212.52-6.2v5.068H210.2V-6.2a2.292,2.292,0,0,0-.547-1.648,1.965,1.965,0,0,0-1.491-.571,2.014,2.014,0,0,0-1.525.57,2.271,2.271,0,0,0-.552,1.648v5.069h-2.319V-10.3h2.319v1.11a3.086,3.086,0,0,1,1.151-.911,3.588,3.588,0,0,1,1.549-.331,3.983,3.983,0,0,1,1.921.46,3.192,3.192,0,0,1,1.308,1.3,3.322,3.322,0,0,1,1.3-1.275,3.7,3.7,0,0,1,1.848-.485ZM229.143-.979a4.832,4.832,0,0,1-2.385-.588,4.232,4.232,0,0,1-1.664-1.664,4.987,4.987,0,0,1-.6-2.484A4.882,4.882,0,0,1,225.11-8.2a4.316,4.316,0,0,1,1.7-1.669,4.927,4.927,0,0,1,2.4-.588,4.927,4.927,0,0,1,2.4.588,4.316,4.316,0,0,1,1.7,1.664,4.882,4.882,0,0,1,.621,2.484,4.785,4.785,0,0,1-.638,2.484,4.416,4.416,0,0,1-1.722,1.664,5.009,5.009,0,0,1-2.426.593Zm0-2.024a2.412,2.412,0,0,0,1.184-.306,2.227,2.227,0,0,0,.886-.92,3.1,3.1,0,0,0,.331-1.491,2.76,2.76,0,0,0-.687-2.012,2.26,2.26,0,0,0-1.681-.7,2.208,2.208,0,0,0-1.664.7,2.8,2.8,0,0,0-.671,2.012,2.852,2.852,0,0,0,.654,2.012A2.154,2.154,0,0,0,229.143-3Zm8.811-5.879a3.259,3.259,0,0,1,1.165-1.139,3.247,3.247,0,0,1,1.648-.414V-8h-.613a2.349,2.349,0,0,0-1.648.513,2.366,2.366,0,0,0-.552,1.789v4.571h-2.319V-10.3h2.319Zm7.718,3.163a5.146,5.146,0,0,1,.58-2.493,4.14,4.14,0,0,1,1.608-1.657,4.648,4.648,0,0,1,2.352-.588,4.521,4.521,0,0,1,2.824.853,4.149,4.149,0,0,1,1.5,2.392h-2.5a1.829,1.829,0,0,0-.671-.936,1.948,1.948,0,0,0-1.168-.34,1.912,1.912,0,0,0-1.573.72,3.189,3.189,0,0,0-.58,2.045,3.159,3.159,0,0,0,.58,2.024,1.912,1.912,0,0,0,1.573.72,1.758,1.758,0,0,0,1.84-1.259h2.5a4.232,4.232,0,0,1-1.507,2.368,4.441,4.441,0,0,1-2.815.878,4.648,4.648,0,0,1-2.354-.578,4.14,4.14,0,0,1-1.606-1.656,5.146,5.146,0,0,1-.582-2.493Zm9.97-.033a5.31,5.31,0,0,1,.552-2.468,4.049,4.049,0,0,1,1.515-1.656,4.055,4.055,0,0,1,2.136-.58,3.9,3.9,0,0,1,1.706.389,3.411,3.411,0,0,1,1.288,1.035v-4.352h2.352V-1.128H262.84V-2.486a3.142,3.142,0,0,1-1.209,1.093,3.787,3.787,0,0,1-1.805.414,3.941,3.941,0,0,1-2.116-.6,4.151,4.151,0,0,1-1.515-1.681,5.4,5.4,0,0,1-.552-2.493Zm7.221.033a2.973,2.973,0,0,0-.331-1.449,2.335,2.335,0,0,0-.894-.927,2.392,2.392,0,0,0-1.209-.323,2.348,2.348,0,0,0-1.2.315,2.369,2.369,0,0,0-.886.92,2.879,2.879,0,0,0-.34,1.433,2.975,2.975,0,0,0,.34,1.449,2.444,2.444,0,0,0,.894.952,2.272,2.272,0,0,0,1.184.331,2.392,2.392,0,0,0,1.209-.323,2.335,2.335,0,0,0,.894-.927,2.974,2.974,0,0,0,.335-1.446Zm9.689-4.72A3.537,3.537,0,0,1,275.2-9.4a3.963,3.963,0,0,1,1.012,2.89v5.386h-2.319V-6.2a2.379,2.379,0,0,0-.548-1.681,1.932,1.932,0,0,0-1.491-.588,1.984,1.984,0,0,0-1.515.588,2.356,2.356,0,0,0-.552,1.681v5.068H267.47V-10.3h2.319V-9.16a3.2,3.2,0,0,1,1.184-.936,3.663,3.663,0,0,1,1.579-.34Z" transform="translate(125.089 519.772)"/><text transform="translate(77.322 527)" fill="#2befb3" font-size="45" font-family="Poppins-SemiBold, Poppins" font-weight="600"><tspan x="0" y="0">1</tspan></text></g></svg>