<svg xmlns="http://www.w3.org/2000/svg" width="1080" height="143.205" viewBox="0 0 1080 143.205"><g transform="translate(-241 -399.717)"><path d="M22.637-12.6c0-12.608,5.892-16.379,15.672-16.379h4.36V-46.3A22.64,22.64,0,0,0,22.637-35.223V-45.356H6.141V19.922h16.5Zm94.147-.118c0-20.62-14.729-33.7-33.582-33.7s-33.582,13.079-33.582,33.7c0,20.5,14.258,33.7,33.111,33.7C101.7,20.983,116.785,7.786,116.785-12.717Zm-50.432,0c0-13.079,7.895-19.324,16.614-19.324s16.85,6.245,16.85,19.324c0,12.961-8.366,19.324-17.086,19.324C73.894,6.607,66.353.245,66.353-12.717ZM190.547-45.356H173.933V-9.418c0,10.487-5.656,16.143-14.611,16.143-8.72,0-14.493-5.656-14.493-16.143V-45.356h-16.5v38.3c0,17.91,10.958,27.808,26.159,27.808,8.13,0,15.318-3.535,19.442-9.073v8.248h16.614ZM209.4-.345c0,14.965,8.366,20.267,20.856,20.267h10.369V6.018h-7.659c-5.185,0-6.952-1.885-6.952-6.245V-31.806h14.611V-45.356H226.014V-61.5H209.4v16.143h-7.777v13.551H209.4Zm71.17-32.521c8.484,0,15.318,5.42,15.554,14.022h-30.99C266.43-27.8,272.675-32.866,280.57-32.866ZM311.56-.58H293.767c-2.121,4.36-6.009,7.895-13.079,7.895-8.248,0-14.847-5.42-15.672-15.082h47.722a38.559,38.559,0,0,0,.471-6.363c0-19.442-13.315-32.286-32.168-32.286-19.324,0-32.757,13.079-32.757,33.7,0,20.5,13.786,33.7,32.757,33.7C297.184,20.983,308.025,11.439,311.56-.58ZM341.724-12.6c0-12.608,5.892-16.379,15.672-16.379h4.36V-46.3a22.64,22.64,0,0,0-20.031,11.076V-45.356h-16.5V19.922h16.5Z" transform="translate(959.244 491.381)" fill="#333"/><g transform="translate(241 399.717)" opacity="0.5"><path d="M2.937-5.572c0,20.385,13.2,33.935,29.693,33.935,10.369,0,17.793-4.949,21.681-10.6V27.3H70.926V-37.975H54.311v9.309c-3.888-5.42-11.076-10.369-21.563-10.369C16.134-39.036,2.937-25.957,2.937-5.572Zm51.374.236c0,12.372-8.248,19.206-17.321,19.206-8.837,0-17.2-7.07-17.2-19.442s8.366-18.971,17.2-18.971C46.063-24.543,54.311-17.708,54.311-5.336ZM89.661,7.036C89.661,22,98.027,27.3,110.517,27.3h10.369V13.4h-7.659c-5.185,0-6.952-1.885-6.952-6.245V-24.425h14.611V-37.975H106.275V-54.118H89.661v16.143H81.884v13.551h7.777ZM195.827-5.336c0-20.62-14.729-33.7-33.582-33.7s-33.582,13.079-33.582,33.7c0,20.5,14.258,33.7,33.111,33.7C180.744,28.364,195.827,15.167,195.827-5.336Zm-50.432,0c0-13.079,7.895-19.324,16.614-19.324s16.85,6.245,16.85,19.324c0,12.961-8.366,19.324-17.086,19.324C152.936,13.988,145.395,7.625,145.395-5.336ZM299.283,27.3h16.5v-38.3c0-18.028-11.076-27.926-26.748-27.926-9.544,0-18.146,5.067-22.388,12.49-4.478-8.13-12.844-12.49-22.977-12.49-8.13,0-15.082,3.417-19.206,8.837v-7.895h-16.5V27.3h16.5V-8.753c0-10.369,5.774-15.789,14.729-15.789,8.72,0,14.493,5.42,14.493,15.789V27.3h16.5V-8.753c0-10.369,5.774-15.789,14.611-15.789,8.719,0,14.493,5.42,14.493,15.789Zm32.168,0h16.5V-37.975h-16.5Zm8.366-73.055c5.774,0,10.134-4.242,10.134-9.662s-4.36-9.662-10.134-9.662c-5.892,0-10.133,4.242-10.133,9.662S333.925-45.752,339.816-45.752ZM359.966-5.336c0,20.5,13.433,33.7,32.286,33.7,16.261,0,27.219-9.191,30.754-23.095H405.213c-2,5.892-6.245,8.955-13.079,8.955-9.191,0-15.318-6.834-15.318-19.56s6.127-19.678,15.318-19.678c6.834,0,11.194,3.535,13.079,9.073h17.792c-3.535-14.611-14.493-23.095-30.754-23.095C373.4-39.036,359.966-25.839,359.966-5.336Zm138.216,0c0-20.62-14.729-33.7-33.582-33.7s-33.582,13.079-33.582,33.7c0,20.5,14.258,33.7,33.111,33.7C483.1,28.364,498.182,15.167,498.182-5.336Zm-50.432,0c0-13.079,7.895-19.324,16.614-19.324s16.85,6.245,16.85,19.324c0,12.961-8.366,19.324-17.086,19.324C455.291,13.988,447.75,7.625,447.75-5.336Zm58.8,53.967h16.143L554.505-84.283H538.362Z" transform="translate(157.177 84.283)" fill="#333"/><g transform="translate(0 7.071)"><path d="M100.939-127.056q-16.334,8.132-32.394,8.133h-.137q-28.43,0-48.385-20.092Q0-158.766,0-186.991,0-215.147,20.024-234.9q20.024-20.16,48.522-20.16,28.43,0,48.453,20.16,20.024,19.751,20.024,47.907,0,17.154-8.952,30.138-8.884,12.916-20.16,13.463h-1.162a15.741,15.741,0,0,1-11.413-4.442q-6.219-5.877-6.219-22.006V-171.2l.137-15.24q0-10.525-6.766-16.47a20.553,20.553,0,0,0-10.251-4.716,25.02,25.02,0,0,0-4.784-.478,24.252,24.252,0,0,0-7.312,1.161q-14.078,4.306-14.078,20.5,0,13.394,11.618,19.34a21.545,21.545,0,0,0,10.114,2.46,6.623,6.623,0,0,0,1.3-.137q5.877-.41,12.916-5.126l6.7,15.1a42.3,42.3,0,0,1-18.042,6.014q-1.435.068-2.87.068a40.025,40.025,0,0,1-18.11-4.374,36.66,36.66,0,0,1-14.9-13.668,36.816,36.816,0,0,1-5.467-19.682q0-17.564,11.891-27.951,10.934-9.7,26.448-9.7,15.445,0,26.379,9.636Q106-204.008,106-186.444l-.068,15.376v1.64q0,9.089,1.23,10.114,3.281-.205,7.654-7.449a38.26,38.26,0,0,0,5.467-20.229,50.488,50.488,0,0,0-15.376-37.04,49.562,49.562,0,0,0-36.357-15.1q-21.322,0-36.63,15.308a50.152,50.152,0,0,0-15.172,36.835A50.567,50.567,0,0,0,32.12-149.882a49.742,49.742,0,0,0,36.289,15.035h.137q12.3,0,25.9-7.039Z" transform="translate(0 255.058)" fill="#373737"/></g></g></g></svg>