<svg xmlns="http://www.w3.org/2000/svg" width="1080" height="151.959" viewBox="0 0 1080 151.959"><g transform="translate(-241 -399.717)"><path d="M60.987,5.144c-.5-25.382-38.886-17.5-38.886-30.133,0-4,3.376-6.627,9.878-6.627,6.877,0,11.128,3.626,11.628,9H60.361c-1-13.754-11.128-22.881-27.883-22.881C15.349-45.495,5.1-36.242,5.1-24.739,5.1.643,44.232-7.234,44.232,5.144c0,4-3.751,7.127-10.628,7.127-7,0-11.878-4-12.5-9.253H3.471C4.221,15.9,16.35,26.025,33.729,26.025,50.609,26.025,60.987,17.022,60.987,5.144Zm17.13-1.75c0,15.879,8.877,21.506,22.131,21.506h11V10.145h-8.127c-5.5,0-7.377-2-7.377-6.627V-29.99h15.5V-44.369h-15.5V-61.5H78.116v17.13H69.864V-29.99h8.252ZM190.772-9.735c0-21.881-15.629-35.76-35.635-35.76S119.5-31.616,119.5-9.735c0,21.756,15.129,35.76,35.135,35.76C174.768,26.025,190.772,12.021,190.772-9.735Zm-53.515,0c0-13.879,8.377-20.506,17.63-20.506s17.88,6.627,17.88,20.506c0,13.754-8.877,20.506-18.13,20.506C145.26,10.771,137.257,4.019,137.257-9.735Zm83.9.125c0-13.379,6.252-17.38,16.63-17.38h4.626V-45.37a24.024,24.024,0,0,0-21.256,11.753V-44.369h-17.5V24.9h17.5Zm62.767-21.506c9,0,16.254,5.752,16.5,14.879H267.543C268.918-25.739,275.545-31.116,283.922-31.116ZM316.806,3.144h-18.88c-2.251,4.626-6.377,8.377-13.879,8.377-8.752,0-15.754-5.752-16.63-16h50.639a40.916,40.916,0,0,0,.5-6.752c0-20.631-14.129-34.259-34.134-34.259-20.506,0-34.759,13.879-34.759,35.76,0,21.756,14.629,35.76,34.759,35.76C301.552,26.025,313.055,15.9,316.806,3.144Z" transform="translate(1002.443 493.225)" fill="#333"/><g transform="translate(241 399.717)" opacity="0.5"><path d="M2.937-.76c0,21.631,14,36.01,31.509,36.01,11,0,18.88-5.251,23.006-11.253V34.124h17.63V-35.145H57.452v9.878c-4.126-5.752-11.753-11-22.881-11C16.941-36.27,2.937-22.391,2.937-.76Zm54.515.25c0,13.129-8.752,20.381-18.38,20.381-9.378,0-18.255-7.5-18.255-20.631s8.877-20.13,18.255-20.13C48.7-20.891,57.452-13.639,57.452-.51Zm37.51,13.129c0,15.879,8.877,21.506,22.131,21.506h11V19.37h-8.127c-5.5,0-7.377-2-7.377-6.627V-20.766h15.5V-35.145h-15.5v-17.13H94.962v17.13H86.71v14.379h8.252ZM207.618-.51c0-21.881-15.629-35.76-35.635-35.76S136.348-22.391,136.348-.51c0,21.756,15.129,35.76,35.135,35.76C191.613,35.249,207.618,21.246,207.618-.51ZM154.1-.51c0-13.879,8.377-20.506,17.63-20.506s17.88,6.627,17.88,20.506c0,13.754-8.877,20.506-18.13,20.506C162.105,20,154.1,13.244,154.1-.51ZM317.4,34.124h17.5V-6.512c0-19.13-11.753-29.633-28.383-29.633-10.128,0-19.255,5.376-23.756,13.254-4.751-8.627-13.629-13.254-24.382-13.254-8.627,0-16,3.626-20.381,9.378v-8.377H220.5V34.124H238V-4.136c0-11,6.127-16.755,15.629-16.755,9.253,0,15.379,5.752,15.379,16.755v38.26h17.5V-4.136c0-11,6.127-16.755,15.5-16.755,9.253,0,15.379,5.752,15.379,16.755Zm34.134,0h17.5V-35.145h-17.5ZM360.409-43.4c6.127,0,10.753-4.5,10.753-10.253S366.536-63.9,360.409-63.9c-6.252,0-10.753,4.5-10.753,10.253S354.157-43.4,360.409-43.4ZM381.79-.51c0,21.756,14.254,35.76,34.259,35.76,17.255,0,28.883-9.753,32.634-24.507H429.8c-2.126,6.252-6.627,9.5-13.879,9.5-9.753,0-16.254-7.252-16.254-20.756s6.5-20.881,16.254-20.881c7.252,0,11.878,3.751,13.879,9.628h18.88c-3.751-15.5-15.379-24.507-32.634-24.507C396.044-36.27,381.79-22.266,381.79-.51Zm146.665,0c0-21.881-15.629-35.76-35.635-35.76S457.185-22.391,457.185-.51c0,21.756,15.129,35.76,35.135,35.76C512.451,35.249,528.455,21.246,528.455-.51Zm-53.515,0c0-13.879,8.377-20.506,17.63-20.506S510.45-14.389,510.45-.51C510.45,13.244,501.573,20,492.32,20,482.943,20,474.94,13.244,474.94-.51Zm62.392,57.266h17.13L588.221-84.283h-17.13Z" transform="translate(166.965 84.283)" fill="#333"/><g transform="translate(0 7.503)"><path d="M107.109-119.232q-17.332,8.63-34.374,8.63H72.59q-30.167,0-51.343-21.32Q0-152.88,0-182.83q0-29.877,21.248-50.835Q42.5-255.058,72.735-255.058q30.167,0,51.415,21.393Q145.4-212.707,145.4-182.83q0,18.2-9.5,31.98-9.427,13.706-21.393,14.286h-1.233a16.7,16.7,0,0,1-12.111-4.714q-6.6-6.236-6.6-23.351v-1.45l.146-16.171q0-11.168-7.18-17.477a21.809,21.809,0,0,0-10.878-5,26.548,26.548,0,0,0-5.076-.507,25.734,25.734,0,0,0-7.759,1.232q-14.939,4.569-14.939,21.756,0,14.213,12.328,20.522a22.862,22.862,0,0,0,10.733,2.611,7.026,7.026,0,0,0,1.377-.145q6.237-.435,13.706-5.439l7.107,16.027a44.88,44.88,0,0,1-19.145,6.382q-1.522.073-3.045.072a42.471,42.471,0,0,1-19.217-4.641,38.9,38.9,0,0,1-15.809-14.5,39.066,39.066,0,0,1-5.8-20.885q0-18.637,12.618-29.66,11.6-10.3,28.065-10.3,16.389,0,27.991,10.225,12.691,11.1,12.691,29.732l-.072,16.316v1.74q0,9.645,1.3,10.733,3.481-.218,8.122-7.9a40.6,40.6,0,0,0,5.8-21.465,53.575,53.575,0,0,0-16.316-39.3,52.591,52.591,0,0,0-38.58-16.026q-22.625,0-38.87,16.244-16.1,16.1-16.1,39.087a53.658,53.658,0,0,0,16.317,39.377Q50.182-127.5,72.59-127.5h.145q13.053,0,27.485-7.469Z" transform="translate(0 255.058)" fill="#373737"/></g></g></g></svg>