<svg xmlns="http://www.w3.org/2000/svg" width="1316.15" height="127.934" viewBox="0 0 1316.15 127.934"><g transform="translate(-241 -401.565)"><path d="M3.465-29.085c0,18.27,11.97,30.03,28.77,30.03,14.49,0,24.255-8.19,27.405-20.58H43.785c-1.785,5.25-5.565,7.98-11.655,7.98-8.19,0-13.65-6.09-13.65-17.43S23.94-46.62,32.13-46.62c6.09,0,9.975,3.15,11.655,8.085H59.64c-3.15-13.02-12.915-20.58-27.405-20.58C15.435-59.115,3.465-47.355,3.465-29.085Zm123.165,0c0-18.375-13.125-30.03-29.925-30.03S66.78-47.46,66.78-29.085c0,18.27,12.705,30.03,29.505,30.03C113.19.945,126.63-10.815,126.63-29.085Zm-44.94,0c0-11.655,7.035-17.22,14.8-17.22s15.015,5.565,15.015,17.22c0,11.55-7.455,17.22-15.225,17.22C88.41-11.865,81.69-17.535,81.69-29.085ZM218.82,0h14.7V-34.125c0-16.065-9.87-24.885-23.835-24.885a23.031,23.031,0,0,0-19.95,11.13c-3.99-7.245-11.445-11.13-20.475-11.13-7.245,0-13.44,3.045-17.115,7.875V-58.17h-14.7V0h14.7V-32.13c0-9.24,5.145-14.07,13.125-14.07,7.77,0,12.915,4.83,12.915,14.07V0h14.7V-32.13c0-9.24,5.145-14.07,13.02-14.07,7.77,0,12.915,4.83,12.915,14.07Zm43.365-49.77v-8.4h-14.7V27.72h14.7V-8.3A23.748,23.748,0,0,0,281.4.945c14.91,0,26.565-12.075,26.565-30.24S296.31-59.115,281.4-59.115C272.37-59.115,265.65-54.705,262.185-49.77ZM292.95-29.3c0,11.025-7.455,17.325-15.435,17.325-7.875,0-15.33-6.09-15.33-17.115S269.64-46.2,277.515-46.2C285.495-46.2,292.95-40.32,292.95-29.3Zm81.9.21c0-18.375-13.125-30.03-29.925-30.03S315-47.46,315-29.085c0,18.27,12.7,30.03,29.505,30.03C361.41.945,374.85-10.815,374.85-29.085Zm-44.94,0c0-11.655,7.035-17.22,14.8-17.22s15.015,5.565,15.015,17.22c0,11.55-7.455,17.22-15.225,17.22C336.63-11.865,329.91-17.535,329.91-29.085ZM426.4,0h14.7V-34.125c0-16.065-9.66-24.885-23.2-24.885-7.455,0-13.755,3.15-17.535,8.085V-58.17h-14.7V0h14.7V-32.13c0-9.345,5.145-14.385,13.125-14.385,7.77,0,12.915,5.04,12.915,14.385ZM480.06-47.04c7.56,0,13.65,4.83,13.86,12.495H466.3C467.46-42.525,473.025-47.04,480.06-47.04Zm27.615,28.77H491.82c-1.89,3.885-5.355,7.035-11.655,7.035-7.35,0-13.23-4.83-13.965-13.44h42.525a34.359,34.359,0,0,0,.42-5.67c0-17.325-11.865-28.77-28.665-28.77-17.22,0-29.19,11.655-29.19,30.03,0,18.27,12.285,30.03,29.19,30.03C494.865.945,504.525-7.56,507.675-18.27ZM560.595,0h14.7V-34.125c0-16.065-9.66-24.885-23.205-24.885-7.455,0-13.755,3.15-17.535,8.085V-58.17h-14.7V0h14.7V-32.13c0-9.345,5.145-14.385,13.125-14.385,7.77,0,12.915,5.04,12.915,14.385ZM591.57-18.06C591.57-4.725,599.025,0,610.155,0h9.24V-12.39H612.57c-4.62,0-6.2-1.68-6.2-5.565V-46.1H619.4V-58.17h-13.02V-72.555h-14.8V-58.17h-6.93V-46.1h6.93Zm83.58,1.47c-.42-21.315-32.655-14.7-32.655-25.305,0-3.36,2.835-5.565,8.295-5.565,5.775,0,9.345,3.045,9.765,7.56h14.07c-.84-11.55-9.345-19.215-23.415-19.215-14.385,0-22.995,7.77-22.995,17.43,0,21.315,32.865,14.7,32.865,25.1,0,3.36-3.15,5.985-8.925,5.985-5.88,0-9.975-3.36-10.5-7.77H626.85C627.48-7.56,637.665.945,652.26.945,666.435.945,675.15-6.615,675.15-16.59Z" transform="translate(882 501)" fill="#333"/><g transform="translate(241 391)" opacity="0.5"><path d="M3.465-29.3c0,18.165,11.76,30.24,26.46,30.24,9.24,0,15.855-4.41,19.32-9.45V0H64.05V-58.17H49.245v8.295c-3.465-4.83-9.87-9.24-19.215-9.24C15.225-59.115,3.465-47.46,3.465-29.3Zm45.78.21c0,11.025-7.35,17.115-15.435,17.115-7.875,0-15.33-6.3-15.33-17.325S25.935-46.2,33.81-46.2C41.9-46.2,49.245-40.11,49.245-29.085Zm31.5,11.025C80.745-4.725,88.2,0,99.33,0h9.24V-12.39h-6.825c-4.62,0-6.195-1.68-6.195-5.565V-46.1h13.02V-58.17H95.55V-72.555H80.745V-58.17h-6.93V-46.1h6.93Zm94.6-11.025c0-18.375-13.125-30.03-29.925-30.03S115.5-47.46,115.5-29.085c0,18.27,12.7,30.03,29.505,30.03C161.91.945,175.35-10.815,175.35-29.085Zm-44.94,0c0-11.655,7.035-17.22,14.805-17.22s15.015,5.565,15.015,17.22c0,11.55-7.455,17.22-15.225,17.22C137.13-11.865,130.41-17.535,130.41-29.085ZM267.54,0h14.7V-34.125c0-16.065-9.87-24.885-23.835-24.885a23.031,23.031,0,0,0-19.95,11.13c-3.99-7.245-11.445-11.13-20.475-11.13-7.245,0-13.44,3.045-17.115,7.875V-58.17h-14.7V0h14.7V-32.13c0-9.24,5.145-14.07,13.125-14.07,7.77,0,12.915,4.83,12.915,14.07V0h14.7V-32.13c0-9.24,5.145-14.07,13.02-14.07,7.77,0,12.915,4.83,12.915,14.07ZM296.2,0h14.7V-58.17H296.2Zm7.455-65.1a8.683,8.683,0,0,0,9.03-8.61,8.683,8.683,0,0,0-9.03-8.61c-5.25,0-9.03,3.78-9.03,8.61S298.41-65.1,303.66-65.1Zm17.955,36.015c0,18.27,11.97,30.03,28.77,30.03,14.49,0,24.255-8.19,27.405-20.58H361.935c-1.785,5.25-5.565,7.98-11.655,7.98-8.19,0-13.65-6.09-13.65-17.43s5.46-17.535,13.65-17.535c6.09,0,9.975,3.15,11.655,8.085H377.79c-3.15-13.02-12.915-20.58-27.405-20.58C333.585-59.115,321.615-47.355,321.615-29.085Zm123.165,0c0-18.375-13.125-30.03-29.925-30.03S384.93-47.46,384.93-29.085c0,18.27,12.7,30.03,29.505,30.03C431.34.945,444.78-10.815,444.78-29.085Zm-44.94,0c0-11.655,7.035-17.22,14.8-17.22s15.015,5.565,15.015,17.22c0,11.55-7.455,17.22-15.225,17.22C406.56-11.865,399.84-17.535,399.84-29.085Zm52.395,48.09H466.62l28.35-118.44H480.585Z" transform="translate(140 110)" fill="#333"/><g transform="translate(0 16.658)"><path d="M90.341-140.5q-14.619,7.279-28.992,7.279h-.122q-25.445,0-43.3-17.982Q0-168.876,0-194.138a57.986,57.986,0,0,1,17.921-42.877,58.941,58.941,0,0,1,43.427-18.044,58.871,58.871,0,0,1,43.366,18.044,57.985,57.985,0,0,1,17.921,42.877,46.35,46.35,0,0,1-8.012,26.974q-7.952,11.56-18.044,12.049H95.54a14.088,14.088,0,0,1-10.215-3.976q-5.566-5.26-5.566-19.7v-1.223l.123-13.64q0-9.42-6.056-14.741a18.4,18.4,0,0,0-9.175-4.22,22.393,22.393,0,0,0-4.282-.428A21.705,21.705,0,0,0,53.825-212q-12.6,3.854-12.6,18.35,0,11.988,10.4,17.309a19.283,19.283,0,0,0,9.052,2.2,5.927,5.927,0,0,0,1.162-.122q5.26-.367,11.56-4.587l5.994,13.518a37.854,37.854,0,0,1-16.148,5.383q-1.284.061-2.569.061A35.822,35.822,0,0,1,44.467-163.8a32.811,32.811,0,0,1-13.334-12.233,32.95,32.95,0,0,1-4.893-17.615q0-15.72,10.643-25.017a34.419,34.419,0,0,1,23.671-8.686,34.478,34.478,0,0,1,23.609,8.624q10.7,9.358,10.7,25.078l-.061,13.762v1.468q0,8.135,1.1,9.052,2.936-.183,6.851-6.667a34.243,34.243,0,0,0,4.893-18.1,45.187,45.187,0,0,0-13.762-33.151,44.358,44.358,0,0,0-32.54-13.517,44.733,44.733,0,0,0-32.784,13.7,44.886,44.886,0,0,0-13.579,32.968,45.258,45.258,0,0,0,13.762,33.213,44.52,44.52,0,0,0,32.479,13.456h.122q11.01,0,23.182-6.3Z" transform="translate(0 255.058)" fill="#373737"/></g></g></g></svg>