<svg xmlns="http://www.w3.org/2000/svg" width="1080" height="145.636" viewBox="0 0 1080 145.636"><g transform="translate(-241 -399.717)"><path d="M9.418,23.962H26.434V-28.644H38.058V-42.425H26.434v-2.756c0-7.43,2.756-10.066,10.9-9.826v-14.14C18.645-69.627,9.418-62.077,9.418-45.78v3.355H1.869v13.781H9.418ZM113.073-9.232C113.073-30.2,98.094-43.5,78.921-43.5S44.769-30.2,44.769-9.232c0,20.851,14.5,34.272,33.673,34.272C97.734,25.04,113.073,11.619,113.073-9.232Zm-51.288,0c0-13.3,8.029-19.652,16.9-19.652S95.817-22.533,95.817-9.232c0,13.181-8.508,19.652-17.376,19.652C69.454,10.421,61.785,3.95,61.785-9.232Zm80.407.12c0-12.822,5.992-16.657,15.938-16.657h4.434V-43.384A23.024,23.024,0,0,0,142.192-32.12V-42.425H125.415V23.962h16.776ZM266.7,23.962h16.776V-14.984c0-18.334-11.264-28.4-27.2-28.4-9.706,0-18.454,5.153-22.768,12.7-4.554-8.268-13.062-12.7-23.367-12.7-8.268,0-15.338,3.475-19.533,8.987v-8.029H173.827V23.962H190.6V-12.707c0-10.545,5.872-16.057,14.979-16.057,8.868,0,14.739,5.512,14.739,16.057V23.962H237.1V-12.707c0-10.545,5.872-16.057,14.859-16.057,8.868,0,14.739,5.512,14.739,16.057ZM350.938,5.028c-.479-24.326-37.268-16.776-37.268-28.879,0-3.835,3.235-6.351,9.467-6.351,6.591,0,10.665,3.475,11.144,8.628h16.057C349.38-34.756,339.674-43.5,323.617-43.5c-16.417,0-26.243,8.868-26.243,19.892,0,24.326,37.507,16.776,37.507,28.64,0,3.835-3.595,6.83-10.186,6.83-6.711,0-11.384-3.835-11.983-8.868h-16.9c.719,12.343,12.343,22.049,29,22.049C340.992,25.04,350.938,16.412,350.938,5.028Z" transform="translate(970.062 489.236)" fill="#333"/><g transform="translate(241 399.717)" opacity="0.5"><path d="M2.937-4.236c0,20.731,13.421,34.511,30.2,34.511,10.545,0,18.095-5.033,22.049-10.785V29.2h16.9V-37.189h-16.9v9.467c-3.954-5.512-11.264-10.545-21.929-10.545C16.358-38.268,2.937-24.966,2.937-4.236ZM55.184-4c0,12.582-8.388,19.533-17.615,19.533-8.987,0-17.5-7.19-17.5-19.772s8.508-19.293,17.5-19.293C46.8-23.528,55.184-16.578,55.184-4ZM91.133,8.586c0,15.219,8.508,20.611,21.21,20.611h10.545V15.057H115.1c-5.273,0-7.07-1.917-7.07-6.351V-23.409h14.859V-37.189H108.029V-53.606h-16.9v16.417H83.224v13.781h7.909ZM199.1-4c0-20.971-14.979-34.272-34.152-34.272S130.8-24.966,130.8-4c0,20.851,14.5,34.272,33.673,34.272C183.763,30.276,199.1,16.855,199.1-4ZM147.813-4c0-13.3,8.029-19.652,16.9-19.652S181.846-17.3,181.846-4c0,13.181-8.508,19.652-17.376,19.652C155.483,15.657,147.813,9.186,147.813-4ZM304.313,29.2H321.09V-9.748c0-18.334-11.264-28.4-27.2-28.4-9.706,0-18.454,5.153-22.768,12.7-4.554-8.268-13.062-12.7-23.367-12.7-8.268,0-15.338,3.475-19.533,8.987v-8.029H211.444V29.2H228.22V-7.471c0-10.545,5.872-16.057,14.979-16.057,8.868,0,14.739,5.512,14.739,16.057V29.2h16.776V-7.471c0-10.545,5.872-16.057,14.859-16.057,8.868,0,14.739,5.512,14.739,16.057Zm32.714,0H353.8V-37.189H337.027Zm8.508-74.3c5.872,0,10.306-4.314,10.306-9.826s-4.434-9.826-10.306-9.826c-5.992,0-10.306,4.314-10.306,9.826S339.544-45.1,345.535-45.1ZM366.027-4c0,20.851,13.661,34.272,32.834,34.272,16.537,0,27.681-9.347,31.276-23.487H412.042c-2.037,5.992-6.351,9.107-13.3,9.107-9.347,0-15.578-6.95-15.578-19.892s6.231-20.012,15.578-20.012c6.95,0,11.384,3.595,13.3,9.227h18.095C426.542-29.64,415.4-38.268,398.86-38.268,379.687-38.268,366.027-24.847,366.027-4ZM506.589-4c0-20.971-14.979-34.272-34.152-34.272S438.285-24.966,438.285-4c0,20.851,14.5,34.272,33.673,34.272C491.251,30.276,506.589,16.855,506.589-4ZM455.3-4c0-13.3,8.029-19.652,16.9-19.652S489.333-17.3,489.333-4c0,13.181-8.508,19.652-17.376,19.652C462.97,15.657,455.3,9.186,455.3-4Zm59.8,54.883h16.417l32.355-135.17H547.452Z" transform="translate(159.895 84.283)" fill="#333"/><g transform="translate(0 7.191)"><path d="M102.653-124.883q-16.611,8.271-32.944,8.271H69.57q-28.912,0-49.206-20.433Q0-157.132,0-185.835q0-28.634,20.364-48.72,20.364-20.5,49.345-20.5,28.912,0,49.276,20.5,20.364,20.086,20.364,48.72,0,17.445-9.1,30.65-9.035,13.136-20.5,13.692H108.56a16.008,16.008,0,0,1-11.607-4.518q-6.325-5.977-6.325-22.379v-1.39l.14-15.5q0-10.7-6.881-16.75a20.9,20.9,0,0,0-10.425-4.8,25.444,25.444,0,0,0-4.865-.486,24.663,24.663,0,0,0-7.436,1.181q-14.317,4.379-14.317,20.851,0,13.622,11.815,19.668a21.91,21.91,0,0,0,10.286,2.5,6.734,6.734,0,0,0,1.32-.139q5.977-.417,13.136-5.213l6.811,15.36a43.013,43.013,0,0,1-18.348,6.116q-1.459.069-2.919.069a40.7,40.7,0,0,1-18.418-4.448,37.282,37.282,0,0,1-15.151-13.9,37.441,37.441,0,0,1-5.56-20.016q0-17.862,12.093-28.426,11.12-9.869,26.9-9.869,15.707,0,26.827,9.8,12.162,10.633,12.163,28.5l-.069,15.637v1.668q0,9.244,1.251,10.286,3.337-.209,7.784-7.576a38.91,38.91,0,0,0,5.56-20.572A51.345,51.345,0,0,0,106.683-223.5a50.4,50.4,0,0,0-36.974-15.36q-21.684,0-37.252,15.568a51,51,0,0,0-15.429,37.461A51.425,51.425,0,0,0,32.665-148.1a50.587,50.587,0,0,0,36.9,15.29h.139q12.51,0,26.341-7.159Z" transform="translate(0 255.058)" fill="#373737"/></g></g></g></svg>