<svg xmlns="http://www.w3.org/2000/svg" width="768.751" height="108.166" viewBox="0 0 768.751 108.166"><g transform="translate(-241 -399.717)"><path d="M44.411-14.062c-.356-18.067-27.679-12.46-27.679-21.449,0-2.848,2.4-4.717,7.031-4.717,4.9,0,7.921,2.581,8.277,6.408H43.966c-.712-9.79-7.921-16.287-19.847-16.287-12.193,0-19.491,6.586-19.491,14.774,0,18.067,27.857,12.46,27.857,21.271,0,2.848-2.67,5.073-7.565,5.073-4.984,0-8.455-2.848-8.9-6.586H3.471C4.005-6.408,12.638.8,25.009.8,37.024.8,44.411-5.607,44.411-14.062ZM56.6-15.308C56.6-4.005,62.923,0,72.357,0h7.832V-10.5H74.4c-3.916,0-5.251-1.424-5.251-4.717V-39.071H80.189V-49.306H69.153V-61.5H56.6v12.193H50.73v10.235H56.6Zm80.189-9.345c0-15.575-11.125-25.454-25.365-25.454S86.063-40.228,86.063-24.653C86.063-9.167,96.832.8,111.072.8,125.4.8,136.793-9.167,136.793-24.653Zm-38.092,0c0-9.879,5.963-14.6,12.549-14.6s12.727,4.717,12.727,14.6c0,9.79-6.319,14.6-12.9,14.6C104.4-10.057,98.7-14.863,98.7-24.653Zm59.719.089c0-9.523,4.45-12.371,11.837-12.371h3.293V-50.018a17.1,17.1,0,0,0-15.13,8.366v-7.654H145.96V0h12.46ZM203.1-39.872c6.408,0,11.57,4.094,11.748,10.591H191.439C192.418-36.045,197.135-39.872,203.1-39.872Zm23.407,24.386H213.066c-1.6,3.293-4.539,5.963-9.879,5.963-6.23,0-11.214-4.094-11.837-11.392h36.045a29.124,29.124,0,0,0,.356-4.806c0-14.685-10.057-24.386-24.3-24.386-14.6,0-24.742,9.879-24.742,25.454C178.712-9.167,189.125.8,203.454.8,215.647.8,223.835-6.408,226.505-15.486Z" transform="translate(782 484)" fill="#333"/><g transform="translate(-13 -135)" opacity="0.5"><path d="M2.937-24.831C2.937-9.434,12.905.8,25.365.8,33.2.8,38.8-2.937,41.741-7.209V0H54.29V-49.306H41.741v7.031c-2.937-4.094-8.366-7.832-16.287-7.832C12.905-50.107,2.937-40.228,2.937-24.831Zm38.8.178c0,9.345-6.23,14.507-13.083,14.507-6.675,0-12.994-5.34-12.994-14.685S21.983-39.16,28.658-39.16C35.511-39.16,41.741-34,41.741-24.653Zm26.7,9.345C68.441-4.005,74.76,0,84.194,0h7.832V-10.5H86.241c-3.916,0-5.251-1.424-5.251-4.717V-39.071H92.026V-49.306H80.99V-61.5H68.441v12.193H62.567v10.235h5.874Zm80.189-9.345c0-15.575-11.125-25.454-25.365-25.454S97.9-40.228,97.9-24.653C97.9-9.167,108.669.8,122.909.8,137.238.8,148.63-9.167,148.63-24.653Zm-38.092,0c0-9.879,5.963-14.6,12.549-14.6s12.727,4.717,12.727,14.6c0,9.79-6.319,14.6-12.9,14.6C116.234-10.057,110.538-14.863,110.538-24.653ZM226.772,0h12.46V-28.925c0-13.617-8.366-21.093-20.2-21.093a19.522,19.522,0,0,0-16.91,9.434c-3.382-6.141-9.7-9.434-17.355-9.434a17.953,17.953,0,0,0-14.507,6.675v-5.963H157.8V0h12.46V-27.234c0-7.832,4.361-11.926,11.125-11.926,6.586,0,10.947,4.094,10.947,11.926V0h12.46V-27.234c0-7.832,4.361-11.926,11.036-11.926,6.586,0,10.947,4.094,10.947,11.926Zm24.3,0h12.46V-49.306h-12.46Zm6.319-55.18a7.36,7.36,0,0,0,7.654-7.3,7.36,7.36,0,0,0-7.654-7.3,7.307,7.307,0,0,0-7.654,7.3A7.307,7.307,0,0,0,257.388-55.18Zm15.219,30.527C272.607-9.167,282.753.8,296.993.8c12.282,0,20.559-6.942,23.229-17.444H306.783c-1.513,4.45-4.717,6.764-9.879,6.764-6.942,0-11.57-5.162-11.57-14.774s4.628-14.863,11.57-14.863c5.162,0,8.455,2.67,9.879,6.853h13.439c-2.67-11.036-10.947-17.444-23.229-17.444C282.753-50.107,272.607-40.139,272.607-24.653Zm104.4,0c0-15.575-11.125-25.454-25.365-25.454s-25.365,9.879-25.365,25.454C326.274-9.167,337.043.8,351.283.8,365.612.8,377-9.167,377-24.653Zm-38.092,0c0-9.879,5.963-14.6,12.549-14.6s12.727,4.717,12.727,14.6c0,9.79-6.319,14.6-12.9,14.6C344.608-10.057,338.912-14.863,338.912-24.653Zm44.411,40.762h12.193l24.03-100.392H407.353Z" transform="translate(372 619)" fill="#333"/><g transform="translate(238 660.116)"><path d="M76.241-158.376a54.544,54.544,0,0,1-24.467,6.143h-.1a49.6,49.6,0,0,1-36.546-15.176A48.994,48.994,0,0,1,0-203.646a48.936,48.936,0,0,1,15.124-36.185,49.742,49.742,0,0,1,36.649-15.227,49.683,49.683,0,0,1,36.6,15.227A48.935,48.935,0,0,1,103.5-203.646a39.116,39.116,0,0,1-6.762,22.764q-6.711,9.756-15.227,10.169h-.878a11.889,11.889,0,0,1-8.62-3.355q-4.7-4.439-4.7-16.621v-1.032l.1-11.511q0-7.95-5.111-12.44a15.524,15.524,0,0,0-7.743-3.562,18.9,18.9,0,0,0-3.613-.361,18.318,18.318,0,0,0-5.523.877q-10.633,3.252-10.633,15.486,0,10.117,8.775,14.608a16.273,16.273,0,0,0,7.64,1.858,5,5,0,0,0,.98-.1q4.439-.31,9.756-3.871L67-179.333a31.946,31.946,0,0,1-13.627,4.542q-1.084.052-2.168.052a30.231,30.231,0,0,1-13.679-3.3,27.69,27.69,0,0,1-11.253-10.324,27.808,27.808,0,0,1-4.129-14.866q0-13.266,8.982-21.112a29.047,29.047,0,0,1,19.977-7.33A29.1,29.1,0,0,1,71.027-224.4q9.033,7.9,9.034,21.164l-.052,11.614v1.239q0,6.865.929,7.64,2.478-.155,5.781-5.626a28.9,28.9,0,0,0,4.129-15.279,38.135,38.135,0,0,0-11.614-27.977,37.435,37.435,0,0,0-27.461-11.408,37.751,37.751,0,0,0-27.668,11.563,37.881,37.881,0,0,0-11.459,27.822,38.194,38.194,0,0,0,11.614,28.029A37.571,37.571,0,0,0,51.67-164.261h.1q9.291,0,19.564-5.317Z" transform="translate(16 135)" fill="#373737"/></g></g></g></svg>