<svg xmlns="http://www.w3.org/2000/svg" width="380" height="83.729" viewBox="0 0 380 83.729"><g transform="translate(-58 -471)"><rect width="380" height="83.729" rx="10" transform="translate(58 471)" fill="#fff"/><path d="M.63-6.924A6.055,6.055,0,0,1,1.4-9.98a5.5,5.5,0,0,1,2.1-2.1,5.968,5.968,0,0,1,2.988-.754,5.88,5.88,0,0,1,3.4.994,5.2,5.2,0,0,1,2.037,2.749H9.255a2.76,2.76,0,0,0-1.118-1.242,3.281,3.281,0,0,0-1.664-.414,3.425,3.425,0,0,0-1.8.472,3.22,3.22,0,0,0-1.221,1.33,4.4,4.4,0,0,0-.439,2.024,4.408,4.408,0,0,0,.439,2.012A3.21,3.21,0,0,0,4.679-3.57a3.425,3.425,0,0,0,1.8.472A3.23,3.23,0,0,0,8.141-3.52,2.814,2.814,0,0,0,9.259-4.771h2.668A5.167,5.167,0,0,1,9.9-2.011a5.905,5.905,0,0,1-3.412.983A5.968,5.968,0,0,1,3.5-1.782a5.521,5.521,0,0,1-2.1-2.1A6.01,6.01,0,0,1,.63-6.924Zm15.6-1.954A3.26,3.26,0,0,1,17.4-10.021a3.247,3.247,0,0,1,1.648-.414V-8h-.613a2.349,2.349,0,0,0-1.648.513A2.366,2.366,0,0,0,16.234-5.7v4.571H13.915V-10.3h2.319Zm12.9,2.966a5.473,5.473,0,0,1-.066.894H22.359a2.281,2.281,0,0,0,.694,1.555A2.145,2.145,0,0,0,24.56-2.9a1.894,1.894,0,0,0,1.84-1.11h2.5a4.179,4.179,0,0,1-1.524,2.178,4.449,4.449,0,0,1-2.766.853,4.785,4.785,0,0,1-2.377-.588A4.14,4.14,0,0,1,20.6-3.231a5.1,5.1,0,0,1-.588-2.484,5.2,5.2,0,0,1,.58-2.5A4.048,4.048,0,0,1,22.21-9.868a4.863,4.863,0,0,1,2.4-.58,4.824,4.824,0,0,1,2.343.563,3.963,3.963,0,0,1,1.606,1.6,4.836,4.836,0,0,1,.571,2.375Zm-2.4-.664a1.84,1.84,0,0,0-.644-1.433,2.288,2.288,0,0,0-1.54-.538,2.1,2.1,0,0,0-1.449.522,2.294,2.294,0,0,0-.72,1.449Zm3.5.828a5.311,5.311,0,0,1,.552-2.464,4.067,4.067,0,0,1,1.507-1.656,4.013,4.013,0,0,1,2.128-.58,3.738,3.738,0,0,1,1.8.414,3.646,3.646,0,0,1,1.233,1.04V-10.3h2.335v9.175H37.447V-2.469A3.449,3.449,0,0,1,36.21-1.4,3.772,3.772,0,0,1,34.4-.981a3.9,3.9,0,0,1-2.116-.6,4.173,4.173,0,0,1-1.5-1.678,5.4,5.4,0,0,1-.552-2.493Zm7.221.033a2.974,2.974,0,0,0-.331-1.449,2.335,2.335,0,0,0-.894-.927,2.392,2.392,0,0,0-1.211-.323,2.348,2.348,0,0,0-1.2.315,2.369,2.369,0,0,0-.886.92,2.879,2.879,0,0,0-.34,1.433,2.975,2.975,0,0,0,.34,1.449,2.445,2.445,0,0,0,.894.952,2.272,2.272,0,0,0,1.188.33,2.392,2.392,0,0,0,1.207-.32,2.335,2.335,0,0,0,.894-.927,2.974,2.974,0,0,0,.331-1.452ZM44.75-8.4v4.439a.877.877,0,0,0,.224.671,1.1,1.1,0,0,0,.754.207H46.8v1.952H45.347q-2.931,0-2.931-2.852V-8.4H41.322v-1.9h1.093V-12.57H44.75V-10.3H46.8v1.9ZM57-5.912a5.472,5.472,0,0,1-.066.894H50.232a2.281,2.281,0,0,0,.7,1.555,2.145,2.145,0,0,0,1.507.563,1.894,1.894,0,0,0,1.84-1.11h2.5a4.179,4.179,0,0,1-1.524,2.178,4.449,4.449,0,0,1-2.766.853A4.784,4.784,0,0,1,50.1-1.566a4.14,4.14,0,0,1-1.64-1.664,5.1,5.1,0,0,1-.588-2.484,5.2,5.2,0,0,1,.58-2.5,4.048,4.048,0,0,1,1.623-1.656,4.863,4.863,0,0,1,2.4-.58,4.824,4.824,0,0,1,2.343.563,3.963,3.963,0,0,1,1.606,1.6A4.836,4.836,0,0,1,57-5.912Zm-2.4-.662a1.84,1.84,0,0,0-.644-1.433,2.288,2.288,0,0,0-1.54-.538,2.1,2.1,0,0,0-1.449.522,2.294,2.294,0,0,0-.72,1.449Zm7.436.828a5.311,5.311,0,0,1,.552-2.468A4.067,4.067,0,0,1,64.1-9.87a4.012,4.012,0,0,1,2.128-.58,3.738,3.738,0,0,1,1.8.414,3.646,3.646,0,0,1,1.238,1.042V-10.3H71.6v9.175H69.262V-2.469A3.449,3.449,0,0,1,68.028-1.4a3.772,3.772,0,0,1-1.814.425,3.9,3.9,0,0,1-2.112-.6A4.173,4.173,0,0,1,62.6-3.256a5.4,5.4,0,0,1-.555-2.493Zm7.221.033a2.974,2.974,0,0,0-.331-1.449,2.335,2.335,0,0,0-.894-.927,2.392,2.392,0,0,0-1.209-.323,2.348,2.348,0,0,0-1.2.315,2.369,2.369,0,0,0-.886.92,2.879,2.879,0,0,0-.34,1.433,2.975,2.975,0,0,0,.34,1.449,2.445,2.445,0,0,0,.894.952,2.272,2.272,0,0,0,1.184.331,2.392,2.392,0,0,0,1.215-.323,2.335,2.335,0,0,0,.894-.927,2.974,2.974,0,0,0,.331-1.452ZM82.014-8.4H80.408v7.269H78.056V-8.4H77.013v-1.9h1.043v-.46a3.042,3.042,0,0,1,.961-2.484,4.291,4.291,0,0,1,2.9-.745v1.954a1.721,1.721,0,0,0-1.176.282,1.41,1.41,0,0,0-.331,1.077v.381h1.606Zm10.169-1.9v9.173H89.852V-2.287a3.061,3.061,0,0,1-1.171.936,3.624,3.624,0,0,1-1.564.34,3.887,3.887,0,0,1-1.9-.46,3.21,3.21,0,0,1-1.3-1.342,4.433,4.433,0,0,1-.472-2.116v-5.383h2.319v5.051A2.379,2.379,0,0,0,86.3-3.58a1.932,1.932,0,0,0,1.491.588,1.956,1.956,0,0,0,1.5-.579,2.379,2.379,0,0,0,.552-1.681V-10.3Zm7.37-.132A3.537,3.537,0,0,1,102.2-9.4a3.963,3.963,0,0,1,1.012,2.89v5.381h-2.322V-6.2a2.379,2.379,0,0,0-.547-1.681,1.932,1.932,0,0,0-1.491-.588,1.984,1.984,0,0,0-1.515.588A2.356,2.356,0,0,0,96.788-6.2v5.068H94.47V-10.3h2.319V-9.16a3.2,3.2,0,0,1,1.184-.936,3.663,3.663,0,0,1,1.581-.34Zm5.267,4.72a5.146,5.146,0,0,1,.581-2.5,4.14,4.14,0,0,1,1.606-1.656,4.648,4.648,0,0,1,2.352-.588,4.521,4.521,0,0,1,2.824.853,4.149,4.149,0,0,1,1.5,2.392h-2.5a1.829,1.829,0,0,0-.671-.936,1.947,1.947,0,0,0-1.168-.34,1.912,1.912,0,0,0-1.573.72,3.189,3.189,0,0,0-.58,2.045,3.16,3.16,0,0,0,.58,2.024,1.912,1.912,0,0,0,1.573.72,1.758,1.758,0,0,0,1.84-1.259h2.5a4.232,4.232,0,0,1-1.509,2.378,4.441,4.441,0,0,1-2.815.878,4.648,4.648,0,0,1-2.352-.588A4.14,4.14,0,0,1,105.4-3.223a5.146,5.146,0,0,1-.58-2.493ZM118.086-8.4v4.439a.877.877,0,0,0,.224.671,1.1,1.1,0,0,0,.754.207h1.076v1.952h-1.457q-2.931,0-2.931-2.852V-8.4h-1.093v-1.9h1.093V-12.57h2.335V-10.3h2.054v1.9Zm4.9-3a1.413,1.413,0,0,1-1.019-.389,1.288,1.288,0,0,1-.406-.969,1.288,1.288,0,0,1,.406-.969,1.413,1.413,0,0,1,1.019-.389,1.412,1.412,0,0,1,1.019.389,1.288,1.288,0,0,1,.406.969,1.288,1.288,0,0,1-.406.969,1.412,1.412,0,0,1-1.019.387Zm1.143,1.093v9.173h-2.319V-10.3Zm6.36,9.322a4.832,4.832,0,0,1-2.385-.588,4.232,4.232,0,0,1-1.664-1.664,4.987,4.987,0,0,1-.6-2.484,4.882,4.882,0,0,1,.621-2.484,4.316,4.316,0,0,1,1.7-1.669,4.927,4.927,0,0,1,2.4-.588,4.927,4.927,0,0,1,2.4.588,4.316,4.316,0,0,1,1.7,1.664,4.882,4.882,0,0,1,.621,2.484,4.785,4.785,0,0,1-.638,2.484,4.416,4.416,0,0,1-1.727,1.669,5.009,5.009,0,0,1-2.422.588Zm0-2.024a2.412,2.412,0,0,0,1.184-.306,2.226,2.226,0,0,0,.886-.92,3.1,3.1,0,0,0,.331-1.491,2.76,2.76,0,0,0-.687-2.012,2.26,2.26,0,0,0-1.681-.7,2.208,2.208,0,0,0-1.664.7,2.8,2.8,0,0,0-.671,2.012,2.852,2.852,0,0,0,.654,2.012A2.154,2.154,0,0,0,130.491-3Zm11.577-7.436a3.537,3.537,0,0,1,2.65,1.035,3.963,3.963,0,0,1,1.012,2.89v5.386h-2.319V-6.2a2.379,2.379,0,0,0-.547-1.681,1.932,1.932,0,0,0-1.491-.588,1.984,1.984,0,0,0-1.515.588,2.356,2.356,0,0,0-.552,1.681v5.068h-2.319V-10.3h2.319V-9.16a3.2,3.2,0,0,1,1.184-.936,3.663,3.663,0,0,1,1.577-.34Zm12.5,2.043v4.439a.877.877,0,0,0,.224.671,1.1,1.1,0,0,0,.754.207h1.077v1.952h-1.457q-2.933,0-2.933-2.852V-8.4h-1.093v-1.9h1.093V-12.57h2.335V-10.3h2.054v1.9Zm7.8,7.418a4.832,4.832,0,0,1-2.385-.588,4.232,4.232,0,0,1-1.664-1.664,4.987,4.987,0,0,1-.6-2.484,4.882,4.882,0,0,1,.621-2.484,4.316,4.316,0,0,1,1.7-1.669,4.927,4.927,0,0,1,2.4-.588,4.927,4.927,0,0,1,2.4.588,4.316,4.316,0,0,1,1.7,1.664,4.882,4.882,0,0,1,.621,2.484,4.784,4.784,0,0,1-.638,2.484A4.416,4.416,0,0,1,164.8-1.571a5.009,5.009,0,0,1-2.426.593Zm0-2.024a2.412,2.412,0,0,0,1.184-.306,2.227,2.227,0,0,0,.886-.92,3.1,3.1,0,0,0,.331-1.491,2.76,2.76,0,0,0-.687-2.012,2.26,2.26,0,0,0-1.681-.7,2.208,2.208,0,0,0-1.664.7,2.8,2.8,0,0,0-.671,2.012,2.852,2.852,0,0,0,.654,2.012A2.154,2.154,0,0,0,162.372-3Zm9.838-2.746a5.31,5.31,0,0,1,.552-2.468,4.048,4.048,0,0,1,1.515-1.656,4.055,4.055,0,0,1,2.136-.58,3.9,3.9,0,0,1,1.706.389,3.411,3.411,0,0,1,1.288,1.035v-4.356h2.362V-1.127h-2.355V-2.486A3.142,3.142,0,0,1,178.2-1.392a3.787,3.787,0,0,1-1.805.414,3.941,3.941,0,0,1-2.116-.6,4.151,4.151,0,0,1-1.515-1.681,5.4,5.4,0,0,1-.558-2.493Zm7.221.033a2.973,2.973,0,0,0-.331-1.449,2.335,2.335,0,0,0-.894-.927A2.392,2.392,0,0,0,177-8.415a2.348,2.348,0,0,0-1.2.315,2.369,2.369,0,0,0-.886.92,2.879,2.879,0,0,0-.34,1.433,2.974,2.974,0,0,0,.34,1.449,2.445,2.445,0,0,0,.894.952,2.272,2.272,0,0,0,1.184.331,2.392,2.392,0,0,0,1.209-.323,2.335,2.335,0,0,0,.894-.927,2.973,2.973,0,0,0,.335-1.45Zm13.133-.2a5.476,5.476,0,0,1-.066.894H185.79a2.281,2.281,0,0,0,.7,1.557,2.145,2.145,0,0,0,1.507.563,1.894,1.894,0,0,0,1.84-1.11h2.5A4.179,4.179,0,0,1,190.81-1.83a4.449,4.449,0,0,1-2.766.853,4.785,4.785,0,0,1-2.377-.588,4.14,4.14,0,0,1-1.64-1.664,5.1,5.1,0,0,1-.588-2.484,5.2,5.2,0,0,1,.58-2.5,4.048,4.048,0,0,1,1.623-1.656,4.862,4.862,0,0,1,2.4-.58,4.824,4.824,0,0,1,2.343.563,3.963,3.963,0,0,1,1.607,1.6A4.837,4.837,0,0,1,192.564-5.912Zm-2.4-.662a1.84,1.84,0,0,0-.644-1.433,2.288,2.288,0,0,0-1.54-.538,2.1,2.1,0,0,0-1.449.522,2.294,2.294,0,0,0-.72,1.449Zm3.5.861a5.146,5.146,0,0,1,.58-2.493,4.14,4.14,0,0,1,1.608-1.663,4.648,4.648,0,0,1,2.352-.588,4.521,4.521,0,0,1,2.824.853,4.149,4.149,0,0,1,1.5,2.392h-2.5a1.829,1.829,0,0,0-.671-.936,1.947,1.947,0,0,0-1.168-.34,1.912,1.912,0,0,0-1.573.72,3.189,3.189,0,0,0-.58,2.045,3.16,3.16,0,0,0,.58,2.024,1.912,1.912,0,0,0,1.573.72,1.758,1.758,0,0,0,1.84-1.259h2.5a4.232,4.232,0,0,1-1.507,2.368,4.441,4.441,0,0,1-2.815.878,4.648,4.648,0,0,1-2.354-.578,4.14,4.14,0,0,1-1.606-1.656,5.146,5.146,0,0,1-.583-2.493Zm12.881-7.668V-1.127h-2.32V-13.383Zm1.689,7.637a5.31,5.31,0,0,1,.552-2.468,4.067,4.067,0,0,1,1.511-1.656,4.013,4.013,0,0,1,2.128-.58,3.738,3.738,0,0,1,1.8.414,3.646,3.646,0,0,1,1.234,1.043V-10.3h2.335v9.175h-2.335V-2.469A3.449,3.449,0,0,1,214.218-1.4a3.772,3.772,0,0,1-1.81.425,3.9,3.9,0,0,1-2.116-.6,4.173,4.173,0,0,1-1.507-1.681,5.4,5.4,0,0,1-.554-2.493Zm7.221.033a2.974,2.974,0,0,0-.331-1.449,2.335,2.335,0,0,0-.894-.927,2.392,2.392,0,0,0-1.209-.323,2.348,2.348,0,0,0-1.2.315,2.369,2.369,0,0,0-.886.92,2.879,2.879,0,0,0-.34,1.433,2.974,2.974,0,0,0,.339,1.449,2.445,2.445,0,0,0,.894.952,2.272,2.272,0,0,0,1.184.331,2.392,2.392,0,0,0,1.209-.323,2.335,2.335,0,0,0,.894-.927,2.974,2.974,0,0,0,.337-1.454Zm6.923-3.163a3.26,3.26,0,0,1,1.169-1.146,3.247,3.247,0,0,1,1.648-.414V-8h-.613a2.349,2.349,0,0,0-1.648.513,2.367,2.367,0,0,0-.552,1.789v4.571h-2.319V-10.3h2.319Zm12.9,2.963a5.476,5.476,0,0,1-.066.894H228.5a2.281,2.281,0,0,0,.7,1.557,2.145,2.145,0,0,0,1.507.563,1.894,1.894,0,0,0,1.84-1.11h2.5a4.179,4.179,0,0,1-1.524,2.178,4.449,4.449,0,0,1-2.766.853,4.785,4.785,0,0,1-2.377-.588,4.14,4.14,0,0,1-1.64-1.664,5.1,5.1,0,0,1-.588-2.484,5.2,5.2,0,0,1,.58-2.5,4.048,4.048,0,0,1,1.623-1.656,4.862,4.862,0,0,1,2.4-.58,4.824,4.824,0,0,1,2.343.563,3.963,3.963,0,0,1,1.607,1.6A4.837,4.837,0,0,1,235.277-5.912Zm-2.4-.662a1.84,1.84,0,0,0-.644-1.433,2.288,2.288,0,0,0-1.54-.538,2.1,2.1,0,0,0-1.449.522,2.294,2.294,0,0,0-.72,1.449ZM3.512,10.539V22.8H1.193V10.539Zm6.36,12.4a4.832,4.832,0,0,1-2.385-.588,4.232,4.232,0,0,1-1.664-1.664,4.988,4.988,0,0,1-.6-2.484,4.881,4.881,0,0,1,.621-2.484,4.316,4.316,0,0,1,1.7-1.669,4.927,4.927,0,0,1,2.4-.588,4.927,4.927,0,0,1,2.4.588,4.316,4.316,0,0,1,1.7,1.669,4.881,4.881,0,0,1,.621,2.484,4.785,4.785,0,0,1-.638,2.484A4.416,4.416,0,0,1,12.3,22.356a5.009,5.009,0,0,1-2.425.588Zm0-2.024a2.412,2.412,0,0,0,1.184-.306,2.227,2.227,0,0,0,.886-.92,3.1,3.1,0,0,0,.331-1.491,2.76,2.76,0,0,0-.687-2.012,2.26,2.26,0,0,0-1.681-.7,2.208,2.208,0,0,0-1.664.7A2.8,2.8,0,0,0,7.569,18.2a2.852,2.852,0,0,0,.654,2.016,2.154,2.154,0,0,0,1.648.7Zm10.086-7.453a3.851,3.851,0,0,1,1.805.406,3.323,3.323,0,0,1,1.226,1.055V13.62h2.335v9.241a4.923,4.923,0,0,1-.513,2.277,3.812,3.812,0,0,1-1.54,1.59,4.923,4.923,0,0,1-2.484.588,5.307,5.307,0,0,1-3.2-.911,3.377,3.377,0,0,1-1.416-2.484h2.3a1.714,1.714,0,0,0,.787,1,2.741,2.741,0,0,0,1.466.373,2.268,2.268,0,0,0,1.64-.6,2.428,2.428,0,0,0,.629-1.83V21.437a3.522,3.522,0,0,1-1.234,1.077,3.68,3.68,0,0,1-1.8.431,3.941,3.941,0,0,1-2.116-.6,4.151,4.151,0,0,1-1.515-1.681,5.4,5.4,0,0,1-.552-2.493,5.311,5.311,0,0,1,.552-2.468,4.067,4.067,0,0,1,1.507-1.656,4.013,4.013,0,0,1,2.126-.58ZM22.988,18.2a2.974,2.974,0,0,0-.331-1.449,2.335,2.335,0,0,0-.894-.927,2.392,2.392,0,0,0-1.209-.323,2.329,2.329,0,0,0-2.078,1.234,2.879,2.879,0,0,0-.34,1.433,2.975,2.975,0,0,0,.34,1.449,2.445,2.445,0,0,0,.9.956,2.272,2.272,0,0,0,1.184.331,2.392,2.392,0,0,0,1.208-.32,2.335,2.335,0,0,0,.894-.927,2.974,2.974,0,0,0,.329-1.452Zm5.78-5.681a1.412,1.412,0,0,1-1.019-.389,1.36,1.36,0,0,1,0-1.938,1.527,1.527,0,0,1,2.037,0,1.36,1.36,0,0,1,0,1.938,1.412,1.412,0,0,1-1.019.393Zm1.143,1.093V22.8H27.592V13.62ZM31.6,18.2a5.146,5.146,0,0,1,.58-2.493,4.14,4.14,0,0,1,1.606-1.656,4.648,4.648,0,0,1,2.352-.588,4.521,4.521,0,0,1,2.824.853,4.149,4.149,0,0,1,1.5,2.392h-2.5a1.829,1.829,0,0,0-.671-.936,1.947,1.947,0,0,0-1.168-.34,1.912,1.912,0,0,0-1.573.72,3.189,3.189,0,0,0-.58,2.045,3.16,3.16,0,0,0,.58,2.024,1.912,1.912,0,0,0,1.572.728,1.758,1.758,0,0,0,1.84-1.259h2.5a4.232,4.232,0,0,1-1.507,2.368,4.441,4.441,0,0,1-2.815.878,4.648,4.648,0,0,1-2.352-.588A4.14,4.14,0,0,1,32.18,20.7a5.146,5.146,0,0,1-.58-2.491Zm13.912-.033a5.311,5.311,0,0,1,.552-2.468,4.067,4.067,0,0,1,1.507-1.656,4.013,4.013,0,0,1,2.128-.58,3.738,3.738,0,0,1,1.8.414,3.646,3.646,0,0,1,1.234,1.043v-1.3h2.342V22.8H52.733V21.454A3.449,3.449,0,0,1,51.5,22.519a3.772,3.772,0,0,1-1.814.422,3.9,3.9,0,0,1-2.116-.6,4.173,4.173,0,0,1-1.507-1.681,5.4,5.4,0,0,1-.55-2.49Zm7.221.033a2.974,2.974,0,0,0-.331-1.449,2.335,2.335,0,0,0-.894-.927A2.392,2.392,0,0,0,50.3,15.5a2.329,2.329,0,0,0-2.078,1.234,2.879,2.879,0,0,0-.34,1.433,2.975,2.975,0,0,0,.34,1.449,2.445,2.445,0,0,0,.894.952A2.272,2.272,0,0,0,50.3,20.9a2.392,2.392,0,0,0,1.209-.323,2.335,2.335,0,0,0,.894-.927,2.974,2.974,0,0,0,.331-1.445Zm9.689-4.72a3.537,3.537,0,0,1,2.65,1.035,3.963,3.963,0,0,1,1.012,2.89V22.8H63.765V17.727a2.379,2.379,0,0,0-.547-1.681,1.932,1.932,0,0,0-1.491-.588,1.984,1.984,0,0,0-1.515.588,2.356,2.356,0,0,0-.552,1.681V22.8H57.342V13.62h2.319v1.143a3.2,3.2,0,0,1,1.184-.936,3.663,3.663,0,0,1,1.577-.34Zm5.267,4.687A5.311,5.311,0,0,1,68.24,15.7a4,4,0,0,1,3.652-2.236,3.9,3.9,0,0,1,1.706.389,3.411,3.411,0,0,1,1.288,1.035V10.539h2.36V22.8H74.893V21.437a3.142,3.142,0,0,1-1.209,1.093,3.787,3.787,0,0,1-1.805.414,3.941,3.941,0,0,1-2.116-.6,4.151,4.151,0,0,1-1.515-1.681,5.4,5.4,0,0,1-.559-2.493Zm7.221.033a2.974,2.974,0,0,0-.331-1.445,2.335,2.335,0,0,0-.894-.927,2.392,2.392,0,0,0-1.209-.323A2.329,2.329,0,0,0,70.4,16.742a2.879,2.879,0,0,0-.34,1.433,2.974,2.974,0,0,0,.34,1.449,2.445,2.445,0,0,0,.894.952,2.272,2.272,0,0,0,1.184.331,2.392,2.392,0,0,0,1.209-.323,2.335,2.335,0,0,0,.894-.927,2.974,2.974,0,0,0,.331-1.449Zm11.245-2.677v4.439a.877.877,0,0,0,.224.671,1.1,1.1,0,0,0,.754.207h1.077V22.8H86.751q-2.931,0-2.931-2.852V15.526H82.726v-1.9H83.82V11.351h2.335V13.62h2.054v1.906ZM98.41,18.011a5.474,5.474,0,0,1-.066.894H91.637a2.281,2.281,0,0,0,.7,1.557,2.145,2.145,0,0,0,1.507.563,1.894,1.894,0,0,0,1.84-1.11h2.5a4.179,4.179,0,0,1-1.524,2.178,4.449,4.449,0,0,1-2.766.853,4.784,4.784,0,0,1-2.377-.588,4.14,4.14,0,0,1-1.64-1.664,5.1,5.1,0,0,1-.588-2.484,5.2,5.2,0,0,1,.58-2.5,4.048,4.048,0,0,1,1.623-1.656,5.211,5.211,0,0,1,4.745-.017,3.963,3.963,0,0,1,1.606,1.6,4.836,4.836,0,0,1,.568,2.377Zm-2.4-.662a1.84,1.84,0,0,0-.644-1.433,2.288,2.288,0,0,0-1.54-.538,2.1,2.1,0,0,0-1.449.522,2.294,2.294,0,0,0-.72,1.449Zm15.485-3.859a3.68,3.68,0,0,1,2.724,1.035,3.907,3.907,0,0,1,1.035,2.89V22.8h-2.319V17.727a2.292,2.292,0,0,0-.547-1.648,1.965,1.965,0,0,0-1.491-.571,1.993,1.993,0,0,0-1.5.571,2.271,2.271,0,0,0-.552,1.648V22.8h-2.319V17.727a2.292,2.292,0,0,0-.547-1.648,1.965,1.965,0,0,0-1.491-.571,2.014,2.014,0,0,0-1.515.571,2.271,2.271,0,0,0-.552,1.648V22.8h-2.319V13.62h2.319v1.11a3.086,3.086,0,0,1,1.151-.911,3.588,3.588,0,0,1,1.549-.331,3.983,3.983,0,0,1,1.921.46,3.192,3.192,0,0,1,1.308,1.3,3.321,3.321,0,0,1,1.3-1.275,3.7,3.7,0,0,1,1.841-.485Zm8.281,1.457a3.521,3.521,0,0,1,1.234-1.052,3.739,3.739,0,0,1,1.8-.422,4.013,4.013,0,0,1,2.128.58,4.078,4.078,0,0,1,1.507,1.648,5.3,5.3,0,0,1,.552,2.476,5.4,5.4,0,0,1-.552,2.493,4.173,4.173,0,0,1-1.507,1.681,3.929,3.929,0,0,1-2.128.6,3.7,3.7,0,0,1-1.78-.414,3.819,3.819,0,0,1-1.25-1.043v5.681h-2.321V13.62h2.319Zm4.853,3.23a2.88,2.88,0,0,0-.34-1.433,2.351,2.351,0,0,0-.894-.92,2.392,2.392,0,0,0-1.2-.315,2.316,2.316,0,0,0-1.184.323,2.4,2.4,0,0,0-.894.936,3.227,3.227,0,0,0,0,2.882,2.4,2.4,0,0,0,.894.936,2.337,2.337,0,0,0,2.385-.008,2.459,2.459,0,0,0,.894-.944,2.963,2.963,0,0,0,.343-1.458ZM131,10.539V22.8h-2.319V10.539Zm1.689,7.637a5.31,5.31,0,0,1,.552-2.468,4.067,4.067,0,0,1,1.507-1.656,4.013,4.013,0,0,1,2.128-.58,3.738,3.738,0,0,1,1.8.414,3.646,3.646,0,0,1,1.234,1.043V13.62h2.335V22.8h-2.332V21.454a3.449,3.449,0,0,1-1.234,1.068,3.772,3.772,0,0,1-1.813.422,3.9,3.9,0,0,1-2.112-.6,4.173,4.173,0,0,1-1.507-1.681,5.4,5.4,0,0,1-.555-2.493Zm7.221.033a2.974,2.974,0,0,0-.331-1.449,2.335,2.335,0,0,0-.894-.927,2.392,2.392,0,0,0-1.209-.323,2.329,2.329,0,0,0-2.079,1.234,2.879,2.879,0,0,0-.34,1.433,2.974,2.974,0,0,0,.34,1.449,2.445,2.445,0,0,0,.894.952,2.272,2.272,0,0,0,1.184.331,2.392,2.392,0,0,0,1.209-.323,2.335,2.335,0,0,0,.894-.927,2.974,2.974,0,0,0,.331-1.451Zm7.3-2.683v4.439a.877.877,0,0,0,.224.671,1.1,1.1,0,0,0,.754.207h1.076V22.8h-1.454q-2.931,0-2.931-2.852V15.526h-1.093v-1.9h1.093V11.351h2.335V13.62h2.054v1.906Zm12.256,2.484a5.472,5.472,0,0,1-.066.894H152.7a2.281,2.281,0,0,0,.7,1.557,2.145,2.145,0,0,0,1.507.563,1.894,1.894,0,0,0,1.84-1.11h2.5a4.179,4.179,0,0,1-1.524,2.178,4.449,4.449,0,0,1-2.766.853,4.785,4.785,0,0,1-2.377-.588,4.14,4.14,0,0,1-1.64-1.664,5.1,5.1,0,0,1-.588-2.484,5.2,5.2,0,0,1,.58-2.5,4.048,4.048,0,0,1,1.623-1.656,5.211,5.211,0,0,1,4.745-.017,3.963,3.963,0,0,1,1.607,1.6,4.837,4.837,0,0,1,.57,2.377Zm-2.4-.662a1.84,1.84,0,0,0-.644-1.433,2.288,2.288,0,0,0-1.54-.538,2.1,2.1,0,0,0-1.449.522,2.294,2.294,0,0,0-.72,1.449Z" transform="translate(125.117 508.011)"/><text transform="translate(77.322 527.281)" fill="#2befb3" font-size="46" font-family="Poppins-SemiBold, Poppins" font-weight="600"><tspan x="0" y="0">2</tspan></text></g></svg>