<svg xmlns="http://www.w3.org/2000/svg" width="380" height="107.651" viewBox="0 0 380 107.651"><g transform="translate(-58 -471)"><rect width="380" height="107.651" rx="10" transform="translate(58 471)" fill="#fff"/><path d="M8.267-3.33h-4.6L2.9-1.127H.467L4.624-12.7h2.7L11.48-1.127H9.029ZM7.638-5.185,5.965-10.021,4.292-5.185Zm4.8-.563a5.311,5.311,0,0,1,.552-2.468,4.048,4.048,0,0,1,1.515-1.656,4.055,4.055,0,0,1,2.136-.58,3.9,3.9,0,0,1,1.706.389,3.411,3.411,0,0,1,1.288,1.035v-4.356H21.99V-1.127H19.645V-2.486a3.142,3.142,0,0,1-1.207,1.093,3.787,3.787,0,0,1-1.805.414,3.941,3.941,0,0,1-2.116-.6A4.151,4.151,0,0,1,13-3.256a5.4,5.4,0,0,1-.56-2.493Zm7.221.033a2.974,2.974,0,0,0-.331-1.449,2.335,2.335,0,0,0-.892-.927,2.392,2.392,0,0,0-1.209-.323,2.348,2.348,0,0,0-1.2.315,2.369,2.369,0,0,0-.886.92,2.879,2.879,0,0,0-.34,1.433,2.975,2.975,0,0,0,.34,1.449,2.445,2.445,0,0,0,.9.951,2.272,2.272,0,0,0,1.184.331,2.392,2.392,0,0,0,1.208-.32,2.335,2.335,0,0,0,.894-.927,2.974,2.974,0,0,0,.329-1.452Zm4.008-.033a5.311,5.311,0,0,1,.552-2.468,4.048,4.048,0,0,1,1.515-1.656,4.055,4.055,0,0,1,2.136-.58,3.9,3.9,0,0,1,1.706.389,3.411,3.411,0,0,1,1.288,1.035v-4.356h2.352V-1.127H30.874V-2.486a3.142,3.142,0,0,1-1.211,1.093,3.787,3.787,0,0,1-1.805.414,3.941,3.941,0,0,1-2.116-.6,4.151,4.151,0,0,1-1.515-1.681,5.4,5.4,0,0,1-.557-2.493Zm7.221.033a2.974,2.974,0,0,0-.331-1.449,2.335,2.335,0,0,0-.9-.927,2.392,2.392,0,0,0-1.209-.323,2.348,2.348,0,0,0-1.2.315,2.369,2.369,0,0,0-.886.92,2.879,2.879,0,0,0-.34,1.433,2.975,2.975,0,0,0,.34,1.449,2.445,2.445,0,0,0,.9.951,2.272,2.272,0,0,0,1.184.331,2.392,2.392,0,0,0,1.208-.32,2.335,2.335,0,0,0,.894-.927,2.974,2.974,0,0,0,.333-1.452ZM41.755-8.978a3.521,3.521,0,0,1,1.234-1.052,3.739,3.739,0,0,1,1.8-.422,4.013,4.013,0,0,1,2.128.58,4.078,4.078,0,0,1,1.507,1.648,5.3,5.3,0,0,1,.552,2.476,5.4,5.4,0,0,1-.552,2.493,4.173,4.173,0,0,1-1.507,1.681,3.928,3.928,0,0,1-2.128.6A3.7,3.7,0,0,1,43-1.392a3.819,3.819,0,0,1-1.25-1.043V3.245H39.435V-10.3h2.319Zm4.853,3.23a2.879,2.879,0,0,0-.34-1.433,2.351,2.351,0,0,0-.894-.92,2.392,2.392,0,0,0-1.2-.314,2.316,2.316,0,0,0-1.184.323,2.4,2.4,0,0,0-.894.936,2.927,2.927,0,0,0-.34,1.441,2.927,2.927,0,0,0,.34,1.441,2.4,2.4,0,0,0,.894.938,2.316,2.316,0,0,0,1.184.323,2.3,2.3,0,0,0,1.2-.331,2.458,2.458,0,0,0,.894-.944,2.963,2.963,0,0,0,.34-1.46Zm6.376-3.128a3.26,3.26,0,0,1,1.168-1.143,3.247,3.247,0,0,1,1.648-.414V-8h-.613a2.349,2.349,0,0,0-1.648.513A2.366,2.366,0,0,0,52.987-5.7v4.571H50.668V-10.3h2.319Zm8.446,7.9a4.832,4.832,0,0,1-2.385-.588,4.232,4.232,0,0,1-1.664-1.664,4.988,4.988,0,0,1-.6-2.484A4.881,4.881,0,0,1,57.4-8.2a4.316,4.316,0,0,1,1.7-1.669,4.927,4.927,0,0,1,2.4-.588,4.927,4.927,0,0,1,2.4.588A4.316,4.316,0,0,1,65.6-8.2a4.882,4.882,0,0,1,.621,2.484,4.784,4.784,0,0,1-.638,2.484,4.416,4.416,0,0,1-1.722,1.669,5.009,5.009,0,0,1-2.426.588ZM61.43-3a2.412,2.412,0,0,0,1.184-.306,2.227,2.227,0,0,0,.886-.92,3.1,3.1,0,0,0,.331-1.491,2.76,2.76,0,0,0-.687-2.012,2.26,2.26,0,0,0-1.681-.7,2.208,2.208,0,0,0-1.664.7,2.8,2.8,0,0,0-.671,2.012A2.852,2.852,0,0,0,59.782-3.7,2.154,2.154,0,0,0,61.43-3Zm8.811-5.981a3.521,3.521,0,0,1,1.234-1.052,3.739,3.739,0,0,1,1.8-.422,4.013,4.013,0,0,1,2.128.58A4.079,4.079,0,0,1,76.907-8.23a5.3,5.3,0,0,1,.552,2.476,5.4,5.4,0,0,1-.552,2.493A4.173,4.173,0,0,1,75.4-1.575a3.929,3.929,0,0,1-2.125.6,3.7,3.7,0,0,1-1.78-.414,3.819,3.819,0,0,1-1.256-1.043V3.245H67.921V-10.3h2.319Zm4.853,3.23a2.879,2.879,0,0,0-.34-1.433,2.351,2.351,0,0,0-.894-.92,2.392,2.392,0,0,0-1.2-.308,2.316,2.316,0,0,0-1.184.323,2.4,2.4,0,0,0-.894.936,2.927,2.927,0,0,0-.341,1.441,2.927,2.927,0,0,0,.34,1.441,2.4,2.4,0,0,0,.9.938,2.316,2.316,0,0,0,1.184.323,2.3,2.3,0,0,0,1.2-.331,2.458,2.458,0,0,0,.894-.944,2.963,2.963,0,0,0,.34-1.46Zm12.587-.166a5.472,5.472,0,0,1-.066.894H80.907a2.281,2.281,0,0,0,.7,1.557,2.145,2.145,0,0,0,1.507.563,1.894,1.894,0,0,0,1.84-1.11h2.5a4.179,4.179,0,0,1-1.52,2.183,4.449,4.449,0,0,1-2.766.853,4.785,4.785,0,0,1-2.377-.588,4.14,4.14,0,0,1-1.64-1.664,5.1,5.1,0,0,1-.588-2.484,5.2,5.2,0,0,1,.58-2.5,4.048,4.048,0,0,1,1.623-1.656,4.863,4.863,0,0,1,2.4-.58,4.824,4.824,0,0,1,2.343.563,3.963,3.963,0,0,1,1.606,1.6,4.836,4.836,0,0,1,.571,2.378Zm-2.4-.662a1.84,1.84,0,0,0-.644-1.433,2.288,2.288,0,0,0-1.54-.538,2.1,2.1,0,0,0-1.449.522,2.294,2.294,0,0,0-.72,1.449Zm6.409-2.3a3.26,3.26,0,0,1,1.168-1.143,3.247,3.247,0,0,1,1.648-.414V-8h-.613a2.349,2.349,0,0,0-1.648.513A2.366,2.366,0,0,0,91.691-5.7v4.571H89.373V-10.3h2.319Zm7.074.486v4.439a.877.877,0,0,0,.224.671,1.1,1.1,0,0,0,.754.207h1.077v1.952H99.359q-2.931,0-2.931-2.852V-8.4H95.334v-1.9h1.093V-12.57h2.335V-10.3h2.054v1.9Zm4.9-3a1.412,1.412,0,0,1-1.019-.389,1.288,1.288,0,0,1-.406-.969,1.288,1.288,0,0,1,.406-.969,1.412,1.412,0,0,1,1.019-.389,1.412,1.412,0,0,1,1.019.389,1.288,1.288,0,0,1,.406.969,1.288,1.288,0,0,1-.406.969,1.412,1.412,0,0,1-1.02.387Zm1.143,1.093v9.173h-2.319V-10.3ZM115.62-5.912a5.473,5.473,0,0,1-.066.894h-6.707a2.281,2.281,0,0,0,.7,1.557,2.145,2.145,0,0,0,1.507.563,1.894,1.894,0,0,0,1.84-1.11h2.5a4.179,4.179,0,0,1-1.524,2.178,4.449,4.449,0,0,1-2.766.853,4.784,4.784,0,0,1-2.377-.588,4.14,4.14,0,0,1-1.64-1.664,5.1,5.1,0,0,1-.588-2.484,5.2,5.2,0,0,1,.58-2.5A4.048,4.048,0,0,1,108.7-9.868a4.863,4.863,0,0,1,2.4-.58,4.824,4.824,0,0,1,2.343.563,3.963,3.963,0,0,1,1.6,1.595A4.836,4.836,0,0,1,115.62-5.912Zm-2.4-.662a1.84,1.84,0,0,0-.644-1.433,2.288,2.288,0,0,0-1.54-.538,2.1,2.1,0,0,0-1.449.522,2.294,2.294,0,0,0-.72,1.449Zm7.6,5.6a4.838,4.838,0,0,1-2.024-.406,3.57,3.57,0,0,1-1.416-1.1,2.791,2.791,0,0,1-.571-1.54h2.335a1.272,1.272,0,0,0,.522.878A1.814,1.814,0,0,0,120.8-2.8a1.762,1.762,0,0,0,1.035-.265.8.8,0,0,0,.373-.679.716.716,0,0,0-.46-.671,8.57,8.57,0,0,0-1.449-.489,12.28,12.28,0,0,1-1.681-.513,2.918,2.918,0,0,1-1.126-.812A2.178,2.178,0,0,1,117.02-7.7a2.378,2.378,0,0,1,.439-1.391,2.944,2.944,0,0,1,1.27-.993,4.718,4.718,0,0,1,1.932-.368,3.94,3.94,0,0,1,2.617.82,3.036,3.036,0,0,1,1.077,2.208h-2.221a1.2,1.2,0,0,0-.455-.869,1.693,1.693,0,0,0-1.085-.323,1.71,1.71,0,0,0-.969.232.736.736,0,0,0-.34.644.759.759,0,0,0,.46.7,7.2,7.2,0,0,0,1.441.489,12.231,12.231,0,0,1,1.64.513,2.9,2.9,0,0,1,1.118.82,2.252,2.252,0,0,1,.489,1.466,2.431,2.431,0,0,1-.439,1.424,2.891,2.891,0,0,1-1.259.985,4.769,4.769,0,0,1-1.913.364ZM134.484-8.4h-1.606v7.269h-2.352V-8.4h-1.043v-1.9h1.043v-.46a3.042,3.042,0,0,1,.961-2.484,4.291,4.291,0,0,1,2.9-.745v1.954a1.721,1.721,0,0,0-1.176.282,1.41,1.41,0,0,0-.331,1.077v.381h1.606Zm5.581,7.418a4.832,4.832,0,0,1-2.383-.588,4.232,4.232,0,0,1-1.664-1.664,4.987,4.987,0,0,1-.6-2.484,4.882,4.882,0,0,1,.621-2.484,4.316,4.316,0,0,1,1.7-1.669,4.927,4.927,0,0,1,2.4-.588,4.927,4.927,0,0,1,2.4.588,4.316,4.316,0,0,1,1.7,1.664,4.882,4.882,0,0,1,.621,2.484,4.785,4.785,0,0,1-.638,2.484,4.417,4.417,0,0,1-1.722,1.664,5.009,5.009,0,0,1-2.426.593Zm0-2.024a2.412,2.412,0,0,0,1.184-.306,2.227,2.227,0,0,0,.886-.92,3.1,3.1,0,0,0,.331-1.491,2.76,2.76,0,0,0-.687-2.012,2.26,2.26,0,0,0-1.681-.7,2.208,2.208,0,0,0-1.664.7,2.8,2.8,0,0,0-.671,2.012,2.852,2.852,0,0,0,.655,2.016,2.154,2.154,0,0,0,1.647.7Zm8.811-5.879a3.26,3.26,0,0,1,1.168-1.143,3.247,3.247,0,0,1,1.648-.414V-8h-.613a2.349,2.349,0,0,0-1.648.513,2.366,2.366,0,0,0-.552,1.789v4.571H146.56V-10.3h2.319ZM160.7-.978a4.838,4.838,0,0,1-2.024-.406,3.57,3.57,0,0,1-1.416-1.1,2.791,2.791,0,0,1-.571-1.54h2.339a1.272,1.272,0,0,0,.522.878,1.814,1.814,0,0,0,1.135.348,1.762,1.762,0,0,0,1.035-.265.8.8,0,0,0,.373-.679.716.716,0,0,0-.46-.671,8.57,8.57,0,0,0-1.445-.482,12.279,12.279,0,0,1-1.681-.513,2.918,2.918,0,0,1-1.126-.812,2.178,2.178,0,0,1-.472-1.472,2.379,2.379,0,0,1,.439-1.391,2.944,2.944,0,0,1,1.259-.994,4.718,4.718,0,0,1,1.932-.368,3.94,3.94,0,0,1,2.617.82,3.036,3.036,0,0,1,1.077,2.208H162.01a1.2,1.2,0,0,0-.455-.869,1.693,1.693,0,0,0-1.085-.323,1.71,1.71,0,0,0-.969.232.736.736,0,0,0-.34.644.759.759,0,0,0,.46.7,7.2,7.2,0,0,0,1.441.489,12.23,12.23,0,0,1,1.64.513,2.9,2.9,0,0,1,1.118.82,2.252,2.252,0,0,1,.489,1.466,2.431,2.431,0,0,1-.439,1.424,2.891,2.891,0,0,1-1.252.988,4.769,4.769,0,0,1-1.916.356Zm9.589,0a4.832,4.832,0,0,1-2.385-.588,4.233,4.233,0,0,1-1.664-1.664,4.987,4.987,0,0,1-.6-2.484,4.882,4.882,0,0,1,.621-2.484,4.316,4.316,0,0,1,1.7-1.669,4.927,4.927,0,0,1,2.4-.588,4.927,4.927,0,0,1,2.4.588,4.316,4.316,0,0,1,1.7,1.664,4.882,4.882,0,0,1,.621,2.484,4.784,4.784,0,0,1-.638,2.484,4.416,4.416,0,0,1-1.722,1.664,5.009,5.009,0,0,1-2.424.593Zm0-2.024a2.412,2.412,0,0,0,1.184-.306,2.227,2.227,0,0,0,.886-.92,3.1,3.1,0,0,0,.331-1.491A2.76,2.76,0,0,0,172-7.732a2.26,2.26,0,0,0-1.681-.7,2.208,2.208,0,0,0-1.664.7,2.8,2.8,0,0,0-.671,2.012,2.852,2.852,0,0,0,.654,2.012A2.154,2.154,0,0,0,170.291-3Zm17.887-7.436A3.68,3.68,0,0,1,190.9-9.4a3.907,3.907,0,0,1,1.035,2.89v5.386h-2.319V-6.2a2.292,2.292,0,0,0-.547-1.648,1.965,1.965,0,0,0-1.491-.571,1.993,1.993,0,0,0-1.5.57,2.271,2.271,0,0,0-.552,1.648v5.069h-2.319V-6.2a2.292,2.292,0,0,0-.547-1.648,1.965,1.965,0,0,0-1.491-.571,2.014,2.014,0,0,0-1.515.571A2.271,2.271,0,0,0,179.1-6.2v5.068h-2.318V-10.3h2.319v1.11a3.086,3.086,0,0,1,1.151-.911,3.588,3.588,0,0,1,1.549-.331,3.983,3.983,0,0,1,1.921.46,3.192,3.192,0,0,1,1.308,1.3,3.321,3.321,0,0,1,1.3-1.275,3.7,3.7,0,0,1,1.843-.485Zm14.492,4.527a5.472,5.472,0,0,1-.066.894H195.9a2.281,2.281,0,0,0,.7,1.557A2.145,2.145,0,0,0,198.1-2.9a1.894,1.894,0,0,0,1.84-1.11h2.5a4.179,4.179,0,0,1-1.524,2.178,4.449,4.449,0,0,1-2.766.853,4.785,4.785,0,0,1-2.377-.588,4.14,4.14,0,0,1-1.64-1.664,5.1,5.1,0,0,1-.588-2.484,5.2,5.2,0,0,1,.58-2.5,4.048,4.048,0,0,1,1.623-1.656,4.862,4.862,0,0,1,2.4-.58,4.824,4.824,0,0,1,2.343.563,3.963,3.963,0,0,1,1.606,1.6A4.837,4.837,0,0,1,202.669-5.912Zm-2.4-.662a1.84,1.84,0,0,0-.644-1.433,2.288,2.288,0,0,0-1.54-.538,2.1,2.1,0,0,0-1.449.522,2.294,2.294,0,0,0-.72,1.449Zm10.351-2.3a3.26,3.26,0,0,1,1.168-1.143,3.247,3.247,0,0,1,1.648-.414V-8h-.613a2.349,2.349,0,0,0-1.648.513,2.367,2.367,0,0,0-.552,1.789v4.571H208.3V-10.3h2.319Zm12.9,2.963a5.472,5.472,0,0,1-.066.894h-6.708a2.281,2.281,0,0,0,.7,1.557,2.145,2.145,0,0,0,1.507.563,1.894,1.894,0,0,0,1.84-1.11h2.5a4.179,4.179,0,0,1-1.524,2.178A4.449,4.449,0,0,1,219-.977a4.785,4.785,0,0,1-2.377-.588,4.14,4.14,0,0,1-1.64-1.664,5.1,5.1,0,0,1-.588-2.484,5.2,5.2,0,0,1,.574-2.5,4.048,4.048,0,0,1,1.623-1.656,4.862,4.862,0,0,1,2.4-.58,4.824,4.824,0,0,1,2.343.563,3.963,3.963,0,0,1,1.607,1.6A4.837,4.837,0,0,1,223.52-5.912Zm-2.4-.662a1.84,1.84,0,0,0-.644-1.433,2.288,2.288,0,0,0-1.54-.538,2.1,2.1,0,0,0-1.449.522,2.294,2.294,0,0,0-.72,1.449Zm3.5.828a5.31,5.31,0,0,1,.552-2.468,4.067,4.067,0,0,1,1.507-1.656,4.013,4.013,0,0,1,2.128-.58,3.738,3.738,0,0,1,1.8.414,3.646,3.646,0,0,1,1.234,1.043V-10.3h2.335v9.175h-2.335V-2.469A3.449,3.449,0,0,1,230.6-1.4a3.772,3.772,0,0,1-1.813.422,3.9,3.9,0,0,1-2.112-.6,4.173,4.173,0,0,1-1.507-1.681,5.4,5.4,0,0,1-.555-2.49Zm7.221.033a2.974,2.974,0,0,0-.331-1.449,2.335,2.335,0,0,0-.894-.927,2.392,2.392,0,0,0-1.209-.323,2.348,2.348,0,0,0-1.2.315,2.369,2.369,0,0,0-.886.92,2.879,2.879,0,0,0-.34,1.433,2.975,2.975,0,0,0,.34,1.449,2.445,2.445,0,0,0,.894.952,2.272,2.272,0,0,0,1.184.331,2.392,2.392,0,0,0,1.215-.323,2.335,2.335,0,0,0,.894-.927,2.974,2.974,0,0,0,.328-1.452Zm4.008,0a5.146,5.146,0,0,1,.58-2.493,4.141,4.141,0,0,1,1.606-1.656,4.648,4.648,0,0,1,2.352-.588,4.521,4.521,0,0,1,2.824.853A4.149,4.149,0,0,1,244.7-7.2h-2.5a1.829,1.829,0,0,0-.671-.936,1.947,1.947,0,0,0-1.168-.34,1.912,1.912,0,0,0-1.573.72,3.189,3.189,0,0,0-.58,2.045,3.159,3.159,0,0,0,.58,2.024,1.912,1.912,0,0,0,1.572.722,1.758,1.758,0,0,0,1.84-1.259h2.5A4.232,4.232,0,0,1,243.2-1.858a4.441,4.441,0,0,1-2.815.878,4.648,4.648,0,0,1-2.352-.588,4.14,4.14,0,0,1-1.607-1.656,5.146,5.146,0,0,1-.583-2.491ZM249.106-8.4v4.439a.877.877,0,0,0,.224.671,1.1,1.1,0,0,0,.754.207h1.077v1.952H249.7q-2.931,0-2.931-2.852V-8.4H245.68v-1.9h1.093V-12.57h2.333V-10.3h2.054v1.9Zm4.9-3a1.412,1.412,0,0,1-1.019-.389,1.288,1.288,0,0,1-.406-.969,1.288,1.288,0,0,1,.406-.969,1.412,1.412,0,0,1,1.019-.389,1.413,1.413,0,0,1,1.019.389,1.288,1.288,0,0,1,.406.969,1.288,1.288,0,0,1-.406.969,1.413,1.413,0,0,1-1.017.387Zm1.143,1.093v9.173h-2.319V-10.3Zm6.111,7.039,2.319-7.039h2.468l-3.393,9.173H259.84L256.461-10.3h2.484Zm7.269-8.132a1.412,1.412,0,0,1-1.019-.389,1.288,1.288,0,0,1-.406-.969,1.288,1.288,0,0,1,.406-.969,1.412,1.412,0,0,1,1.019-.389,1.413,1.413,0,0,1,1.018.389,1.288,1.288,0,0,1,.406.969,1.288,1.288,0,0,1-.406.969,1.413,1.413,0,0,1-1.015.387Zm1.143,1.093v9.173h-2.319V-10.3Zm4.985,1.9v4.439a.877.877,0,0,0,.224.671,1.1,1.1,0,0,0,.754.207h1.077v1.952h-1.457q-2.931,0-2.931-2.852V-8.4h-1.089v-1.9h1.093V-12.57h2.335V-10.3h2.054v1.9Zm12.5-1.9L281.486,3.212h-2.468l1.987-4.571-3.68-8.943h2.6L282.3-3.893l2.4-6.409ZM.582,18.174A5.311,5.311,0,0,1,1.14,15.71a4.067,4.067,0,0,1,1.507-1.656,4.013,4.013,0,0,1,2.128-.58,3.738,3.738,0,0,1,1.8.414A3.646,3.646,0,0,1,7.8,14.928V13.62h2.335V22.8H7.8V21.454a3.449,3.449,0,0,1-1.235,1.065,3.772,3.772,0,0,1-1.814.422,3.9,3.9,0,0,1-2.116-.6,4.173,4.173,0,0,1-1.5-1.678,5.4,5.4,0,0,1-.558-2.493Zm7.221.033a2.974,2.974,0,0,0-.331-1.449,2.335,2.335,0,0,0-.894-.927,2.392,2.392,0,0,0-1.205-.323,2.329,2.329,0,0,0-2.078,1.234,2.879,2.879,0,0,0-.34,1.433,2.975,2.975,0,0,0,.34,1.449,2.445,2.445,0,0,0,.894.952,2.272,2.272,0,0,0,1.184.331,2.392,2.392,0,0,0,1.205-.32,2.335,2.335,0,0,0,.894-.927A2.974,2.974,0,0,0,7.8,18.207Zm9.689-4.72a3.537,3.537,0,0,1,2.65,1.035,3.963,3.963,0,0,1,1.012,2.89V22.8h-2.32V17.727a2.379,2.379,0,0,0-.547-1.681,1.932,1.932,0,0,0-1.491-.588,1.984,1.984,0,0,0-1.515.588,2.356,2.356,0,0,0-.552,1.681V22.8H12.41V13.62h2.319v1.143a3.2,3.2,0,0,1,1.184-.936,3.663,3.663,0,0,1,1.579-.34Zm5.27,4.687a5.311,5.311,0,0,1,.552-2.468,4,4,0,0,1,3.652-2.236,3.9,3.9,0,0,1,1.706.389A3.411,3.411,0,0,1,29.96,14.9V10.539h2.352V22.8H29.963V21.437a3.142,3.142,0,0,1-1.209,1.093,3.787,3.787,0,0,1-1.805.414,3.941,3.941,0,0,1-2.116-.6,4.151,4.151,0,0,1-1.518-1.681A5.4,5.4,0,0,1,22.762,18.174Zm7.221.033a2.974,2.974,0,0,0-.331-1.449,2.335,2.335,0,0,0-.894-.927,2.392,2.392,0,0,0-1.211-.323,2.329,2.329,0,0,0-2.078,1.234,2.879,2.879,0,0,0-.34,1.433,2.975,2.975,0,0,0,.34,1.449,2.445,2.445,0,0,0,.894.952,2.272,2.272,0,0,0,1.184.331,2.392,2.392,0,0,0,1.209-.323,2.335,2.335,0,0,0,.894-.927,2.974,2.974,0,0,0,.329-1.449Zm7.95,0a5.146,5.146,0,0,1,.58-2.493,4.14,4.14,0,0,1,1.606-1.656,4.648,4.648,0,0,1,2.352-.588,4.521,4.521,0,0,1,2.824.853,4.149,4.149,0,0,1,1.5,2.392h-2.5a1.829,1.829,0,0,0-.671-.936,1.947,1.947,0,0,0-1.168-.34,1.912,1.912,0,0,0-1.573.72,3.189,3.189,0,0,0-.58,2.045,3.16,3.16,0,0,0,.58,2.024,1.912,1.912,0,0,0,1.572.724,1.758,1.758,0,0,0,1.84-1.259h2.5a4.232,4.232,0,0,1-1.507,2.368,4.441,4.441,0,0,1-2.815.878,4.648,4.648,0,0,1-2.352-.588A4.14,4.14,0,0,1,38.513,20.7a5.146,5.146,0,0,1-.583-2.491Zm14.641,4.737a4.832,4.832,0,0,1-2.385-.588,4.232,4.232,0,0,1-1.664-1.664,4.988,4.988,0,0,1-.6-2.484,4.881,4.881,0,0,1,.621-2.484,4.316,4.316,0,0,1,1.694-1.669,5.2,5.2,0,0,1,4.8,0,4.316,4.316,0,0,1,1.7,1.664,4.882,4.882,0,0,1,.621,2.484,4.784,4.784,0,0,1-.638,2.484A4.416,4.416,0,0,1,55,22.352a5.008,5.008,0,0,1-2.423.593Zm0-2.024a2.412,2.412,0,0,0,1.184-.306,2.227,2.227,0,0,0,.886-.92,3.1,3.1,0,0,0,.331-1.491,2.76,2.76,0,0,0-.687-2.012,2.26,2.26,0,0,0-1.681-.7,2.208,2.208,0,0,0-1.664.7,2.8,2.8,0,0,0-.671,2.012,2.852,2.852,0,0,0,.654,2.012,2.154,2.154,0,0,0,1.648.708ZM70.46,13.484a3.68,3.68,0,0,1,2.723,1.039,3.907,3.907,0,0,1,1.035,2.89V22.8H71.9V17.727a2.292,2.292,0,0,0-.547-1.648,1.965,1.965,0,0,0-1.491-.571,1.993,1.993,0,0,0-1.5.571,2.271,2.271,0,0,0-.552,1.648V22.8H65.489V17.727a2.292,2.292,0,0,0-.547-1.648,1.965,1.965,0,0,0-1.491-.571,2.014,2.014,0,0,0-1.515.571,2.271,2.271,0,0,0-.552,1.648V22.8H59.066V13.62h2.319v1.11a3.086,3.086,0,0,1,1.151-.911,3.588,3.588,0,0,1,1.549-.331,3.983,3.983,0,0,1,1.921.46,3.192,3.192,0,0,1,1.308,1.3,3.322,3.322,0,0,1,1.3-1.275,3.7,3.7,0,0,1,1.843-.485Zm17.357,0a3.68,3.68,0,0,1,2.724,1.035,3.907,3.907,0,0,1,1.035,2.89V22.8H89.258V17.727a2.292,2.292,0,0,0-.547-1.648,1.965,1.965,0,0,0-1.491-.571,1.993,1.993,0,0,0-1.5.571,2.271,2.271,0,0,0-.552,1.648V22.8H82.845V17.727a2.292,2.292,0,0,0-.547-1.648,1.965,1.965,0,0,0-1.491-.571,2.014,2.014,0,0,0-1.515.571,2.271,2.271,0,0,0-.552,1.648V22.8H76.421V13.62H78.74v1.11a3.086,3.086,0,0,1,1.151-.911,3.588,3.588,0,0,1,1.549-.331,3.983,3.983,0,0,1,1.921.46,3.192,3.192,0,0,1,1.308,1.3,3.322,3.322,0,0,1,1.3-1.275,3.7,3.7,0,0,1,1.844-.485Zm14.624.132V22.8h-2.335V21.636a3.061,3.061,0,0,1-1.168.936,3.624,3.624,0,0,1-1.564.34,3.887,3.887,0,0,1-1.9-.455,3.21,3.21,0,0,1-1.3-1.341A4.433,4.433,0,0,1,93.7,19V13.615h2.319v5.051a2.379,2.379,0,0,0,.547,1.681,1.932,1.932,0,0,0,1.491.588,1.956,1.956,0,0,0,1.507-.588,2.379,2.379,0,0,0,.547-1.681V13.615Zm7.37-.132a3.537,3.537,0,0,1,2.65,1.035,3.963,3.963,0,0,1,1.012,2.89V22.8h-2.319V17.727a2.379,2.379,0,0,0-.547-1.681,1.932,1.932,0,0,0-1.491-.588,1.984,1.984,0,0,0-1.515.588,2.356,2.356,0,0,0-.552,1.681V22.8h-2.319V13.62h2.319v1.143a3.2,3.2,0,0,1,1.184-.936,3.663,3.663,0,0,1,1.57-.34Zm7.039-.961a1.412,1.412,0,0,1-1.019-.389,1.36,1.36,0,0,1,0-1.938,1.527,1.527,0,0,1,2.037,0,1.36,1.36,0,0,1,0,1.938,1.413,1.413,0,0,1-1.022.393Zm1.143,1.093V22.8h-2.319V13.62Zm1.689,4.588a5.146,5.146,0,0,1,.58-2.493,4.14,4.14,0,0,1,1.607-1.656,4.648,4.648,0,0,1,2.352-.588,4.521,4.521,0,0,1,2.824.853,4.149,4.149,0,0,1,1.5,2.392h-2.5a1.829,1.829,0,0,0-.671-.936,1.947,1.947,0,0,0-1.168-.34,1.912,1.912,0,0,0-1.573.72,3.189,3.189,0,0,0-.58,2.045,3.16,3.16,0,0,0,.58,2.024,1.912,1.912,0,0,0,1.573.72,1.758,1.758,0,0,0,1.84-1.259h2.5a4.232,4.232,0,0,1-1.507,2.368,4.441,4.441,0,0,1-2.815.878,4.648,4.648,0,0,1-2.352-.588,4.14,4.14,0,0,1-1.607-1.656,5.146,5.146,0,0,1-.585-2.483Zm9.97-.033A5.31,5.31,0,0,1,130.2,15.7a4.067,4.067,0,0,1,1.507-1.656,4.013,4.013,0,0,1,2.128-.58,3.738,3.738,0,0,1,1.8.414,3.646,3.646,0,0,1,1.234,1.043v-1.3h2.335V22.8H136.87V21.454a3.449,3.449,0,0,1-1.234,1.068,3.772,3.772,0,0,1-1.814.422,3.9,3.9,0,0,1-2.112-.6,4.173,4.173,0,0,1-1.507-1.681,5.4,5.4,0,0,1-.556-2.493Zm7.221.033a2.974,2.974,0,0,0-.331-1.449,2.335,2.335,0,0,0-.894-.927,2.392,2.392,0,0,0-1.209-.323,2.329,2.329,0,0,0-2.079,1.234,2.879,2.879,0,0,0-.34,1.433,2.974,2.974,0,0,0,.34,1.449,2.445,2.445,0,0,0,.894.952,2.272,2.272,0,0,0,1.184.331,2.392,2.392,0,0,0,1.209-.323,2.335,2.335,0,0,0,.894-.927,2.974,2.974,0,0,0,.328-1.445Zm7.3-2.683v4.439a.877.877,0,0,0,.224.671,1.1,1.1,0,0,0,.754.207h1.077V22.8h-1.463q-2.931,0-2.931-2.852V15.526h-1.093v-1.9h1.093V11.351h2.335V13.62h2.054v1.906Zm4.9-3a1.413,1.413,0,0,1-1.019-.389,1.36,1.36,0,0,1,0-1.938,1.527,1.527,0,0,1,2.037,0,1.36,1.36,0,0,1,0,1.938,1.412,1.412,0,0,1-1.022.393Zm1.143,1.093V22.8H147.9V13.62Zm6.36,9.324a4.832,4.832,0,0,1-2.385-.588,4.233,4.233,0,0,1-1.664-1.664,4.987,4.987,0,0,1-.6-2.484,4.882,4.882,0,0,1,.621-2.484,4.316,4.316,0,0,1,1.7-1.665,5.2,5.2,0,0,1,4.8,0,4.316,4.316,0,0,1,1.7,1.664,4.882,4.882,0,0,1,.621,2.484,4.785,4.785,0,0,1-.638,2.484,4.416,4.416,0,0,1-1.722,1.664,5.009,5.009,0,0,1-2.428.593Zm0-2.024a2.412,2.412,0,0,0,1.184-.306,2.227,2.227,0,0,0,.886-.92,3.1,3.1,0,0,0,.331-1.491,2.76,2.76,0,0,0-.69-2,2.26,2.26,0,0,0-1.681-.7,2.208,2.208,0,0,0-1.664.7,2.8,2.8,0,0,0-.671,2.012,2.852,2.852,0,0,0,.654,2.012,2.154,2.154,0,0,0,1.647.7Zm11.577-7.436a3.537,3.537,0,0,1,2.65,1.035,3.963,3.963,0,0,1,1.012,2.89V22.8H169.5V17.727a2.379,2.379,0,0,0-.547-1.681,1.932,1.932,0,0,0-1.491-.588,1.984,1.984,0,0,0-1.515.588,2.356,2.356,0,0,0-.552,1.681V22.8h-2.319V13.62H165.4v1.143a3.2,3.2,0,0,1,1.177-.936,3.663,3.663,0,0,1,1.581-.34Zm22.524.132L188,22.8h-2.5l-1.673-6.409L182.149,22.8h-2.517l-2.7-9.175h2.352l1.623,6.993,1.756-6.993h2.451l1.722,6.972,1.623-6.972Zm2.435-1.093a1.413,1.413,0,0,1-1.019-.389,1.36,1.36,0,0,1,0-1.938,1.527,1.527,0,0,1,2.037,0,1.36,1.36,0,0,1,0,1.938,1.412,1.412,0,0,1-1.022.4Zm1.143,1.093V22.8h-2.319V13.62Zm4.978,1.914v4.439a.877.877,0,0,0,.224.671,1.1,1.1,0,0,0,.754.207h1.076V22.8h-1.457q-2.931,0-2.931-2.852V15.526h-1.093v-1.9H196.9V11.351h2.335V13.62h2.054v1.906Zm8.894-2.037a3.725,3.725,0,0,1,1.855.46,3.138,3.138,0,0,1,1.267,1.342,4.605,4.605,0,0,1,.455,2.128V22.8h-2.319V17.727a2.379,2.379,0,0,0-.547-1.681,1.932,1.932,0,0,0-1.491-.588,1.984,1.984,0,0,0-1.515.588,2.356,2.356,0,0,0-.552,1.681V22.8h-2.319V10.539h2.319v4.223a3.023,3.023,0,0,1,1.2-.936,3.949,3.949,0,0,1,1.653-.34ZM3.878,39.449v4.439a.877.877,0,0,0,.224.671,1.1,1.1,0,0,0,.754.207H5.932v1.952H4.475q-2.931,0-2.931-2.852V39.449H.45v-1.9H1.543V35.273H3.878v2.269H5.932v1.906Zm8.894-2.037a3.725,3.725,0,0,1,1.855.455,3.138,3.138,0,0,1,1.267,1.342,4.606,4.606,0,0,1,.455,2.128v5.381H14.031V41.65a2.379,2.379,0,0,0-.547-1.681A1.932,1.932,0,0,0,12,39.381a1.984,1.984,0,0,0-1.515.588A2.356,2.356,0,0,0,9.93,41.65v5.068H7.6V34.462H9.923v4.223a3.023,3.023,0,0,1,1.2-.936,3.949,3.949,0,0,1,1.652-.34Zm14.309,4.521a5.472,5.472,0,0,1-.066.894H20.308a2.281,2.281,0,0,0,.7,1.557,2.145,2.145,0,0,0,1.507.563,1.894,1.894,0,0,0,1.84-1.11h2.5a4.179,4.179,0,0,1-1.524,2.178,4.449,4.449,0,0,1-2.766.853,4.785,4.785,0,0,1-2.377-.588,4.14,4.14,0,0,1-1.64-1.664,5.1,5.1,0,0,1-.588-2.484,5.2,5.2,0,0,1,.58-2.5,4.048,4.048,0,0,1,1.623-1.656,5.211,5.211,0,0,1,4.745-.017,3.963,3.963,0,0,1,1.606,1.6,4.836,4.836,0,0,1,.57,2.377Zm-2.4-.662a1.84,1.84,0,0,0-.644-1.433A2.288,2.288,0,0,0,22.5,39.3a2.1,2.1,0,0,0-1.449.522,2.294,2.294,0,0,0-.72,1.449Zm12.107,5.6A4.833,4.833,0,0,1,34.4,46.28a4.232,4.232,0,0,1-1.664-1.664,4.988,4.988,0,0,1-.6-2.484,4.881,4.881,0,0,1,.621-2.484,4.316,4.316,0,0,1,1.694-1.671,5.2,5.2,0,0,1,4.8,0,4.316,4.316,0,0,1,1.7,1.664,4.882,4.882,0,0,1,.621,2.484,4.785,4.785,0,0,1-.638,2.484,4.416,4.416,0,0,1-1.722,1.664,5.009,5.009,0,0,1-2.423.593Zm0-2.024a2.412,2.412,0,0,0,1.184-.306,2.227,2.227,0,0,0,.886-.92,3.1,3.1,0,0,0,.331-1.491,2.76,2.76,0,0,0-.687-2.012,2.26,2.26,0,0,0-1.681-.7,2.208,2.208,0,0,0-1.664.7,2.8,2.8,0,0,0-.671,2.012,2.852,2.852,0,0,0,.654,2.012,2.154,2.154,0,0,0,1.648.707Zm15.154-7.3v9.177H49.605V45.558a3.061,3.061,0,0,1-1.172.936,3.624,3.624,0,0,1-1.564.34,3.887,3.887,0,0,1-1.9-.455,3.21,3.21,0,0,1-1.3-1.342,4.433,4.433,0,0,1-.472-2.116V37.538h2.319v5.051a2.379,2.379,0,0,0,.547,1.681,1.932,1.932,0,0,0,1.491.588,1.956,1.956,0,0,0,1.507-.588,2.379,2.379,0,0,0,.547-1.681V37.538Zm4.985,1.908v4.439a.877.877,0,0,0,.224.671,1.1,1.1,0,0,0,.754.207h1.077v1.952H57.522q-2.931,0-2.931-2.852V39.449h-1.1v-1.9h1.093V35.273h2.339v2.269h2.054v1.906Zm7.241,7.418a4.838,4.838,0,0,1-2.024-.406,3.57,3.57,0,0,1-1.416-1.1,2.791,2.791,0,0,1-.571-1.54H62.49a1.272,1.272,0,0,0,.522.878,1.814,1.814,0,0,0,1.134.348,1.762,1.762,0,0,0,1.035-.265.8.8,0,0,0,.368-.679.716.716,0,0,0-.46-.671,8.57,8.57,0,0,0-1.449-.489,12.281,12.281,0,0,1-1.681-.513,2.919,2.919,0,0,1-1.126-.812,2.178,2.178,0,0,1-.472-1.472A2.378,2.378,0,0,1,60.8,38.75a2.944,2.944,0,0,1,1.259-.994,4.718,4.718,0,0,1,1.932-.368,3.94,3.94,0,0,1,2.617.82,3.036,3.036,0,0,1,1.077,2.208H65.471a1.2,1.2,0,0,0-.46-.869,2.054,2.054,0,0,0-2.054-.092.736.736,0,0,0-.34.644.759.759,0,0,0,.46.7,7.2,7.2,0,0,0,1.441.489,12.231,12.231,0,0,1,1.64.513,2.9,2.9,0,0,1,1.118.82,2.252,2.252,0,0,1,.489,1.466,2.431,2.431,0,0,1-.439,1.424,2.891,2.891,0,0,1-1.259.985,4.769,4.769,0,0,1-1.9.366Zm6.687-10.417a1.412,1.412,0,0,1-1.019-.389,1.36,1.36,0,0,1,0-1.938,1.527,1.527,0,0,1,2.037,0,1.36,1.36,0,0,1,0,1.938,1.412,1.412,0,0,1-1.019.389ZM72,37.542v9.175H69.678V37.542ZM73.686,42.1a5.311,5.311,0,0,1,.552-2.468,4,4,0,0,1,3.652-2.236,3.9,3.9,0,0,1,1.706.389,3.411,3.411,0,0,1,1.288,1.035V34.462h2.352V46.718H80.89V45.359a3.142,3.142,0,0,1-1.209,1.093,3.787,3.787,0,0,1-1.805.414,3.941,3.941,0,0,1-2.116-.6,4.152,4.152,0,0,1-1.515-1.681,5.4,5.4,0,0,1-.559-2.493Zm7.221.033a2.974,2.974,0,0,0-.331-1.449,2.335,2.335,0,0,0-.894-.927,2.392,2.392,0,0,0-1.209-.323,2.329,2.329,0,0,0-2.078,1.234,2.879,2.879,0,0,0-.34,1.433,2.975,2.975,0,0,0,.34,1.449,2.445,2.445,0,0,0,.894.952,2.272,2.272,0,0,0,1.184.331,2.392,2.392,0,0,0,1.209-.323,2.335,2.335,0,0,0,.894-.927,2.974,2.974,0,0,0,.331-1.449Zm13.133-.2a5.471,5.471,0,0,1-.066.894H87.267a2.281,2.281,0,0,0,.7,1.557,2.145,2.145,0,0,0,1.507.563,1.894,1.894,0,0,0,1.84-1.11h2.5a4.179,4.179,0,0,1-1.524,2.178,4.449,4.449,0,0,1-2.766.853,4.784,4.784,0,0,1-2.377-.588,4.14,4.14,0,0,1-1.64-1.664,5.1,5.1,0,0,1-.588-2.484,5.2,5.2,0,0,1,.58-2.5,4.048,4.048,0,0,1,1.623-1.656,5.211,5.211,0,0,1,4.745-.017,3.963,3.963,0,0,1,1.606,1.6,4.836,4.836,0,0,1,.57,2.378Zm-2.4-.662a1.84,1.84,0,0,0-.644-1.433,2.288,2.288,0,0,0-1.54-.538,2.1,2.1,0,0,0-1.449.522,2.294,2.294,0,0,0-.72,1.449Z" transform="translate(125.131 508.011)"/><text transform="translate(77.322 526.281)" fill="#2befb3" font-size="45" font-family="Poppins-SemiBold, Poppins" font-weight="600"><tspan x="0" y="0">3</tspan></text></g></svg>