<svg xmlns="http://www.w3.org/2000/svg" width="380" height="83.729" viewBox="0 0 380 83.729"><g transform="translate(-58 -471)"><rect width="380" height="83.729" rx="10" transform="translate(58 471)" fill="#fff"/><path d="M8.328-12.688v1.871H3.509v2.965H7.2v1.84H3.509v4.884H1.19v-11.56ZM11.144-11.4a1.412,1.412,0,0,1-1.019-.389,1.288,1.288,0,0,1-.406-.969,1.288,1.288,0,0,1,.406-.969,1.412,1.412,0,0,1,1.019-.389,1.412,1.412,0,0,1,1.019.389,1.288,1.288,0,0,1,.406.969,1.288,1.288,0,0,1-.406.969,1.412,1.412,0,0,1-1.019.393Zm1.141,1.1v9.175H9.966V-10.3Zm7.37-.132A3.537,3.537,0,0,1,22.3-9.4a3.963,3.963,0,0,1,1.012,2.89v5.383H21V-6.2a2.379,2.379,0,0,0-.547-1.681,1.932,1.932,0,0,0-1.491-.588,1.984,1.984,0,0,0-1.515.588A2.356,2.356,0,0,0,16.893-6.2v5.068H14.575V-10.3h2.319V-9.16a3.2,3.2,0,0,1,1.184-.936,3.663,3.663,0,0,1,1.579-.34Zm5.267,4.687a5.311,5.311,0,0,1,.552-2.468A4.067,4.067,0,0,1,26.98-9.873a4.013,4.013,0,0,1,2.128-.58,3.738,3.738,0,0,1,1.8.414,3.646,3.646,0,0,1,1.238,1.043V-10.3h2.335v9.175H32.144V-2.469A3.449,3.449,0,0,1,30.91-1.4,3.772,3.772,0,0,1,29.1-.982a3.9,3.9,0,0,1-2.116-.6,4.173,4.173,0,0,1-1.507-1.681,5.4,5.4,0,0,1-.55-2.49Zm7.221.033a2.974,2.974,0,0,0-.331-1.449,2.335,2.335,0,0,0-.894-.927,2.392,2.392,0,0,0-1.209-.323,2.348,2.348,0,0,0-1.2.315,2.369,2.369,0,0,0-.886.92,2.879,2.879,0,0,0-.34,1.433,2.975,2.975,0,0,0,.34,1.449,2.445,2.445,0,0,0,.894.952,2.272,2.272,0,0,0,1.184.331,2.392,2.392,0,0,0,1.215-.321,2.335,2.335,0,0,0,.894-.927,2.974,2.974,0,0,0,.331-1.452Zm6.923-7.668V-1.128H36.746V-13.384Zm4.6,0V-1.128H41.347V-13.384ZM54.734-10.3,49.054,3.211H46.586L48.573-1.36,44.893-10.3h2.6l2.368,6.409,2.4-6.409Zm4.588,4.554a5.311,5.311,0,0,1,.552-2.468,4.048,4.048,0,0,1,1.515-1.656,4.055,4.055,0,0,1,2.136-.58,3.9,3.9,0,0,1,1.706.389A3.411,3.411,0,0,1,66.52-9.028v-4.356h2.352V-1.128H66.526V-2.486a3.142,3.142,0,0,1-1.209,1.093,3.787,3.787,0,0,1-1.805.414,3.941,3.941,0,0,1-2.116-.6A4.152,4.152,0,0,1,59.88-3.256a5.4,5.4,0,0,1-.558-2.493Zm7.221.033a2.974,2.974,0,0,0-.331-1.449,2.335,2.335,0,0,0-.894-.927,2.392,2.392,0,0,0-1.209-.323,2.348,2.348,0,0,0-1.2.315,2.369,2.369,0,0,0-.886.92,2.879,2.879,0,0,0-.332,1.432,2.975,2.975,0,0,0,.34,1.449,2.445,2.445,0,0,0,.894.952,2.272,2.272,0,0,0,1.184.331,2.392,2.392,0,0,0,1.205-.32,2.335,2.335,0,0,0,.894-.927,2.974,2.974,0,0,0,.331-1.452Zm13.133-.2a5.472,5.472,0,0,1-.066.894H72.9a2.281,2.281,0,0,0,.7,1.557,2.145,2.145,0,0,0,1.507.563,1.894,1.894,0,0,0,1.84-1.11h2.5a4.179,4.179,0,0,1-1.526,2.176,4.449,4.449,0,0,1-2.766.853,4.784,4.784,0,0,1-2.377-.588,4.14,4.14,0,0,1-1.64-1.664,5.1,5.1,0,0,1-.588-2.484,5.2,5.2,0,0,1,.58-2.5,4.048,4.048,0,0,1,1.623-1.652,4.863,4.863,0,0,1,2.4-.58,4.824,4.824,0,0,1,2.343.563,3.963,3.963,0,0,1,1.606,1.6,4.836,4.836,0,0,1,.571,2.375Zm-2.4-.662a1.84,1.84,0,0,0-.644-1.433,2.288,2.288,0,0,0-1.54-.538,2.1,2.1,0,0,0-1.449.522,2.294,2.294,0,0,0-.722,1.447Zm3.5.861a5.146,5.146,0,0,1,.58-2.493,4.14,4.14,0,0,1,1.606-1.656,4.648,4.648,0,0,1,2.352-.588,4.521,4.521,0,0,1,2.824.853,4.149,4.149,0,0,1,1.5,2.392h-2.5a1.829,1.829,0,0,0-.671-.936,1.947,1.947,0,0,0-1.168-.34,1.912,1.912,0,0,0-1.573.72,3.189,3.189,0,0,0-.58,2.045,3.16,3.16,0,0,0,.58,2.024,1.912,1.912,0,0,0,1.573.722,1.758,1.758,0,0,0,1.84-1.259h2.5a4.232,4.232,0,0,1-1.509,2.37,4.441,4.441,0,0,1-2.815.878,4.648,4.648,0,0,1-2.352-.588,4.14,4.14,0,0,1-1.606-1.656,5.146,5.146,0,0,1-.58-2.493Zm12.881-7.668V-1.128H91.334V-13.384Zm1.689,7.637a5.311,5.311,0,0,1,.552-2.468A4.067,4.067,0,0,1,97.4-9.869a4.013,4.013,0,0,1,2.128-.58,3.738,3.738,0,0,1,1.8.414,3.646,3.646,0,0,1,1.238,1.04V-10.3H104.9v9.175h-2.335V-2.469A3.449,3.449,0,0,1,101.331-1.4a3.772,3.772,0,0,1-1.814.422,3.9,3.9,0,0,1-2.112-.6A4.173,4.173,0,0,1,95.9-3.259a5.4,5.4,0,0,1-.555-2.49Zm7.221.033a2.974,2.974,0,0,0-.331-1.449,2.335,2.335,0,0,0-.894-.927,2.392,2.392,0,0,0-1.209-.323,2.348,2.348,0,0,0-1.2.315,2.369,2.369,0,0,0-.886.92,2.879,2.879,0,0,0-.34,1.433,2.975,2.975,0,0,0,.34,1.449,2.445,2.445,0,0,0,.894.952,2.272,2.272,0,0,0,1.184.331,2.392,2.392,0,0,0,1.209-.323,2.335,2.335,0,0,0,.894-.927,2.974,2.974,0,0,0,.337-1.454Zm6.923-3.163a3.26,3.26,0,0,1,1.168-1.143,3.247,3.247,0,0,1,1.648-.414V-8h-.613a2.349,2.349,0,0,0-1.648.513,2.367,2.367,0,0,0-.552,1.789v4.571H107.17V-10.3h2.319Zm12.9,2.963a5.472,5.472,0,0,1-.066.894h-6.711a2.281,2.281,0,0,0,.7,1.557,2.145,2.145,0,0,0,1.513.561,1.894,1.894,0,0,0,1.84-1.11h2.5a4.179,4.179,0,0,1-1.524,2.178,4.449,4.449,0,0,1-2.766.853,4.785,4.785,0,0,1-2.377-.588,4.14,4.14,0,0,1-1.64-1.664,5.1,5.1,0,0,1-.588-2.484,5.2,5.2,0,0,1,.58-2.5,4.048,4.048,0,0,1,1.623-1.656,4.863,4.863,0,0,1,2.4-.58,4.824,4.824,0,0,1,2.343.563,3.963,3.963,0,0,1,1.606,1.6,4.836,4.836,0,0,1,.568,2.378Zm-2.4-.662a1.84,1.84,0,0,0-.644-1.433,2.288,2.288,0,0,0-1.54-.538,2.1,2.1,0,0,0-1.456.517,2.294,2.294,0,0,0-.72,1.449ZM136.8-10.3,131.117,3.211h-2.468l1.987-4.571-3.68-8.943h2.6l2.368,6.409,2.4-6.409ZM142.11-.979a4.832,4.832,0,0,1-2.385-.588,4.232,4.232,0,0,1-1.664-1.664,4.987,4.987,0,0,1-.6-2.484,4.882,4.882,0,0,1,.621-2.484,4.316,4.316,0,0,1,1.7-1.669,4.927,4.927,0,0,1,2.4-.588,4.927,4.927,0,0,1,2.4.588,4.316,4.316,0,0,1,1.7,1.664A4.882,4.882,0,0,1,146.9-5.72a4.785,4.785,0,0,1-.638,2.484,4.417,4.417,0,0,1-1.722,1.664,5.009,5.009,0,0,1-2.43.593Zm0-2.024a2.412,2.412,0,0,0,1.184-.306,2.227,2.227,0,0,0,.886-.92,3.1,3.1,0,0,0,.331-1.491,2.76,2.76,0,0,0-.687-2.012,2.26,2.26,0,0,0-1.681-.7,2.208,2.208,0,0,0-1.664.7,2.8,2.8,0,0,0-.671,2.012,2.852,2.852,0,0,0,.654,2.012A2.154,2.154,0,0,0,142.11-3Zm15.154-7.3v9.179h-2.335V-2.287a3.061,3.061,0,0,1-1.168.936,3.624,3.624,0,0,1-1.564.34,3.887,3.887,0,0,1-1.9-.46,3.21,3.21,0,0,1-1.3-1.341,4.433,4.433,0,0,1-.472-2.116v-5.383h2.319v5.051a2.379,2.379,0,0,0,.547,1.681,1.932,1.932,0,0,0,1.491.588,1.957,1.957,0,0,0,1.507-.588,2.379,2.379,0,0,0,.547-1.681v-5.051Zm4.6,1.424a3.26,3.26,0,0,1,1.168-1.143,3.247,3.247,0,0,1,1.648-.414V-8h-.613a2.349,2.349,0,0,0-1.648.513,2.367,2.367,0,0,0-.552,1.789v4.571h-2.319V-10.3h2.319Zm12.521.48h-1.6v7.274h-2.352V-8.4h-1.043v-1.9h1.043v-.46a3.042,3.042,0,0,1,.961-2.484,4.291,4.291,0,0,1,2.9-.745v1.954a1.721,1.721,0,0,0-1.176.282,1.41,1.41,0,0,0-.331,1.077v.381h1.606Zm10.169-1.9v9.179h-2.328V-2.287a3.061,3.061,0,0,1-1.168.936,3.624,3.624,0,0,1-1.564.34,3.887,3.887,0,0,1-1.9-.46,3.21,3.21,0,0,1-1.3-1.342,4.433,4.433,0,0,1-.472-2.116v-5.383h2.319v5.051a2.379,2.379,0,0,0,.547,1.681,1.932,1.932,0,0,0,1.491.588,1.957,1.957,0,0,0,1.507-.588,2.379,2.379,0,0,0,.546-1.672V-10.3Zm7.37-.132a3.537,3.537,0,0,1,2.65,1.035,3.963,3.963,0,0,1,1.012,2.89v5.386h-2.319V-6.2a2.379,2.379,0,0,0-.547-1.681,1.932,1.932,0,0,0-1.491-.588,1.984,1.984,0,0,0-1.515.588,2.356,2.356,0,0,0-.552,1.681v5.068h-2.319V-10.3h2.319V-9.16a3.2,3.2,0,0,1,1.184-.936,3.663,3.663,0,0,1,1.584-.34Zm5.267,4.72a5.146,5.146,0,0,1,.585-2.493,4.141,4.141,0,0,1,1.606-1.656,4.648,4.648,0,0,1,2.352-.588,4.521,4.521,0,0,1,2.824.853,4.149,4.149,0,0,1,1.5,2.392h-2.5a1.829,1.829,0,0,0-.671-.936,1.947,1.947,0,0,0-1.168-.34,1.912,1.912,0,0,0-1.573.72,3.189,3.189,0,0,0-.58,2.045,3.16,3.16,0,0,0,.58,2.024,1.912,1.912,0,0,0,1.573.72,1.758,1.758,0,0,0,1.84-1.259h2.5a4.232,4.232,0,0,1-1.507,2.368,4.441,4.441,0,0,1-2.815.878,4.648,4.648,0,0,1-2.352-.588,4.141,4.141,0,0,1-1.606-1.656,5.146,5.146,0,0,1-.578-2.482ZM210.464-8.4v4.439a.877.877,0,0,0,.224.671,1.1,1.1,0,0,0,.754.207h1.077v1.952h-1.457q-2.931,0-2.931-2.852V-8.4h-1.093v-1.9h1.093V-12.57h2.335V-10.3h2.054v1.9Zm4.9-3a1.413,1.413,0,0,1-1.019-.389,1.288,1.288,0,0,1-.406-.969,1.288,1.288,0,0,1,.406-.969,1.413,1.413,0,0,1,1.019-.389,1.412,1.412,0,0,1,1.019.389,1.288,1.288,0,0,1,.406.969,1.288,1.288,0,0,1-.406.969,1.412,1.412,0,0,1-1.019.387Zm1.143,1.093v9.173h-2.319V-10.3Zm6.36,9.322a4.832,4.832,0,0,1-2.385-.588,4.232,4.232,0,0,1-1.664-1.664,4.987,4.987,0,0,1-.6-2.484,4.882,4.882,0,0,1,.621-2.484,4.316,4.316,0,0,1,1.7-1.669,4.927,4.927,0,0,1,2.4-.588,4.927,4.927,0,0,1,2.4.588,4.316,4.316,0,0,1,1.7,1.669,4.882,4.882,0,0,1,.621,2.484,4.785,4.785,0,0,1-.638,2.484A4.416,4.416,0,0,1,225.3-1.567a5.009,5.009,0,0,1-2.427.588Zm0-2.024a2.412,2.412,0,0,0,1.184-.306,2.227,2.227,0,0,0,.886-.92,3.1,3.1,0,0,0,.331-1.491,2.76,2.76,0,0,0-.687-2.012,2.26,2.26,0,0,0-1.681-.7,2.208,2.208,0,0,0-1.664.7,2.8,2.8,0,0,0-.671,2.012,2.852,2.852,0,0,0,.654,2.012A2.154,2.154,0,0,0,222.869-3Zm11.577-7.436A3.537,3.537,0,0,1,237.1-9.4a3.963,3.963,0,0,1,1.012,2.89v5.386h-2.319V-6.2a2.379,2.379,0,0,0-.547-1.681,1.932,1.932,0,0,0-1.491-.588,1.984,1.984,0,0,0-1.515.588,2.356,2.356,0,0,0-.552,1.681v5.068h-2.319V-10.3h2.319V-9.16a3.2,3.2,0,0,1,1.184-.936,3.663,3.663,0,0,1,1.577-.34ZM.594,18.174a5.311,5.311,0,0,1,.558-2.464,4.067,4.067,0,0,1,1.507-1.656,4.013,4.013,0,0,1,2.128-.58,3.738,3.738,0,0,1,1.8.414,3.646,3.646,0,0,1,1.231,1.04V13.619H10.15v9.175H7.815V21.453A3.449,3.449,0,0,1,6.58,22.519a3.772,3.772,0,0,1-1.814.422,3.9,3.9,0,0,1-2.116-.6,4.173,4.173,0,0,1-1.5-1.678,5.4,5.4,0,0,1-.558-2.493Zm7.221.033a2.974,2.974,0,0,0-.331-1.449,2.335,2.335,0,0,0-.894-.927,2.392,2.392,0,0,0-1.205-.323,2.329,2.329,0,0,0-2.078,1.234,2.879,2.879,0,0,0-.34,1.433,2.975,2.975,0,0,0,.34,1.449,2.445,2.445,0,0,0,.894.952,2.272,2.272,0,0,0,1.184.331,2.392,2.392,0,0,0,1.205-.32,2.335,2.335,0,0,0,.894-.927,2.974,2.974,0,0,0,.331-1.452Zm8.115,4.737a4.838,4.838,0,0,1-2.024-.406,3.57,3.57,0,0,1-1.416-1.1,2.792,2.792,0,0,1-.571-1.54h2.335a1.272,1.272,0,0,0,.522.878,1.814,1.814,0,0,0,1.134.348,1.762,1.762,0,0,0,1.035-.265.8.8,0,0,0,.373-.679.716.716,0,0,0-.46-.671,8.57,8.57,0,0,0-1.445-.482,12.28,12.28,0,0,1-1.681-.513,2.919,2.919,0,0,1-1.126-.812,2.178,2.178,0,0,1-.472-1.472,2.378,2.378,0,0,1,.439-1.391,2.944,2.944,0,0,1,1.259-.994,4.718,4.718,0,0,1,1.932-.368,3.94,3.94,0,0,1,2.617.82A3.036,3.036,0,0,1,19.457,16.5H17.238a1.2,1.2,0,0,0-.46-.869,1.693,1.693,0,0,0-1.085-.323,1.71,1.71,0,0,0-.969.232.736.736,0,0,0-.34.644.759.759,0,0,0,.46.7,7.2,7.2,0,0,0,1.441.489,12.231,12.231,0,0,1,1.64.513,2.9,2.9,0,0,1,1.118.82,2.251,2.251,0,0,1,.489,1.466,2.431,2.431,0,0,1-.439,1.424,2.891,2.891,0,0,1-1.259.985,4.769,4.769,0,0,1-1.9.359Zm8.861-4.77a5.311,5.311,0,0,1,.552-2.468A4.067,4.067,0,0,1,26.85,14.05a4.013,4.013,0,0,1,2.128-.58,3.738,3.738,0,0,1,1.8.414,3.646,3.646,0,0,1,1.237,1.043V13.619h2.335v9.175H32.012V21.453a3.449,3.449,0,0,1-1.233,1.065,3.772,3.772,0,0,1-1.814.422,3.9,3.9,0,0,1-2.116-.6,4.173,4.173,0,0,1-1.5-1.678,5.4,5.4,0,0,1-.559-2.493Zm7.221.033a2.974,2.974,0,0,0-.331-1.449,2.335,2.335,0,0,0-.894-.927,2.392,2.392,0,0,0-1.209-.323A2.329,2.329,0,0,0,27.5,16.741a2.879,2.879,0,0,0-.34,1.433,2.975,2.975,0,0,0,.34,1.449,2.445,2.445,0,0,0,.894.952,2.272,2.272,0,0,0,1.184.331,2.392,2.392,0,0,0,1.209-.323,2.335,2.335,0,0,0,.894-.927,2.974,2.974,0,0,0,.331-1.449Zm21.265-4.588-2.683,9.175h-2.5L46.42,16.385l-1.673,6.409H42.23l-2.7-9.175h2.352l1.623,6.993,1.756-6.993h2.447l1.722,6.972,1.623-6.972Zm9.788,4.391A5.473,5.473,0,0,1,63,18.9H56.291a2.281,2.281,0,0,0,.7,1.557,2.145,2.145,0,0,0,1.507.563,1.894,1.894,0,0,0,1.84-1.11h2.5a4.179,4.179,0,0,1-1.524,2.178,4.449,4.449,0,0,1-2.766.853,4.785,4.785,0,0,1-2.377-.588,4.14,4.14,0,0,1-1.64-1.664,5.1,5.1,0,0,1-.588-2.484,5.2,5.2,0,0,1,.576-2.5,4.048,4.048,0,0,1,1.623-1.656,5.211,5.211,0,0,1,4.745-.017,3.963,3.963,0,0,1,1.606,1.6A4.836,4.836,0,0,1,63.065,18.01Zm-2.4-.662a1.84,1.84,0,0,0-.644-1.433,2.288,2.288,0,0,0-1.54-.538,2.1,2.1,0,0,0-1.449.522,2.294,2.294,0,0,0-.72,1.449Zm6.409-2.385a3.312,3.312,0,0,1,1.234-1.077,3.8,3.8,0,0,1,1.8-.414,4.013,4.013,0,0,1,2.128.58A4.079,4.079,0,0,1,73.739,15.7a5.3,5.3,0,0,1,.552,2.476,5.4,5.4,0,0,1-.552,2.493,4.173,4.173,0,0,1-1.507,1.681,3.929,3.929,0,0,1-2.128.6,3.8,3.8,0,0,1-1.8-.406,3.491,3.491,0,0,1-1.234-1.052v1.307H64.754V10.539h2.319Zm4.853,3.213a2.879,2.879,0,0,0-.34-1.433,2.351,2.351,0,0,0-.894-.92,2.392,2.392,0,0,0-1.2-.315,2.316,2.316,0,0,0-1.184.323,2.4,2.4,0,0,0-.894.936,3.228,3.228,0,0,0,0,2.882,2.4,2.4,0,0,0,.894.936,2.337,2.337,0,0,0,2.385-.008,2.459,2.459,0,0,0,.894-.944,2.963,2.963,0,0,0,.34-1.458Zm3.461.033a5.146,5.146,0,0,1,.58-2.493,4.14,4.14,0,0,1,1.606-1.656,4.648,4.648,0,0,1,2.352-.588,4.521,4.521,0,0,1,2.824.853,4.149,4.149,0,0,1,1.5,2.392h-2.5a1.829,1.829,0,0,0-.671-.936,1.947,1.947,0,0,0-1.168-.34,1.912,1.912,0,0,0-1.573.72,3.189,3.189,0,0,0-.58,2.045,3.16,3.16,0,0,0,.58,2.024,1.912,1.912,0,0,0,1.577.722,1.758,1.758,0,0,0,1.84-1.259h2.5a4.232,4.232,0,0,1-1.507,2.368,4.441,4.441,0,0,1-2.815.878,4.648,4.648,0,0,1-2.352-.588A4.14,4.14,0,0,1,75.972,20.7a5.146,5.146,0,0,1-.585-2.491Zm14.641,4.737a4.832,4.832,0,0,1-2.385-.588,4.232,4.232,0,0,1-1.664-1.664,4.988,4.988,0,0,1-.6-2.484,4.881,4.881,0,0,1,.621-2.484,4.316,4.316,0,0,1,1.7-1.671,5.2,5.2,0,0,1,4.8,0,4.316,4.316,0,0,1,1.7,1.664,4.881,4.881,0,0,1,.621,2.484,4.785,4.785,0,0,1-.638,2.484,4.416,4.416,0,0,1-1.722,1.664,5.009,5.009,0,0,1-2.426.593Zm0-2.024a2.412,2.412,0,0,0,1.184-.306,2.227,2.227,0,0,0,.886-.92,3.1,3.1,0,0,0,.331-1.491,2.76,2.76,0,0,0-.687-2.012,2.26,2.26,0,0,0-1.681-.7,2.208,2.208,0,0,0-1.664.7,2.8,2.8,0,0,0-.671,2.012,2.852,2.852,0,0,0,.651,2.014,2.154,2.154,0,0,0,1.651.7Zm17.887-7.436a3.68,3.68,0,0,1,2.724,1.035,3.907,3.907,0,0,1,1.035,2.89v5.384h-2.319V17.727a2.292,2.292,0,0,0-.547-1.648,1.965,1.965,0,0,0-1.491-.571,1.993,1.993,0,0,0-1.5.571,2.271,2.271,0,0,0-.552,1.648v5.068h-2.319V17.727a2.292,2.292,0,0,0-.547-1.648,1.965,1.965,0,0,0-1.491-.571,2.014,2.014,0,0,0-1.515.571,2.271,2.271,0,0,0-.552,1.648v5.068H96.525V13.619h2.319v1.11a3.086,3.086,0,0,1,1.151-.911,3.588,3.588,0,0,1,1.549-.331,3.983,3.983,0,0,1,1.921.46,3.192,3.192,0,0,1,1.308,1.3,3.322,3.322,0,0,1,1.3-1.275,3.7,3.7,0,0,1,1.841-.485Zm8.281,1.457a3.521,3.521,0,0,1,1.234-1.052,3.739,3.739,0,0,1,1.8-.422,4.013,4.013,0,0,1,2.128.58,4.078,4.078,0,0,1,1.507,1.648,5.3,5.3,0,0,1,.552,2.476,5.4,5.4,0,0,1-.552,2.493,4.173,4.173,0,0,1-1.507,1.681,3.929,3.929,0,0,1-2.128.6,3.7,3.7,0,0,1-1.78-.414,3.819,3.819,0,0,1-1.25-1.043v5.681h-2.319V13.619h2.319Zm4.853,3.23a2.88,2.88,0,0,0-.34-1.433,2.351,2.351,0,0,0-.894-.92,2.392,2.392,0,0,0-1.2-.315,2.316,2.316,0,0,0-1.184.323,2.4,2.4,0,0,0-.894.936,3.228,3.228,0,0,0,0,2.882,2.4,2.4,0,0,0,.894.936,2.337,2.337,0,0,0,2.385-.008,2.458,2.458,0,0,0,.894-.944,2.963,2.963,0,0,0,.34-1.455Zm8.132,4.77a4.832,4.832,0,0,1-2.385-.588,4.232,4.232,0,0,1-1.664-1.664,4.987,4.987,0,0,1-.6-2.484,4.882,4.882,0,0,1,.621-2.484,4.316,4.316,0,0,1,1.7-1.664,5.2,5.2,0,0,1,4.8,0,4.316,4.316,0,0,1,1.7,1.664,4.882,4.882,0,0,1,.621,2.484,4.784,4.784,0,0,1-.638,2.484,4.416,4.416,0,0,1-1.722,1.664,5.009,5.009,0,0,1-2.426.59Zm0-2.024a2.412,2.412,0,0,0,1.184-.306,2.227,2.227,0,0,0,.886-.92,3.1,3.1,0,0,0,.331-1.491,2.76,2.76,0,0,0-.687-2.012,2.26,2.26,0,0,0-1.681-.7,2.208,2.208,0,0,0-1.664.7,2.8,2.8,0,0,0-.671,2.012,2.852,2.852,0,0,0,.654,2.012,2.154,2.154,0,0,0,1.648.71Zm11.577-7.436a3.537,3.537,0,0,1,2.65,1.035,3.963,3.963,0,0,1,1.012,2.89v5.388H142.1V17.727a2.379,2.379,0,0,0-.547-1.681,1.932,1.932,0,0,0-1.491-.588,1.984,1.984,0,0,0-1.515.588,2.357,2.357,0,0,0-.552,1.681v5.068H135.67V13.619h2.319v1.143a3.2,3.2,0,0,1,1.184-.936,3.663,3.663,0,0,1,1.583-.34Zm14.392,4.529a5.472,5.472,0,0,1-.066.894h-6.708a2.281,2.281,0,0,0,.7,1.557,2.145,2.145,0,0,0,1.507.563,1.894,1.894,0,0,0,1.84-1.11h2.5a4.179,4.179,0,0,1-1.524,2.178,4.449,4.449,0,0,1-2.766.853,4.784,4.784,0,0,1-2.377-.588,4.14,4.14,0,0,1-1.64-1.664,5.1,5.1,0,0,1-.588-2.484,5.2,5.2,0,0,1,.58-2.5,4.048,4.048,0,0,1,1.623-1.656,5.211,5.211,0,0,1,4.745-.017,3.963,3.963,0,0,1,1.607,1.6,4.837,4.837,0,0,1,.57,2.377Zm-2.4-.662a1.84,1.84,0,0,0-.644-1.433,2.288,2.288,0,0,0-1.54-.538,2.1,2.1,0,0,0-1.449.522,2.294,2.294,0,0,0-.72,1.449Zm9.175-3.859a3.537,3.537,0,0,1,2.65,1.035,3.963,3.963,0,0,1,1.012,2.89v5.381h-2.319V17.727a2.379,2.379,0,0,0-.547-1.681,1.932,1.932,0,0,0-1.491-.588,1.984,1.984,0,0,0-1.515.588,2.356,2.356,0,0,0-.552,1.681v5.068h-2.319V13.619h2.319v1.143a3.2,3.2,0,0,1,1.184-.936,3.663,3.663,0,0,1,1.577-.34Zm8.562,2.037v4.439a.877.877,0,0,0,.224.671,1.1,1.1,0,0,0,.754.207h1.077v1.952h-1.457q-2.931,0-2.931-2.852V15.526h-1.093v-1.9h1.093V11.35h2.335v2.269h2.054v1.906Z" transform="translate(125.12 508.012)"/><text transform="translate(77.322 527.281)" fill="#2befb3" font-size="46" font-family="Poppins-SemiBold, Poppins" font-weight="600"><tspan x="0" y="0">4</tspan></text></g></svg>