<svg xmlns="http://www.w3.org/2000/svg" width="380" height="128.814" viewBox="0 0 380 128.814"><g transform="translate(-408 -215.178)"><rect width="380" height="128.814" rx="10" transform="translate(408 215.178)" fill="#fff"/><g transform="translate(436.523 236.34)"><path d="M-1145.639,196.626a7.361,7.361,0,0,1-7.361-7.361V142.34a7.361,7.361,0,0,1,7.361-7.361h231.864l13.8-13.8h60.726a7.361,7.361,0,0,1,7.361,7.361v60.726a7.361,7.361,0,0,1-7.361,7.361Z" transform="translate(1153 -121.178)" fill="#120042"/><g transform="translate(18.402 38.518)"><path d="M1.362-1.05H3.294V-7.293a2.451,2.451,0,0,1,.3-.4,1.983,1.983,0,0,1,.368-.316,2.043,2.043,0,0,1,.558-.263,2.279,2.279,0,0,1,.663-.092,2.822,2.822,0,0,1,.76.092,1.352,1.352,0,0,1,.566.311,1.368,1.368,0,0,1,.356.582,2.9,2.9,0,0,1,.121.905V-1.05H8.918V-6.509A4.978,4.978,0,0,0,8.7-8.081a2.864,2.864,0,0,0-.615-1.072,2.353,2.353,0,0,0-.954-.615A3.721,3.721,0,0,0,5.9-9.962a3.2,3.2,0,0,0-.971.145,3.179,3.179,0,0,0-.849.412,3.415,3.415,0,0,0-.46.384,3.614,3.614,0,0,0-.392.465L3.109-9.8H1.361Zm9.955,3.364H13.25V-1.842a3.057,3.057,0,0,0,.331.316,2.874,2.874,0,0,0,.368.259,2.89,2.89,0,0,0,.724.283,3.588,3.588,0,0,0,.861.1A3.07,3.07,0,0,0,17-1.227a3.147,3.147,0,0,0,1.076-.938,4.192,4.192,0,0,0,.659-1.407,6.69,6.69,0,0,0,.223-1.763v-.17a6.785,6.785,0,0,0-.226-1.807,4.344,4.344,0,0,0-.655-1.411A3.011,3.011,0,0,0,17-9.638a3.259,3.259,0,0,0-1.484-.324,3.393,3.393,0,0,0-.809.092,2.928,2.928,0,0,0-.7.263,2.576,2.576,0,0,0-.453.307,3,3,0,0,0-.388.4L13.1-9.8H11.317Zm5.709-7.821v.17a5.194,5.194,0,0,1-.113,1.1,2.916,2.916,0,0,1-.368.926,1.835,1.835,0,0,1-.627.627,1.768,1.768,0,0,1-.926.23,2.25,2.25,0,0,1-.606-.076,2.039,2.039,0,0,1-.493-.206,1.783,1.783,0,0,1-.368-.324,1.963,1.963,0,0,1-.276-.412V-7.357a2.208,2.208,0,0,1,.3-.437,1.547,1.547,0,0,1,.409-.324,1.685,1.685,0,0,1,.46-.184,2.3,2.3,0,0,1,.558-.064,1.814,1.814,0,0,1,.93.226,1.881,1.881,0,0,1,.639.615,2.906,2.906,0,0,1,.36.91,5.06,5.06,0,0,1,.119,1.11ZM22.339-9.8H20.657v8.75h1.779V-7.766a1.375,1.375,0,0,1,.109-.218.79.79,0,0,1,.142-.17.667.667,0,0,1,.255-.157,1.034,1.034,0,0,1,.344-.052.982.982,0,0,1,.319.049.636.636,0,0,1,.247.154.653.653,0,0,1,.157.287,1.6,1.6,0,0,1,.052.441V-1.05h1.748v-6.7a.872.872,0,0,1,.1-.247.73.73,0,0,1,.162-.19.766.766,0,0,1,.243-.137.973.973,0,0,1,.324-.049,1.056,1.056,0,0,1,.328.049.628.628,0,0,1,.255.154.756.756,0,0,1,.162.3,1.5,1.5,0,0,1,.057.441v6.38h1.779V-7.414a4.274,4.274,0,0,0-.145-1.18,2.147,2.147,0,0,0-.4-.8,1.614,1.614,0,0,0-.611-.432,2.051,2.051,0,0,0-.772-.142,2.071,2.071,0,0,0-.594.081,1.808,1.808,0,0,0-.489.226,1.673,1.673,0,0,0-.316.276,2.329,2.329,0,0,0-.259.348,1.69,1.69,0,0,0-.194-.36,1.3,1.3,0,0,0-.259-.271,1.2,1.2,0,0,0-.444-.226,2.151,2.151,0,0,0-.582-.073,1.848,1.848,0,0,0-1.064.3,2.024,2.024,0,0,0-.691.828Zm19.223,0v1.609h2.693v5.54H41.562v1.6h7.214v-1.6h-2.57V-9.8Zm2.515-2.264a.965.965,0,0,0,.15.537.774.774,0,0,0,.441.319,1.024,1.024,0,0,0,.517.037.846.846,0,0,0,.4-.2.863.863,0,0,0,.518-.351.828.828,0,0,0,.121-.618.837.837,0,0,0-.311-.57,1.079,1.079,0,0,0-.708-.223,1.325,1.325,0,0,0-.465.076,1.028,1.028,0,0,0-.351.214.975.975,0,0,0-.235.344,1.135,1.135,0,0,0-.082.437ZM51.055-1.05h1.932V-7.293a2.451,2.451,0,0,1,.3-.4,1.983,1.983,0,0,1,.368-.316,2.043,2.043,0,0,1,.558-.263,2.279,2.279,0,0,1,.663-.092,2.822,2.822,0,0,1,.76.092,1.352,1.352,0,0,1,.566.311,1.368,1.368,0,0,1,.356.582,2.9,2.9,0,0,1,.121.905V-1.05h1.932V-6.509a4.978,4.978,0,0,0-.218-1.572,2.864,2.864,0,0,0-.615-1.072,2.353,2.353,0,0,0-.954-.615,3.721,3.721,0,0,0-1.234-.194,3.2,3.2,0,0,0-.971.145,3.179,3.179,0,0,0-.849.412,3.416,3.416,0,0,0-.46.384,3.614,3.614,0,0,0-.392.465L52.8-9.8H51.055ZM61.439-9.8v1.609h2.693v5.54H61.439v1.6h7.217v-1.6H66.08V-9.8Zm2.515-2.264a.965.965,0,0,0,.15.537.774.774,0,0,0,.441.319,1.024,1.024,0,0,0,.518.04.847.847,0,0,0,.4-.2.863.863,0,0,0,.522-.353.828.828,0,0,0,.121-.618.837.837,0,0,0-.311-.57,1.079,1.079,0,0,0-.708-.223,1.325,1.325,0,0,0-.465.076,1.028,1.028,0,0,0-.351.214.975.975,0,0,0-.235.344,1.134,1.134,0,0,0-.086.435Zm10.857.13H72.874V-9.8H70.757v1.447h2.116v4.3A4.141,4.141,0,0,0,73.1-2.614a2.571,2.571,0,0,0,.62.982,2.412,2.412,0,0,0,.95.57,3.882,3.882,0,0,0,1.217.184q.368,0,.736-.037t.708-.1a5.6,5.6,0,0,0,.635-.157,2.26,2.26,0,0,0,.505-.223L78.257-2.73l-.36.076q-.214.044-.46.076t-.517.064q-.267.024-.517.024a2.382,2.382,0,0,1-.639-.081,1.2,1.2,0,0,1-.5-.276,1.216,1.216,0,0,1-.328-.513,2.433,2.433,0,0,1-.117-.812V-8.353H78.11V-9.8h-3.3ZM98.974-7.592a7.21,7.21,0,0,0-.23-2.116,4.74,4.74,0,0,0-.78-1.633,3.672,3.672,0,0,0-1.3-1.052,3.939,3.939,0,0,0-1.739-.368,4.038,4.038,0,0,0-1.94.473,4.839,4.839,0,0,0-1.528,1.3A6.637,6.637,0,0,0,90.415-9a8.6,8.6,0,0,0-.432,2.422,8.627,8.627,0,0,0,.211,2.3,4.735,4.735,0,0,0,.8,1.76,3.665,3.665,0,0,0,1.4,1.136,4.773,4.773,0,0,0,2.042.4A4.6,4.6,0,0,0,95-1.022a4.031,4.031,0,0,0,.586-.117,3.763,3.763,0,0,0,.558-.184,2.382,2.382,0,0,0,.478-.267l-.259-1.027a2.924,2.924,0,0,1-.412.19q-.226.085-.469.15a5.009,5.009,0,0,1-.517.1,3.6,3.6,0,0,1-.5.037,3.551,3.551,0,0,1-1.472-.287,2.6,2.6,0,0,1-1.047-.853,3.741,3.741,0,0,1-.606-1.387,7.29,7.29,0,0,1-.154-1.92,7.835,7.835,0,0,1,.316-2.05,5.153,5.153,0,0,1,.785-1.606,3.47,3.47,0,0,1,1.128-1.012,2.966,2.966,0,0,1,1.459-.36,3.227,3.227,0,0,1,1.33.259,2.462,2.462,0,0,1,.966.768,3.4,3.4,0,0,1,.574,1.27A6.567,6.567,0,0,1,97.9-7.553,8.578,8.578,0,0,1,97.826-6.4a4.294,4.294,0,0,1-.218.92,1.829,1.829,0,0,1-.336.611.583.583,0,0,1-.441.223.782.782,0,0,1-.2-.024.282.282,0,0,1-.157-.113.568.568,0,0,1-.1-.25,1.79,1.79,0,0,1-.017-.437l.356-4.181a2.08,2.08,0,0,0-.618-.465,2.116,2.116,0,0,0-.974-.2,2.238,2.238,0,0,0-1.084.263,2.621,2.621,0,0,0-.849.748,4.042,4.042,0,0,0-.591,1.177,7.129,7.129,0,0,0-.307,1.549A5.11,5.11,0,0,0,92.3-5.356a2.828,2.828,0,0,0,.291.942,1.517,1.517,0,0,0,.537.618,1.419,1.419,0,0,0,.78.214,1.538,1.538,0,0,0,.49-.076,1.606,1.606,0,0,0,.432-.223,2.346,2.346,0,0,0,.291-.255,2.184,2.184,0,0,0,.25-.311,1.556,1.556,0,0,0,.178.324,1.542,1.542,0,0,0,.235.259,1.148,1.148,0,0,0,.388.218,1.5,1.5,0,0,0,.478.073,1.583,1.583,0,0,0,1.047-.36,2.721,2.721,0,0,0,.708-.934,5.279,5.279,0,0,0,.412-1.294,9.311,9.311,0,0,0,.159-1.432ZM93.508-6.579a6.558,6.558,0,0,1,.184-1.1,3.113,3.113,0,0,1,.331-.812A1.436,1.436,0,0,1,94.516-9a1.3,1.3,0,0,1,.679-.174,1.02,1.02,0,0,1,.19.017.92.92,0,0,1,.15.04l-.307,3.575-.008.1a1.38,1.38,0,0,1-.162.255,1.748,1.748,0,0,1-.178.19.858.858,0,0,1-.311.184,1.13,1.13,0,0,1-.344.052.542.542,0,0,1-.344-.117.788.788,0,0,1-.238-.36,2.208,2.208,0,0,1-.125-.566,4.749,4.749,0,0,1-.006-.774Zm12.829,5.53h1.975v-.137A3.214,3.214,0,0,1,108.066-2a6.051,6.051,0,0,1-.085-1.064v-3.89a2.99,2.99,0,0,0-.276-1.314,2.576,2.576,0,0,0-.76-.942,3.4,3.4,0,0,0-1.152-.562,5.22,5.22,0,0,0-1.435-.19,4.813,4.813,0,0,0-1.525.223,3.388,3.388,0,0,0-1.12.6,2.547,2.547,0,0,0-.711.858,2.314,2.314,0,0,0-.25,1.012h1.94a1.214,1.214,0,0,1,.092-.473.932.932,0,0,1,.287-.376,1.394,1.394,0,0,1,.489-.267,2.218,2.218,0,0,1,.691-.1,2.5,2.5,0,0,1,.772.109,1.637,1.637,0,0,1,.57.311,1.38,1.38,0,0,1,.336.478,1.552,1.552,0,0,1,.117.615v.591H104.64a7.347,7.347,0,0,0-1.694.178,3.864,3.864,0,0,0-1.258.518,2.434,2.434,0,0,0-.837.92,2.729,2.729,0,0,0-.287,1.273,2.447,2.447,0,0,0,.223,1.039,2.343,2.343,0,0,0,.627.821,2.892,2.892,0,0,0,.959.546,3.713,3.713,0,0,0,1.241.2,3.612,3.612,0,0,0,.785-.081,3.35,3.35,0,0,0,.679-.226,2.86,2.86,0,0,0,.57-.328,3.707,3.707,0,0,0,.46-.4q.04.25.092.481a1.511,1.511,0,0,0,.137.388Zm-2.349-1.391a2.024,2.024,0,0,1-.644-.092,1.354,1.354,0,0,1-.46-.255,1.055,1.055,0,0,1-.283-.392,1.269,1.269,0,0,1-.1-.5,1.4,1.4,0,0,1,.117-.582,1.16,1.16,0,0,1,.36-.444,1.943,1.943,0,0,1,.736-.336,4.469,4.469,0,0,1,1.092-.117h1.246v1.618a1.564,1.564,0,0,1-.3.4,2.2,2.2,0,0,1-.46.348,2.755,2.755,0,0,1-.594.25A2.484,2.484,0,0,1,103.988-2.441Zm10.581-9.494h-1.94V-9.8h-2.116v1.447h2.116v4.3a4.14,4.14,0,0,0,.223,1.439,2.571,2.571,0,0,0,.618.978,2.412,2.412,0,0,0,.95.57,3.882,3.882,0,0,0,1.217.184q.368,0,.736-.037t.708-.1a5.6,5.6,0,0,0,.635-.157,2.26,2.26,0,0,0,.505-.223l-.211-1.334-.36.076q-.214.044-.46.076t-.517.064q-.267.024-.517.024a2.382,2.382,0,0,1-.639-.081,1.2,1.2,0,0,1-.5-.276,1.216,1.216,0,0,1-.328-.513,2.432,2.432,0,0,1-.117-.812v-4.18h3.291V-9.8h-3.294Zm5.7,6.429v.17a5.471,5.471,0,0,0,.276,1.771,4.109,4.109,0,0,0,.8,1.407,3.61,3.61,0,0,0,1.278.938,4.18,4.18,0,0,0,1.722.34,4.131,4.131,0,0,0,1.71-.34,3.62,3.62,0,0,0,1.27-.935,4.182,4.182,0,0,0,.792-1.407,5.47,5.47,0,0,0,.276-1.771V-5.5a5.48,5.48,0,0,0-.276-1.767,4.176,4.176,0,0,0-.792-1.418,3.7,3.7,0,0,0-1.282-.938,4.151,4.151,0,0,0-1.719-.34,4.124,4.124,0,0,0-1.714.34,3.629,3.629,0,0,0-1.27.938,4.1,4.1,0,0,0-.8,1.411A5.481,5.481,0,0,0,120.273-5.506Zm1.932.17v-.17a4.727,4.727,0,0,1,.125-1.1,2.794,2.794,0,0,1,.392-.92,1.965,1.965,0,0,1,.659-.631,1.847,1.847,0,0,1,.95-.235,1.863,1.863,0,0,1,.959.235,2.041,2.041,0,0,1,.667.631,3.1,3.1,0,0,1,.38.92,4.585,4.585,0,0,1,.13,1.1v.17a4.8,4.8,0,0,1-.125,1.116,2.9,2.9,0,0,1-.384.92,1.915,1.915,0,0,1-.663.627,1.878,1.878,0,0,1-.946.23,1.912,1.912,0,0,1-.962-.23,1.916,1.916,0,0,1-.663-.627,2.794,2.794,0,0,1-.392-.92,4.8,4.8,0,0,1-.126-1.116ZM131.664-9.8h-1.682v8.75h1.779V-7.766a1.375,1.375,0,0,1,.109-.218.791.791,0,0,1,.142-.17.667.667,0,0,1,.255-.157,1.034,1.034,0,0,1,.344-.052.982.982,0,0,1,.319.049.636.636,0,0,1,.247.154.653.653,0,0,1,.157.287,1.6,1.6,0,0,1,.052.441V-1.05h1.748v-6.7a.872.872,0,0,1,.1-.247.73.73,0,0,1,.162-.19.766.766,0,0,1,.245-.136.973.973,0,0,1,.324-.049,1.056,1.056,0,0,1,.32.049.629.629,0,0,1,.255.154.756.756,0,0,1,.162.3,1.5,1.5,0,0,1,.057.441V-1.05h1.779V-7.414a4.273,4.273,0,0,0-.137-1.18,2.146,2.146,0,0,0-.4-.8,1.614,1.614,0,0,0-.611-.432,2.051,2.051,0,0,0-.772-.142,2.071,2.071,0,0,0-.594.081,1.808,1.808,0,0,0-.489.226,1.674,1.674,0,0,0-.316.276,2.329,2.329,0,0,0-.259.348,1.691,1.691,0,0,0-.194-.36,1.3,1.3,0,0,0-.259-.271,1.2,1.2,0,0,0-.444-.226,2.151,2.151,0,0,0-.582-.073,1.848,1.848,0,0,0-1.064.3,2.024,2.024,0,0,0-.691.828Zm9.284,0v1.609h2.7v5.54h-2.7v1.6h7.214v-1.6H145.59V-9.8Zm2.515-2.264a.965.965,0,0,0,.15.537.774.774,0,0,0,.441.319,1.024,1.024,0,0,0,.518.04.846.846,0,0,0,.4-.2.863.863,0,0,0,.518-.351.828.828,0,0,0,.121-.618.837.837,0,0,0-.311-.57,1.079,1.079,0,0,0-.708-.223,1.325,1.325,0,0,0-.465.076,1.028,1.028,0,0,0-.352.214.976.976,0,0,0-.235.344,1.135,1.135,0,0,0-.086.433Zm10.788,9.623a1.932,1.932,0,0,1-1.012-.243,1.792,1.792,0,0,1-.639-.644,2.651,2.651,0,0,1-.344-.9,5.409,5.409,0,0,1-.1-1.047v-.282a5.307,5.307,0,0,1,.1-1.035,2.637,2.637,0,0,1,.351-.905,1.858,1.858,0,0,1,.635-.644,1.889,1.889,0,0,1,1.007-.247,1.974,1.974,0,0,1,.736.137,1.883,1.883,0,0,1,.594.368,1.656,1.656,0,0,1,.376.552,1.7,1.7,0,0,1,.133.671h1.82A3.147,3.147,0,0,0,157.646-8a3.072,3.072,0,0,0-.756-1.043,3.461,3.461,0,0,0-1.16-.679,4.311,4.311,0,0,0-1.472-.243,4.13,4.13,0,0,0-1.759.351,3.668,3.668,0,0,0-1.265.95,4,4,0,0,0-.765,1.4,5.569,5.569,0,0,0-.255,1.7v.279a5.477,5.477,0,0,0,.259,1.7,4.062,4.062,0,0,0,.768,1.395,3.589,3.589,0,0,0,1.268.951,4.151,4.151,0,0,0,1.767.351,4.043,4.043,0,0,0,1.387-.238,3.908,3.908,0,0,0,1.169-.659,3.055,3.055,0,0,0,.8-.966,2.476,2.476,0,0,0,.287-1.2h-1.82a1.248,1.248,0,0,1-.15.606,1.577,1.577,0,0,1-.4.478,1.921,1.921,0,0,1-.594.311,2.247,2.247,0,0,1-.7.11Zm5.771-3.065v.17a5.471,5.471,0,0,0,.276,1.771,4.11,4.11,0,0,0,.8,1.407,3.61,3.61,0,0,0,1.278.938,4.18,4.18,0,0,0,1.722.34,4.131,4.131,0,0,0,1.71-.34,3.62,3.62,0,0,0,1.273-.938,4.182,4.182,0,0,0,.792-1.407,5.471,5.471,0,0,0,.276-1.771v-.17a5.481,5.481,0,0,0-.276-1.767,4.176,4.176,0,0,0-.792-1.411,3.7,3.7,0,0,0-1.282-.939,4.151,4.151,0,0,0-1.719-.34,4.124,4.124,0,0,0-1.714.34,3.629,3.629,0,0,0-1.27.939,4.1,4.1,0,0,0-.8,1.411,5.481,5.481,0,0,0-.276,1.767Zm1.932.17v-.17a4.727,4.727,0,0,1,.125-1.1,2.794,2.794,0,0,1,.392-.92,1.965,1.965,0,0,1,.659-.631,1.847,1.847,0,0,1,.95-.235,1.863,1.863,0,0,1,.959.235,2.041,2.041,0,0,1,.667.631,3.1,3.1,0,0,1,.38.92,4.586,4.586,0,0,1,.13,1.1v.17a4.8,4.8,0,0,1-.125,1.116,2.9,2.9,0,0,1-.384.92,1.916,1.916,0,0,1-.663.627,1.878,1.878,0,0,1-.946.23,1.912,1.912,0,0,1-.962-.23,1.916,1.916,0,0,1-.663-.627,2.794,2.794,0,0,1-.392-.92,4.8,4.8,0,0,1-.126-1.116Z" transform="translate(26.459 13.137)" fill="#2befb3"/><path d="M5.15-2.2a1.932,1.932,0,0,1-1.012-.243A1.792,1.792,0,0,1,3.5-3.092a2.651,2.651,0,0,1-.344-.9,5.409,5.409,0,0,1-.1-1.053v-.276a5.306,5.306,0,0,1,.1-1.035,2.637,2.637,0,0,1,.351-.905,1.858,1.858,0,0,1,.635-.644,1.889,1.889,0,0,1,1-.249,1.974,1.974,0,0,1,.736.137,1.883,1.883,0,0,1,.594.368,1.656,1.656,0,0,1,.376.552,1.7,1.7,0,0,1,.133.671H8.815a3.147,3.147,0,0,0-.26-1.332A3.072,3.072,0,0,0,7.8-8.8a3.461,3.461,0,0,0-1.16-.679,4.311,4.311,0,0,0-1.472-.243A4.13,4.13,0,0,0,3.41-9.37a3.668,3.668,0,0,0-1.266.947,4,4,0,0,0-.766,1.4,5.568,5.568,0,0,0-.253,1.7v.276a5.476,5.476,0,0,0,.259,1.7,4.062,4.062,0,0,0,.768,1.4A3.588,3.588,0,0,0,3.41-1a4.151,4.151,0,0,0,1.767.351A4.043,4.043,0,0,0,6.564-.883a3.908,3.908,0,0,0,1.169-.659,3.055,3.055,0,0,0,.8-.966,2.476,2.476,0,0,0,.287-1.2H7a1.249,1.249,0,0,1-.15.606,1.577,1.577,0,0,1-.4.478,1.921,1.921,0,0,1-.594.311,2.247,2.247,0,0,1-.7.109Zm8.774.226a1.31,1.31,0,0,0,.368.942,1.36,1.36,0,0,0,1.031.384,1.385,1.385,0,0,0,1.031-.38,1.288,1.288,0,0,0,.376-.946,1.341,1.341,0,0,0-.368-.959,1.358,1.358,0,0,0-1.035-.392,1.332,1.332,0,0,0-1.039.4,1.37,1.37,0,0,0-.363.954Zm0-6.849a1.31,1.31,0,0,0,.368.942,1.36,1.36,0,0,0,1.031.384,1.385,1.385,0,0,0,1.031-.38,1.288,1.288,0,0,0,.376-.946,1.341,1.341,0,0,0-.368-.959,1.358,1.358,0,0,0-1.035-.392,1.332,1.332,0,0,0-1.039.4,1.37,1.37,0,0,0-.363.954Z" transform="translate(-1.125 12.901)" fill="#2befb3" opacity="0.5"/></g><g transform="translate(262.688 5.997)"><g transform="translate(40.946 0) rotate(45)" opacity="0.5"><rect width="11.041" height="1.84" rx="0.92" transform="translate(0 4.6)" fill="#fff"/><rect width="11.041" height="1.84" rx="0.92" transform="translate(6.441 0) rotate(90)" fill="#fff"/></g><g transform="translate(18.402 3.204)" fill="none" stroke="#fff" stroke-width="2" opacity="0.5"><rect width="9.201" height="9.201" rx="2" stroke="none"/><rect x="1" y="1" width="7.201" height="7.201" rx="1" fill="none"/></g><rect width="11.041" height="1.84" rx="0.92" transform="translate(0 6.885)" fill="#fff" opacity="0.5"/></g></g></g></svg>