<svg xmlns="http://www.w3.org/2000/svg" width="420" height="45" viewBox="0 0 420 45"><rect width="420" height="45" rx="5" fill="#1db0f2"/><g transform="translate(40 14)"><path d="M16.053,49.544a6.862,6.862,0,0,1-1.9.52A3.273,3.273,0,0,0,15.6,48.245a6.577,6.577,0,0,1-2.087.8A3.291,3.291,0,0,0,7.82,51.3a3.389,3.389,0,0,0,.076.75A9.315,9.315,0,0,1,1.118,48.6,3.292,3.292,0,0,0,2.129,53a3.25,3.25,0,0,1-1.487-.4v.036a3.306,3.306,0,0,0,2.637,3.234,3.285,3.285,0,0,1-.863.108,2.91,2.91,0,0,1-.623-.056A3.322,3.322,0,0,0,4.868,58.21a6.613,6.613,0,0,1-4.081,1.4A6.163,6.163,0,0,1,0,59.567a9.265,9.265,0,0,0,5.049,1.477,9.3,9.3,0,0,0,9.367-9.365c0-.145,0-.286-.012-.425a6.565,6.565,0,0,0,1.649-1.71Z" transform="translate(0 -44.696)" fill="#fff"/><path d="M.384-7.02H2.616V0H4.3V-7.02H6.528V-8.376H.384ZM10.164,0h1.824L13.2-4.644,14.412,0h1.812l1.944-6.648H16.56L15.384-1.6,14.136-6.648H12.36L11.088-1.584,9.912-6.648h-1.7ZM20.28,0h1.68V-6.648H20.28Zm.852-7.44a.992.992,0,0,0,1.032-.984.992.992,0,0,0-1.032-.984.985.985,0,0,0-1.032.984A.985.985,0,0,0,21.132-7.44ZM25.08-2.064C25.08-.54,25.932,0,27.2,0H28.26V-1.416h-.78c-.528,0-.708-.192-.708-.636V-5.268H28.26v-1.38H26.772V-8.292H25.08v1.644h-.792v1.38h.792Zm5.856,0C30.936-.54,31.788,0,33.06,0h1.056V-1.416h-.78c-.528,0-.708-.192-.708-.636V-5.268h1.488v-1.38H32.628V-8.292H30.936v1.644h-.792v1.38h.792Zm8.448-3.312a1.477,1.477,0,0,1,1.584,1.428H37.812A1.544,1.544,0,0,1,39.384-5.376ZM42.54-2.088H40.728a1.37,1.37,0,0,1-1.332.8A1.555,1.555,0,0,1,37.8-2.82h4.86a3.926,3.926,0,0,0,.048-.648,3.121,3.121,0,0,0-3.276-3.288A3.194,3.194,0,0,0,36.1-3.324,3.22,3.22,0,0,0,39.432.108,3.09,3.09,0,0,0,42.54-2.088Zm4.272-1.224c0-1.284.6-1.668,1.6-1.668h.444V-6.744a2.306,2.306,0,0,0-2.04,1.128V-6.648h-1.68V0h1.68Z" transform="translate(34 13)" fill="#fff"/></g><g transform="translate(-209 -301)" opacity="0.5"><rect width="80" height="2" rx="1" transform="translate(519 323)" fill="#fff"/><path d="M34.707-822.737a1,1,0,0,1,0-1.414l6.364-6.364-6.363-6.364a1,1,0,0,1,0-1.415,1,1,0,0,1,1.414,0l7.071,7.071a1,1,0,0,1,0,1.415l-7.071,7.07a1,1,0,0,1-.707.293A1,1,0,0,1,34.707-822.737Z" transform="translate(555.514 1154.515)" fill="#fff"/></g></svg>