<svg xmlns="http://www.w3.org/2000/svg" width="204" height="45" viewBox="0 0 204 45"><g transform="translate(28 -140.5)"><g transform="translate(-198 -94.5)"><rect width="204" height="45" rx="5" transform="translate(170 235)" fill="#0b8"/><g transform="translate(165.38 249.5)"><path d="M3.9-8.424H.744V0H3.9A4.075,4.075,0,0,0,8.316-4.212,4.069,4.069,0,0,0,3.9-8.424ZM2.8-1.776v-4.9h.972a2.253,2.253,0,0,1,2.46,2.46,2.235,2.235,0,0,1-2.46,2.436ZM17.22-3.348a3.3,3.3,0,0,0-3.48-3.444,3.31,3.31,0,0,0-3.48,3.444A3.284,3.284,0,0,0,13.716.1,3.322,3.322,0,0,0,17.22-3.348Zm-4.872,0c0-1.14.648-1.668,1.392-1.668.72,0,1.392.528,1.392,1.668A1.466,1.466,0,0,1,13.716-1.68C12.972-1.68,12.348-2.22,12.348-3.348Zm6.756,0A3.21,3.21,0,0,0,22.464.1a3.109,3.109,0,0,0,3.216-2.52H23.5a1.042,1.042,0,0,1-1.068.768c-.732,0-1.236-.576-1.236-1.692s.5-1.692,1.236-1.692a1.058,1.058,0,0,1,1.068.768H25.68a3.067,3.067,0,0,0-3.216-2.52A3.216,3.216,0,0,0,19.1-3.348ZM34.584-6.7H32.532V-3.06a1.247,1.247,0,0,1-1.3,1.416A1.25,1.25,0,0,1,29.952-3.06V-6.7h-2.04v3.912A2.548,2.548,0,0,0,30.5.072a2.44,2.44,0,0,0,2.028-.984V0h2.052ZM46.488,0h2.04V-3.912A2.584,2.584,0,0,0,45.8-6.768,2.693,2.693,0,0,0,43.548-5.52a2.5,2.5,0,0,0-2.28-1.248,2.362,2.362,0,0,0-1.956.912V-6.7H37.26V0h2.052V-3.636A1.213,1.213,0,0,1,40.6-4.992,1.213,1.213,0,0,1,41.88-3.636V0h2.04V-3.636A1.213,1.213,0,0,1,45.2-4.992a1.213,1.213,0,0,1,1.284,1.356ZM54.12-5.148A1.158,1.158,0,0,1,55.38-4H52.812A1.269,1.269,0,0,1,54.12-5.148Zm3.2,2.928H55.14a1.091,1.091,0,0,1-1.068.648A1.241,1.241,0,0,1,52.8-2.856h4.644a5.186,5.186,0,0,0,.036-.6,3.155,3.155,0,0,0-3.336-3.336A3.216,3.216,0,0,0,50.76-3.348,3.228,3.228,0,0,0,54.144.1,3.129,3.129,0,0,0,57.324-2.22ZM64.38,0h2.04V-3.912a2.533,2.533,0,0,0-2.58-2.856,2.455,2.455,0,0,0-2.028.96V-6.7H59.76V0h2.052V-3.636A1.244,1.244,0,0,1,63.1-5.052,1.244,1.244,0,0,1,64.38-3.636Zm4.992-2.328A2.068,2.068,0,0,0,71.736,0H72.78V-1.74h-.732c-.456,0-.624-.168-.624-.564V-4.992h1.344V-6.7H71.424V-8.328H69.372V-6.7h-.816v1.7h.816Zm5.34-1.032C74.712-1.248,76.02.1,77.652.1A2.368,2.368,0,0,0,79.728-.948V0H81.78V-6.7H79.728v.948a2.331,2.331,0,0,0-2.064-1.044C76.02-6.792,74.712-5.472,74.712-3.36Zm5.016.012a1.5,1.5,0,0,1-1.464,1.656A1.513,1.513,0,0,1,76.8-3.36,1.491,1.491,0,0,1,78.264-5,1.5,1.5,0,0,1,79.728-3.348Zm5.064,1.02A2.068,2.068,0,0,0,87.156,0H88.2V-1.74h-.732c-.456,0-.624-.168-.624-.564V-4.992h1.344V-6.7H86.844V-8.328H84.792V-6.7h-.816v1.7h.816ZM90.54,0h2.052V-6.7H90.54Zm1.032-7.392a1.13,1.13,0,0,0,1.212-1.1,1.132,1.132,0,0,0-1.212-1.116A1.135,1.135,0,0,0,90.348-8.5,1.133,1.133,0,0,0,91.572-7.392Zm10.26,4.044a3.3,3.3,0,0,0-3.48-3.444,3.31,3.31,0,0,0-3.48,3.444A3.284,3.284,0,0,0,98.328.1,3.322,3.322,0,0,0,101.832-3.348Zm-4.872,0c0-1.14.648-1.668,1.392-1.668.72,0,1.392.528,1.392,1.668A1.466,1.466,0,0,1,98.328-1.68C97.584-1.68,96.96-2.22,96.96-3.348ZM108.744,0h2.04V-3.912a2.533,2.533,0,0,0-2.58-2.856,2.455,2.455,0,0,0-2.028.96V-6.7h-2.052V0h2.052V-3.636a1.244,1.244,0,0,1,1.284-1.416,1.244,1.244,0,0,1,1.284,1.416Z" transform="translate(60.817 12.5)" fill="#fff"/><g transform="translate(44.62)"><path d="M55.631,0H54.253V4.662c0,.328-.331.489-.588.078l-.91-1.456-.91,1.456c-.258.409-.588.249-.588-.078V0H46.64a2.025,2.025,0,0,0-2.02,2.025V13.98A2.025,2.025,0,0,0,46.64,16h8.993a.932.932,0,0,0,.928-.928V.93a.932.932,0,0,0-.93-.93ZM55.8,13.6l-8.774.011a.384.384,0,0,0,0,.766H55.8v.706a.155.155,0,0,1-.158.158h-9a1.251,1.251,0,1,1,0-2.5h9a.162.162,0,0,1,.16.16Z" transform="translate(-47.62)" fill="#fff"/></g></g></g></g></svg>