<svg xmlns="http://www.w3.org/2000/svg" width="204" height="45" viewBox="0 0 204 45">
  <g id="link-to-github" transform="translate(28 -145.5)">
    <g id="doc-1_1_" data-name="doc-1 (1)" transform="translate(-198 -94.5)">
      <rect id="Rectangle_136" data-name="Rectangle 136" width="204" height="45" rx="5" transform="translate(170 240)" fill="#231f20"/>
      <g id="Group_37" data-name="Group 37" transform="translate(192.38 233.5)">
        <path id="Path_116" data-name="Path 116" d="M4.68-8.52A4.111,4.111,0,0,0,.4-4.224,4.111,4.111,0,0,0,4.692.06a4.125,4.125,0,0,0,4.056-2.9V-4.752H4.284V-3.24h2.6a2.018,2.018,0,0,1-2.04,1.488A2.22,2.22,0,0,1,2.484-4.224a2.163,2.163,0,0,1,2.2-2.4,1.764,1.764,0,0,1,1.656.864H8.6A3.739,3.739,0,0,0,4.68-8.52ZM11.088,0H13.14V-6.7H11.088ZM12.12-7.392a1.13,1.13,0,0,0,1.212-1.1A1.132,1.132,0,0,0,12.12-9.612,1.135,1.135,0,0,0,10.9-8.5,1.133,1.133,0,0,0,12.12-7.392Zm4.032,5.064A2.068,2.068,0,0,0,18.516,0H19.56V-1.74h-.732c-.456,0-.624-.168-.624-.564V-4.992h1.344V-6.7H18.2V-8.328H16.152V-6.7h-.816v1.7h.816ZM21.9,0h2.052V-3.636a1.244,1.244,0,0,1,1.284-1.416A1.244,1.244,0,0,1,26.52-3.636V0h2.04V-3.912c0-1.8-1.02-2.856-2.544-2.856a2.469,2.469,0,0,0-2.064.972V-8.88H21.9ZM37.8-6.7H35.748V-3.06a1.247,1.247,0,0,1-1.3,1.416A1.25,1.25,0,0,1,33.168-3.06V-6.7h-2.04v3.912A2.548,2.548,0,0,0,33.72.072a2.44,2.44,0,0,0,2.028-.984V0H37.8Zm4.728.948V-8.88H40.476V0h2.052V-.936A2.353,2.353,0,0,0,44.592.1c1.644,0,2.952-1.344,2.952-3.456s-1.3-3.432-2.952-3.432A2.364,2.364,0,0,0,42.528-5.748ZM45.456-3.36A1.514,1.514,0,0,1,43.98-1.692a1.5,1.5,0,0,1-1.464-1.656A1.5,1.5,0,0,1,43.98-5,1.493,1.493,0,0,1,45.456-3.36Z" transform="translate(69.73 34.5)" fill="#fff"/>
        <g id="Group_42" data-name="Group 42" transform="translate(41.62 51.275)">
          <path id="Path_115" data-name="Path 115" d="M10.252-31.775A10.253,10.253,0,0,0,0-21.522a10.256,10.256,0,0,0,7.012,9.729c.513.094.7-.223.7-.495,0-.243-.009-.888-.014-1.744-2.852.619-3.454-1.375-3.454-1.375a2.716,2.716,0,0,0-1.139-1.5c-.931-.636.07-.623.07-.623a2.153,2.153,0,0,1,1.57,1.057,2.183,2.183,0,0,0,2.984.852,2.188,2.188,0,0,1,.651-1.37c-2.277-.259-4.67-1.139-4.67-5.068a3.964,3.964,0,0,1,1.056-2.751,3.686,3.686,0,0,1,.1-2.713s.861-.276,2.82,1.051a9.793,9.793,0,0,1,2.567-.345,9.808,9.808,0,0,1,2.567.345c1.958-1.327,2.817-1.051,2.817-1.051a3.68,3.68,0,0,1,.1,2.713,3.957,3.957,0,0,1,1.054,2.751c0,3.939-2.4,4.806-4.682,5.059a2.447,2.447,0,0,1,.7,1.9c0,1.37-.013,2.476-.013,2.812,0,.274.184.594.7.493a10.257,10.257,0,0,0,7.006-9.728A10.254,10.254,0,0,0,10.252-31.775" transform="translate(0 0)" fill="#fff" fill-rule="evenodd"/>
        </g>
      </g>
    </g>
  </g>
</svg>
