<svg xmlns="http://www.w3.org/2000/svg" width="420" height="45" viewBox="0 0 420 45"><rect width="420" height="45" rx="5" fill="#0b8"/><g transform="translate(40 14)"><g transform="translate(0 0.5)"><path d="M55.631,0H54.253V4.662c0,.328-.331.489-.588.078l-.91-1.456-.91,1.456c-.258.409-.588.249-.588-.078V0H46.64a2.025,2.025,0,0,0-2.02,2.025V13.98A2.025,2.025,0,0,0,46.64,16h8.993a.932.932,0,0,0,.928-.928V.93a.932.932,0,0,0-.93-.93ZM55.8,13.6l-8.774.011a.384.384,0,0,0,0,.766H55.8v.706a.155.155,0,0,1-.158.158h-9a1.251,1.251,0,1,1,0-2.5h9a.162.162,0,0,1,.16.16Z" transform="translate(-40.62)" fill="#fff"/></g><path d="M3.756-8.376H.828V0H3.756C6.432,0,8.172-1.644,8.172-4.176S6.432-8.376,3.756-8.376ZM2.508-1.428V-6.96H3.7a2.532,2.532,0,0,1,2.76,2.784A2.505,2.505,0,0,1,3.7-1.428Zm14.544-1.9a3.285,3.285,0,0,0-3.42-3.432,3.285,3.285,0,0,0-3.42,3.432A3.254,3.254,0,0,0,13.584.108,3.324,3.324,0,0,0,17.052-3.324Zm-5.136,0a1.73,1.73,0,0,1,1.692-1.968,1.747,1.747,0,0,1,1.716,1.968,1.77,1.77,0,0,1-1.74,1.968C12.684-1.356,11.916-2,11.916-3.324Zm7.14,0A3.189,3.189,0,0,0,22.344.108a3.032,3.032,0,0,0,3.132-2.352H23.664a1.268,1.268,0,0,1-1.332.912c-.936,0-1.56-.7-1.56-1.992s.624-2,1.56-2a1.306,1.306,0,0,1,1.332.924h1.812a2.966,2.966,0,0,0-3.132-2.352A3.189,3.189,0,0,0,19.056-3.324ZM34.188-6.648H32.5v3.66c0,1.068-.576,1.644-1.488,1.644a1.438,1.438,0,0,1-1.476-1.644v-3.66h-1.68v3.9A2.562,2.562,0,0,0,30.516.084,2.452,2.452,0,0,0,32.5-.84V0h1.692ZM46.344,0h1.68V-3.9A2.586,2.586,0,0,0,45.3-6.744a2.632,2.632,0,0,0-2.28,1.272,2.545,2.545,0,0,0-2.34-1.272,2.421,2.421,0,0,0-1.956.9v-.8h-1.68V0h1.68V-3.672a1.42,1.42,0,0,1,1.5-1.608A1.414,1.414,0,0,1,41.7-3.672V0h1.68V-3.672A1.417,1.417,0,0,1,44.868-5.28a1.414,1.414,0,0,1,1.476,1.608Zm7.332-5.376A1.477,1.477,0,0,1,55.26-3.948H52.1A1.544,1.544,0,0,1,53.676-5.376Zm3.156,3.288H55.02a1.37,1.37,0,0,1-1.332.8,1.555,1.555,0,0,1-1.6-1.536h4.86A3.927,3.927,0,0,0,57-3.468a3.121,3.121,0,0,0-3.276-3.288,3.194,3.194,0,0,0-3.336,3.432A3.22,3.22,0,0,0,53.724.108,3.09,3.09,0,0,0,56.832-2.088ZM64.08,0h1.68V-3.9a2.557,2.557,0,0,0-2.652-2.844,2.483,2.483,0,0,0-2,.924v-.828h-1.68V0H61.1V-3.672a1.443,1.443,0,0,1,1.5-1.644A1.438,1.438,0,0,1,64.08-3.672Zm4.74-2.064C68.82-.54,69.672,0,70.944,0H72V-1.416h-.78c-.528,0-.708-.192-.708-.636V-5.268H72v-1.38H70.512V-8.292H68.82v1.644h-.792v1.38h.792Zm5.16-1.284A3.155,3.155,0,0,0,77,.108a2.622,2.622,0,0,0,2.208-1.08V0H80.9V-6.648H79.212V-5.7a2.629,2.629,0,0,0-2.2-1.056A3.113,3.113,0,0,0,73.98-3.348Zm5.232.024a1.79,1.79,0,0,1-1.764,1.956A1.817,1.817,0,0,1,75.7-3.348,1.773,1.773,0,0,1,77.448-5.28,1.79,1.79,0,0,1,79.212-3.324Zm4.8,1.26C84.012-.54,84.864,0,86.136,0h1.056V-1.416h-.78c-.528,0-.708-.192-.708-.636V-5.268h1.488v-1.38H85.7V-8.292H84.012v1.644H83.22v1.38h.792ZM89.6,0h1.68V-6.648H89.6Zm.852-7.44a.992.992,0,0,0,1.032-.984.992.992,0,0,0-1.032-.984.985.985,0,0,0-1.032.984A.985.985,0,0,0,90.456-7.44Zm10.1,4.116a3.285,3.285,0,0,0-3.42-3.432,3.285,3.285,0,0,0-3.42,3.432A3.254,3.254,0,0,0,97.092.108,3.324,3.324,0,0,0,100.56-3.324Zm-5.136,0a1.73,1.73,0,0,1,1.692-1.968,1.747,1.747,0,0,1,1.716,1.968,1.77,1.77,0,0,1-1.74,1.968C96.192-1.356,95.424-2,95.424-3.324ZM107.652,0h1.68V-3.9a2.557,2.557,0,0,0-2.652-2.844,2.483,2.483,0,0,0-2,.924v-.828H103V0h1.68V-3.672a1.443,1.443,0,0,1,1.5-1.644,1.438,1.438,0,0,1,1.476,1.644Z" transform="translate(34 13)" fill="#fff"/><g transform="translate(-249 -315.5)" opacity="0.5"><rect width="80" height="2" rx="1" transform="translate(519 323)" fill="#fff"/><path d="M34.707-822.737a1,1,0,0,1,0-1.414l6.364-6.364-6.363-6.364a1,1,0,0,1,0-1.415,1,1,0,0,1,1.414,0l7.071,7.071a1,1,0,0,1,0,1.415l-7.071,7.07a1,1,0,0,1-.707.293A1,1,0,0,1,34.707-822.737Z" transform="translate(555.514 1154.515)" fill="#fff"/></g></g></svg>