<svg xmlns="http://www.w3.org/2000/svg" width="204" height="45" viewBox="0 0 204 45"><g transform="translate(28 -140.5)"><g transform="translate(-198 -94.5)"><rect width="204" height="45" rx="5" transform="translate(170 235)" fill="#1e1e1e"/><g transform="translate(197.38 249.5)"><path d="M.744,0H2.8V-3.408H5.364V-5H2.8V-6.78H6.228V-8.424H.744ZM8.508,0H10.56V-6.7H8.508ZM9.54-7.392a1.13,1.13,0,0,0,1.212-1.1A1.132,1.132,0,0,0,9.54-9.612,1.135,1.135,0,0,0,8.316-8.5,1.133,1.133,0,0,0,9.54-7.392Zm3.3,4.032C12.84-1.248,14.148.1,15.792.1A2.368,2.368,0,0,0,17.856-.96v.948c0,1.128-.612,1.536-1.392,1.536A1.263,1.263,0,0,1,15.12.7H13.092c.18,1.6,1.476,2.6,3.468,2.6A3.087,3.087,0,0,0,19.908-.012V-6.7H17.856v.948a2.32,2.32,0,0,0-2.064-1.044C14.148-6.792,12.84-5.472,12.84-3.36Zm5.016.012a1.5,1.5,0,0,1-1.464,1.656A1.513,1.513,0,0,1,14.928-3.36,1.491,1.491,0,0,1,16.392-5,1.5,1.5,0,0,1,17.856-3.348ZM31.824,0h2.04V-3.912A2.584,2.584,0,0,0,31.14-6.768,2.693,2.693,0,0,0,28.884-5.52,2.5,2.5,0,0,0,26.6-6.768a2.362,2.362,0,0,0-1.956.912V-6.7H22.6V0h2.052V-3.636a1.213,1.213,0,0,1,1.284-1.356,1.213,1.213,0,0,1,1.284,1.356V0h2.04V-3.636A1.213,1.213,0,0,1,30.54-4.992a1.213,1.213,0,0,1,1.284,1.356ZM36.1-3.36C36.1-1.248,37.4.1,39.036.1A2.368,2.368,0,0,0,41.112-.948V0h2.052V-6.7H41.112v.948a2.331,2.331,0,0,0-2.064-1.044C37.4-6.792,36.1-5.472,36.1-3.36Zm5.016.012a1.5,1.5,0,0,1-1.464,1.656A1.513,1.513,0,0,1,38.184-3.36,1.491,1.491,0,0,1,39.648-5,1.5,1.5,0,0,1,41.112-3.348Z" transform="translate(62.799 12.5)" fill="#fff"/><g transform="translate(41.62 -2.5)"><path d="M3.481,206.961a3.482,3.482,0,0,0,3.481-3.481V200H3.481a3.481,3.481,0,0,0,0,6.961Z" transform="translate(0 -186.077)" fill="#0acf83"/><path d="M0,103.481A3.482,3.482,0,0,1,3.481,100H6.961v6.961H3.481A3.482,3.482,0,0,1,0,103.481Z" transform="translate(0 -93.039)" fill="#a259ff"/><path d="M0,3.481A3.482,3.482,0,0,1,3.481,0H6.961V6.961H3.481A3.482,3.482,0,0,1,0,3.481Z" fill="#f24e1e"/><path d="M100,0h3.481a3.481,3.481,0,0,1,0,6.961H100Z" transform="translate(-93.039)" fill="#ff7262"/><path d="M106.961,103.481A3.481,3.481,0,1,1,103.481,100,3.482,3.482,0,0,1,106.961,103.481Z" transform="translate(-93.039 -93.039)" fill="#1abcfe"/></g></g></g></g></svg>