<svg xmlns="http://www.w3.org/2000/svg" width="204" height="45" viewBox="0 0 204 45"><g transform="translate(28 -145.5)"><g transform="translate(-198 -94.5)"><rect width="204" height="45" rx="5" transform="translate(170 240)" fill="#1db0f2"/><g transform="translate(193.38 230.5)"><path d="M.288-6.78H2.52V0H4.572V-6.78H6.8V-8.424H.288ZM10.164,0H12.42l1.092-4.344L14.568,0h2.268l1.812-6.7H16.716L15.78-1.932,14.64-6.7H12.468L11.34-1.908,10.392-6.7H8.34ZM20.628,0H22.68V-6.7H20.628ZM21.66-7.392a1.13,1.13,0,0,0,1.212-1.1A1.132,1.132,0,0,0,21.66-9.612,1.135,1.135,0,0,0,20.436-8.5,1.133,1.133,0,0,0,21.66-7.392Zm4.032,5.064A2.068,2.068,0,0,0,28.056,0H29.1V-1.74h-.732c-.456,0-.624-.168-.624-.564V-4.992h1.344V-6.7H27.744V-8.328H25.692V-6.7h-.816v1.7h.816Zm6.072,0A2.068,2.068,0,0,0,34.128,0h1.044V-1.74H34.44c-.456,0-.624-.168-.624-.564V-4.992H35.16V-6.7H33.816V-8.328H31.764V-6.7h-.816v1.7h.816Zm8.7-2.82A1.158,1.158,0,0,1,41.724-4H39.156A1.269,1.269,0,0,1,40.464-5.148Zm3.2,2.928H41.484a1.091,1.091,0,0,1-1.068.648,1.241,1.241,0,0,1-1.272-1.284h4.644a5.186,5.186,0,0,0,.036-.6,3.155,3.155,0,0,0-3.336-3.336A3.216,3.216,0,0,0,37.1-3.348,3.228,3.228,0,0,0,40.488.1,3.129,3.129,0,0,0,43.668-2.22Zm4.488-.888c0-1.152.564-1.488,1.536-1.488h.564V-6.768a2.5,2.5,0,0,0-2.1,1.188V-6.7H46.1V0h2.052Z" transform="translate(65.385 36.5)" fill="#fff"/><path d="M16.053,49.544a6.862,6.862,0,0,1-1.9.52A3.273,3.273,0,0,0,15.6,48.245a6.577,6.577,0,0,1-2.087.8A3.291,3.291,0,0,0,7.82,51.3a3.389,3.389,0,0,0,.076.75A9.315,9.315,0,0,1,1.118,48.6,3.292,3.292,0,0,0,2.129,53a3.25,3.25,0,0,1-1.487-.4v.036a3.306,3.306,0,0,0,2.637,3.234,3.285,3.285,0,0,1-.863.108,2.91,2.91,0,0,1-.623-.056A3.322,3.322,0,0,0,4.868,58.21a6.613,6.613,0,0,1-4.081,1.4A6.163,6.163,0,0,1,0,59.567a9.265,9.265,0,0,0,5.049,1.477,9.3,9.3,0,0,0,9.367-9.365c0-.145,0-.286-.012-.425a6.565,6.565,0,0,0,1.649-1.71Z" transform="translate(41.62 -22.503)" fill="#fff"/></g></g></g></svg>