<svg xmlns="http://www.w3.org/2000/svg" width="204" height="45" viewBox="0 0 204 45"><g transform="translate(-170 -235)"><rect width="204" height="45" rx="5" transform="translate(170 235)" fill="#404eed"/><g transform="translate(-4.999)"><path d="M3.9-8.424H.744V0H3.9A4.075,4.075,0,0,0,8.316-4.212,4.069,4.069,0,0,0,3.9-8.424ZM2.8-1.776v-4.9h.972a2.253,2.253,0,0,1,2.46,2.46,2.235,2.235,0,0,1-2.46,2.436ZM10.668,0H12.72V-6.7H10.668ZM11.7-7.392a1.13,1.13,0,0,0,1.212-1.1A1.132,1.132,0,0,0,11.7-9.612,1.135,1.135,0,0,0,10.476-8.5,1.133,1.133,0,0,0,11.7-7.392Zm9.144,5.448c-.036-2.5-3.66-1.74-3.66-2.808,0-.324.264-.516.744-.516a.883.883,0,0,1,.984.756h1.9a2.529,2.529,0,0,0-2.82-2.28c-1.752,0-2.724.936-2.724,2.076,0,2.46,3.648,1.68,3.648,2.76,0,.3-.276.54-.8.54a.94.94,0,0,1-1.032-.78H15.048C15.144-.9,16.344.1,18.132.1,19.812.1,20.844-.78,20.844-1.944Zm2.052-1.4A3.21,3.21,0,0,0,26.256.1a3.109,3.109,0,0,0,3.216-2.52H27.288a1.042,1.042,0,0,1-1.068.768c-.732,0-1.236-.576-1.236-1.692s.5-1.692,1.236-1.692a1.058,1.058,0,0,1,1.068.768h2.184a3.067,3.067,0,0,0-3.216-2.52A3.216,3.216,0,0,0,22.9-3.348Zm15.42,0a3.3,3.3,0,0,0-3.48-3.444,3.31,3.31,0,0,0-3.48,3.444A3.284,3.284,0,0,0,34.812.1,3.322,3.322,0,0,0,38.316-3.348Zm-4.872,0c0-1.14.648-1.668,1.392-1.668.72,0,1.392.528,1.392,1.668A1.466,1.466,0,0,1,34.812-1.68C34.068-1.68,33.444-2.22,33.444-3.348Zm9.216.24c0-1.152.564-1.488,1.536-1.488h.564V-6.768a2.5,2.5,0,0,0-2.1,1.188V-6.7H40.608V0H42.66Zm3.876-.252C46.536-1.248,47.844.1,49.488.1A2.316,2.316,0,0,0,51.552-.96V0H53.6V-8.88H51.552v3.108a2.458,2.458,0,0,0-2.064-1.02C47.844-6.792,46.536-5.472,46.536-3.36Zm5.016.012a1.5,1.5,0,0,1-1.464,1.656A1.513,1.513,0,0,1,48.624-3.36,1.491,1.491,0,0,1,50.088-5,1.5,1.5,0,0,1,51.552-3.348Z" transform="translate(264.566 262)" fill="#fff"/><path d="M-4385.25-947h0a6.923,6.923,0,0,1-5.751-2.682,22.571,22.571,0,0,1,2.774-10.432,9.546,9.546,0,0,1,5.285-1.886h.058l.208.2a11.045,11.045,0,0,0-4.934,2.284.725.725,0,0,0,.12-.054,17.456,17.456,0,0,1,7.427-1.664,17.715,17.715,0,0,1,7.764,1.816,12.67,12.67,0,0,0-4.726-2.284l.281-.272a9.439,9.439,0,0,1,5.264,1.872,22.673,22.673,0,0,1,2.79,10.43c-.037,0-.1.066-.206.172a7.8,7.8,0,0,1-5.739,2.394.05.05,0,0,1-.015-.015c-.225-.253-.792-.9-1.208-1.472a6.265,6.265,0,0,0,3.388-2.082,13,13,0,0,1-6.957,2.112,19.147,19.147,0,0,1-7.086-1.616.107.107,0,0,1-.084-.039l-.006-.013-.006-.006a.118.118,0,0,0-.085-.039h-.09c-.123-.078-.31-.191-.5-.291l-.01-.005a6.065,6.065,0,0,0,3.288,2.086c-.511.575-1.031,1.227-1.23,1.48l-.006.008Zm8.839-8.442v.006a1.974,1.974,0,0,0-1.947,1.986,1.971,1.971,0,0,0,1.953,1.983,1.973,1.973,0,0,0,1.95-1.991,1.968,1.968,0,0,0-.566-1.4,1.969,1.969,0,0,0-1.389-.587Zm-6.981,0h-.006a1.972,1.972,0,0,0-1.951,1.987,1.971,1.971,0,0,0,1.953,1.983,1.974,1.974,0,0,0,1.952-1.991,1.969,1.969,0,0,0-1.946-1.98Z" transform="translate(4626 1212)" fill="#fff"/></g></g></svg>