<svg xmlns="http://www.w3.org/2000/svg" width="420" height="45" viewBox="0 0 420 45"><rect width="420" height="45" rx="5" fill="#404eed"/><g transform="translate(40 15)"><path d="M-4385.25-947h0a6.923,6.923,0,0,1-5.751-2.682,22.571,22.571,0,0,1,2.774-10.432,9.546,9.546,0,0,1,5.285-1.886h.058l.208.2a11.045,11.045,0,0,0-4.934,2.284.725.725,0,0,0,.12-.054,17.456,17.456,0,0,1,7.427-1.664,17.715,17.715,0,0,1,7.764,1.816,12.67,12.67,0,0,0-4.726-2.284l.281-.272a9.439,9.439,0,0,1,5.264,1.872,22.673,22.673,0,0,1,2.79,10.43c-.037,0-.1.066-.206.172a7.8,7.8,0,0,1-5.739,2.394.05.05,0,0,1-.015-.015c-.225-.253-.792-.9-1.208-1.472a6.265,6.265,0,0,0,3.388-2.082,13,13,0,0,1-6.957,2.112,19.147,19.147,0,0,1-7.086-1.616.107.107,0,0,1-.084-.039l-.006-.013-.006-.006a.118.118,0,0,0-.085-.039h-.09c-.123-.078-.31-.191-.5-.291l-.01-.005a6.065,6.065,0,0,0,3.288,2.086c-.511.575-1.031,1.227-1.23,1.48l-.006.008Zm8.839-8.442v.006a1.974,1.974,0,0,0-1.947,1.986,1.971,1.971,0,0,0,1.953,1.983,1.973,1.973,0,0,0,1.95-1.991,1.968,1.968,0,0,0-.566-1.4,1.969,1.969,0,0,0-1.389-.587Zm-6.981,0h-.006a1.972,1.972,0,0,0-1.951,1.987,1.971,1.971,0,0,0,1.953,1.983,1.974,1.974,0,0,0,1.952-1.991,1.969,1.969,0,0,0-1.946-1.98Z" transform="translate(4391.001 962)" fill="#fff"/></g><g transform="translate(-209 -301.5)" opacity="0.5"><rect width="80" height="2" rx="1" transform="translate(519 323)" fill="#fff"/><path d="M34.707-822.737a1,1,0,0,1,0-1.414l6.364-6.364-6.363-6.364a1,1,0,0,1,0-1.415,1,1,0,0,1,1.414,0l7.071,7.071a1,1,0,0,1,0,1.415l-7.071,7.07a1,1,0,0,1-.707.293A1,1,0,0,1,34.707-822.737Z" transform="translate(555.514 1154.515)" fill="#fff"/></g><path d="M3.756-8.376H.828V0H3.756C6.432,0,8.172-1.644,8.172-4.176S6.432-8.376,3.756-8.376ZM2.508-1.428V-6.96H3.7a2.532,2.532,0,0,1,2.76,2.784A2.505,2.505,0,0,1,3.7-1.428ZM10.632,0h1.68V-6.648h-1.68Zm.852-7.44a.992.992,0,0,0,1.032-.984.992.992,0,0,0-1.032-.984.985.985,0,0,0-1.032.984A.985.985,0,0,0,11.484-7.44ZM20.328-1.9C20.28-4.332,16.6-3.576,16.6-4.788c0-.384.324-.636.948-.636a.99.99,0,0,1,1.116.864h1.608a2.382,2.382,0,0,0-2.676-2.2c-1.644,0-2.628.888-2.628,1.992,0,2.436,3.756,1.68,3.756,2.868,0,.384-.36.684-1.02.684A1.1,1.1,0,0,1,16.5-2.1H14.808C14.88-.864,16.044.108,17.712.108,19.332.108,20.328-.756,20.328-1.9Zm2.148-1.428A3.189,3.189,0,0,0,25.764.108,3.032,3.032,0,0,0,28.9-2.244H27.084a1.268,1.268,0,0,1-1.332.912c-.936,0-1.56-.7-1.56-1.992s.624-2,1.56-2a1.306,1.306,0,0,1,1.332.924H28.9a2.966,2.966,0,0,0-3.132-2.352A3.189,3.189,0,0,0,22.476-3.324Zm15.276,0a3.285,3.285,0,0,0-3.42-3.432,3.285,3.285,0,0,0-3.42,3.432A3.254,3.254,0,0,0,34.284.108,3.324,3.324,0,0,0,37.752-3.324Zm-5.136,0a1.73,1.73,0,0,1,1.692-1.968,1.747,1.747,0,0,1,1.716,1.968,1.77,1.77,0,0,1-1.74,1.968C33.384-1.356,32.616-2,32.616-3.324Zm9.252.012c0-1.284.6-1.668,1.6-1.668h.444V-6.744a2.306,2.306,0,0,0-2.04,1.128V-6.648h-1.68V0h1.68ZM45.8-3.348A3.156,3.156,0,0,0,48.84.108,2.513,2.513,0,0,0,51.024-.984V0h1.7V-8.88h-1.7v3.156a2.728,2.728,0,0,0-2.172-1.032A3.115,3.115,0,0,0,45.8-3.348Zm5.232.024a1.79,1.79,0,0,1-1.764,1.956,1.817,1.817,0,0,1-1.752-1.98A1.773,1.773,0,0,1,49.272-5.28,1.79,1.79,0,0,1,51.036-3.324Z" transform="translate(74 27)" fill="#fff"/></svg>