<svg xmlns="http://www.w3.org/2000/svg" width="661" height="115" viewBox="0 0 661 115"><g transform="translate(-76 -220)">
    <g transform="translate(-235 -56)"><g transform="translate(322.214 337.454) rotate(-45)">
    <path fill="#404040" d="M12.722,13.765a13.706,13.706,0,0,1-1.857-.127L2,4.779c.939.194,1.9.348,2.858.456l8.513,8.513C13.159,13.76,12.938,13.765,12.722,13.765Zm2.608-.251-8.1-8.1c.414.016.839.024,1.26.024.381,0,.766-.007,1.145-.02L17.219,13a13.625,13.625,0,0,1-1.89.511Zm-7.4-.618A13.483,13.483,0,0,1,3.111,9.785,13.49,13.49,0,0,1,0,4.968L7.927,12.9Zm10.835-.541L11.691,5.284c.706-.07,1.418-.166,2.119-.283l6.472,6.472a13.537,13.537,0,0,1-1.52.883Zm2.766-1.826-5.89-5.89c.636-.146,1.276-.313,1.9-.5l5.209,5.209c-.132.146-.274.293-.417.436-.258.258-.53.508-.8.743Zm2.207-2.384h0L19.193,3.6c.577-.206,1.159-.432,1.728-.674l3.744,3.743a13.559,13.559,0,0,1-.927,1.472ZM25.363,5.18h0L22.427,2.245c.53-.258,1.059-.535,1.577-.824l1.935,1.935a13.6,13.6,0,0,1-.574,1.825Zm.889-3.7h0l-.87-.87c.309-.194.624-.4.932-.606a13.73,13.73,0,0,1-.061,1.477Z" transform="translate(21.578 56.792)"/>
    <path fill="#404040" d="M30.219,60.437a30.44,30.44,0,0,1-6.091-.614,30.053,30.053,0,0,1-10.805-4.547A30.308,30.308,0,0,1,2.375,41.982,30.061,30.061,0,0,1,.614,36.31a30.521,30.521,0,0,1,0-12.19,30.051,30.051,0,0,1,4.545-10.8,30.309,30.309,0,0,1,13.3-10.948A30.066,30.066,0,0,1,24.128.614a30.487,30.487,0,0,1,13.333.26A30.125,30.125,0,0,1,49.84,7.237a30.43,30.43,0,0,1,4.722,5.076,19.087,19.087,0,0,0,0,35.815,30.36,30.36,0,0,1-10.489,8.955,30.083,30.083,0,0,1-13.854,3.355Z" transform="translate(0 0)"/>
    <path fill="#404040" d="M10,32.522H24.035a17.065,17.065,0,0,1-14.037,0Zm-3.255-1.94A17.131,17.131,0,0,1,4.42,28.457H29.612a17.131,17.131,0,0,1-2.323,2.126ZM2.9,26.517a17.012,17.012,0,0,1-1.221-2.126H32.354a17,17,0,0,1-1.221,2.126ZM.887,22.452a16.874,16.874,0,0,1-.565-2.126H33.71a16.885,16.885,0,0,1-.565,2.126ZM.054,18.387Q0,17.709,0,17.016q0-.38.016-.755h34q.016.375.016.755,0,.692-.054,1.371Zm.158-4.065A16.912,16.912,0,0,1,.692,12.2H33.339a16.924,16.924,0,0,1,.48,2.125ZM1.4,10.256A16.963,16.963,0,0,1,2.5,8.131H31.528a17,17,0,0,1,1.1,2.125ZM3.887,6.191A17.119,17.119,0,0,1,5.978,4.065H28.054a17.11,17.11,0,0,1,2.091,2.125ZM8.774,2.125a17.043,17.043,0,0,1,16.484,0Z" transform="translate(44.141 13.043)"/></g>
    <path fill="#404040" d="M28.232-46.336h4.619L20.775-79.678H15.723L3.6-46.336H8.217L10.91-53.8H25.538ZM24.287-57.354H12.163l6.062-16.936Zm14.819,3.8c0,5.292,2.648,7.217,7.313,7.217h3.945v-3.7H47.142c-2.693,0-3.657-.914-3.657-3.512v-15.54h6.88V-72.7H43.484v-6.64H39.106v6.64H35.69v3.608h3.416Zm41.569-6.014c0-8.323-5.822-13.568-13.327-13.568-7.46,0-13.327,5.244-13.327,13.568C54.021-51.2,59.7-45.9,67.155-45.9,74.661-45.9,80.675-51.2,80.675-59.567Zm-22.18,0c0-6.64,4.186-9.767,8.8-9.767,4.523,0,8.9,3.127,8.9,9.767,0,6.688-4.474,9.815-9.045,9.815s-8.66-3.127-8.66-9.815Zm66.01,13.231h4.33v-15.54c0-7.554-4.667-11.306-10.682-11.306a9.76,9.76,0,0,0-9.334,5.871c-1.732-3.945-5.341-5.871-9.671-5.871A9.532,9.532,0,0,0,90.826-68.9v-3.8H86.448v26.366h4.378v-14.53c0-5.677,3.031-8.516,7.46-8.516,4.33,0,7.217,2.742,7.217,8.131v14.915h4.33v-14.53c0-5.677,3.031-8.516,7.46-8.516,4.33,0,7.217,2.742,7.217,8.131Zm11.5,0h4.378V-72.7H136Zm2.261-30.648a2.917,2.917,0,0,0,2.067-.888,2.917,2.917,0,0,0,.82-2.095,2.917,2.917,0,0,0-.82-2.095,2.917,2.917,0,0,0-2.067-.888,2.938,2.938,0,0,0-2.123.86,2.938,2.938,0,0,0-.86,2.123,2.938,2.938,0,0,0,.86,2.123A2.938,2.938,0,0,0,138.266-76.983ZM146.2-59.567c0,8.372,5.341,13.664,12.845,13.664,6.545,0,10.826-3.655,12.174-8.9h-4.715c-.962,3.32-3.56,5.2-7.457,5.2-4.811,0-8.372-3.416-8.372-9.959,0-6.447,3.56-9.863,8.372-9.863,3.9,0,6.543,2.021,7.457,5.2h4.715c-1.348-5.533-5.629-8.9-12.172-8.9-7.506,0-12.846,5.292-12.846,13.568Zm55.859,0c0-8.323-5.822-13.568-13.327-13.568-7.46,0-13.327,5.244-13.327,13.568,0,8.372,5.678,13.664,13.135,13.664C196.05-45.9,202.063-51.2,202.063-59.567Zm-22.18,0c0-6.64,4.186-9.767,8.8-9.767,4.523,0,8.9,3.127,8.9,9.767,0,6.688-4.474,9.815-9.045,9.815S179.883-52.879,179.883-59.567Z" transform="translate(413.601 397.815)"/></g>
    <rect fill="#404040" width="3" height="64" transform="translate(405 250)"/>
    <path fill="#404040" d="M9.32,0h2.26V-6.5c0-3.08-1.94-4.7-4.52-4.7A4.239,4.239,0,0,0,3.78-9.76v-1.26H1.5V0H3.78V-6.16c0-2.02,1.1-3.06,2.78-3.06,1.66,0,2.76,1.04,2.76,3.06Zm7.44-9.4v-1.62H14.48V5.24h2.28V-1.6A4.982,4.982,0,0,0,20.6.18c2.9,0,5.18-2.34,5.18-5.74S23.5-11.2,20.6-11.2A4.808,4.808,0,0,0,16.76-9.4Zm6.7,3.84A3.475,3.475,0,0,1,20.1-1.8a3.435,3.435,0,0,1-3.34-3.72,3.429,3.429,0,0,1,3.34-3.7A3.384,3.384,0,0,1,23.46-5.56ZM43.66,0h2.26V-6.5a4.306,4.306,0,0,0-4.54-4.7,4.315,4.315,0,0,0-3.84,2.18,4.251,4.251,0,0,0-3.96-2.18,4.2,4.2,0,0,0-3.26,1.44v-1.26H28.04V0h2.28V-6.16c0-2.02,1.1-3.06,2.78-3.06,1.66,0,2.76,1.04,2.76,3.06V0h2.26V-6.16c0-2.02,1.1-3.06,2.78-3.06,1.66,0,2.76,1.04,2.76,3.06ZM54.02,0H56.3V-11.02H54.02Zm1.16-12.48a1.439,1.439,0,0,0,1.44-1.46,1.439,1.439,0,0,0-1.44-1.46,1.443,1.443,0,0,0-1.46,1.46A1.443,1.443,0,0,0,55.18-12.48ZM67.12,0h2.26V-6.5c0-3.08-1.94-4.7-4.52-4.7a4.239,4.239,0,0,0-3.28,1.44v-1.26H59.3V0h2.28V-6.16c0-2.02,1.1-3.06,2.78-3.06,1.66,0,2.76,1.04,2.76,3.06Zm5.16,0h2.28V-11.02H72.28Zm1.16-12.48a1.439,1.439,0,0,0,1.44-1.46,1.439,1.439,0,0,0-1.44-1.46,1.443,1.443,0,0,0-1.46,1.46A1.443,1.443,0,0,0,73.44-12.48Zm4.48,9.42C77.92-.82,79.14,0,81.1,0h1.8V-1.9H81.5c-.96,0-1.28-.34-1.28-1.16v-6.1H82.9v-1.86H80.22v-2.74h-2.3v2.74h-1.3v1.86h1.3ZM103.24.14c2.92,0,4.56-3.26,4.56-6.36,0-3.98-2.7-6.7-7.34-6.7A10.083,10.083,0,0,0,90.1-2.6c0,4.06,2.86,6.66,7.26,6.66a10.3,10.3,0,0,0,4.08-.78l-.3-1.52a7.743,7.743,0,0,1-3.32.7c-3.72,0-5.86-1.8-5.86-5.24,0-4.86,3.44-8.56,8.22-8.56,3.76,0,5.78,1.84,5.78,5.22,0,1.92-.74,4.74-2.38,4.74-1,0-1.06-.7-.9-1.78l1-5.72H101.7l-.18,1a2.586,2.586,0,0,0-2.44-1.18c-2.94,0-4.96,2.72-4.96,5.74A3.118,3.118,0,0,0,97.4.14a4.556,4.556,0,0,0,3.52-1.72A2.059,2.059,0,0,0,103.24.14Zm-2.12-5.28A3.329,3.329,0,0,1,98.1-1.62c-1.3,0-1.86-.86-1.86-2.04,0-1.8,1.06-3.66,2.86-3.66A1.965,1.965,0,0,1,101.12-5.14Zm8.82-.42c0,3.4,2.3,5.74,5.16,5.74a4.743,4.743,0,0,0,3.86-1.82V0h2.3V-11.02h-2.3v1.6a4.691,4.691,0,0,0-3.82-1.78C112.24-11.2,109.94-8.96,109.94-5.56Zm9.02.04a3.424,3.424,0,0,1-3.34,3.72,3.472,3.472,0,0,1-3.34-3.76,3.381,3.381,0,0,1,3.34-3.66A3.417,3.417,0,0,1,118.96-5.52Zm5.66,2.46c0,2.24,1.22,3.06,3.18,3.06h1.8V-1.9h-1.4c-.96,0-1.28-.34-1.28-1.16v-6.1h2.68v-1.86h-2.68v-2.74h-2.3v2.74h-1.3v1.86h1.3ZM142.2-5.52a5.435,5.435,0,0,0-5.62-5.68,5.435,5.435,0,0,0-5.62,5.68,5.373,5.373,0,0,0,5.52,5.7A5.52,5.52,0,0,0,142.2-5.52Zm-8.92,0c0-2.5,1.54-3.7,3.26-3.7,1.7,0,3.32,1.2,3.32,3.7a3.394,3.394,0,0,1-3.38,3.72C134.76-1.8,133.28-3.02,133.28-5.52ZM160.08,0h2.26V-6.5a4.306,4.306,0,0,0-4.54-4.7,4.315,4.315,0,0,0-3.84,2.18A4.251,4.251,0,0,0,150-11.2a4.2,4.2,0,0,0-3.26,1.44v-1.26h-2.28V0h2.28V-6.16c0-2.02,1.1-3.06,2.78-3.06,1.66,0,2.76,1.04,2.76,3.06V0h2.26V-6.16c0-2.02,1.1-3.06,2.78-3.06,1.66,0,2.76,1.04,2.76,3.06Zm5.16,0h2.28V-11.02h-2.28Zm1.16-12.48a1.439,1.439,0,0,0,1.44-1.46,1.439,1.439,0,0,0-1.44-1.46,1.443,1.443,0,0,0-1.46,1.46A1.443,1.443,0,0,0,166.4-12.48Zm3.36,6.96c0,3.46,2.24,5.7,5.4,5.7a4.95,4.95,0,0,0,5.08-3.66h-2.46a2.517,2.517,0,0,1-2.62,1.74c-1.84,0-3.06-1.36-3.06-3.78,0-2.4,1.22-3.76,3.06-3.76a2.575,2.575,0,0,1,2.62,1.74h2.46a4.794,4.794,0,0,0-5.08-3.66C172-11.2,169.76-8.96,169.76-5.52Zm23.26,0a5.435,5.435,0,0,0-5.62-5.68,5.435,5.435,0,0,0-5.62,5.68A5.373,5.373,0,0,0,187.3.18,5.52,5.52,0,0,0,193.02-5.52Zm-8.92,0c0-2.5,1.54-3.7,3.26-3.7,1.7,0,3.32,1.2,3.32,3.7A3.394,3.394,0,0,1,187.3-1.8C185.58-1.8,184.1-3.02,184.1-5.52Z" transform="translate(432 289)"/></g>
</svg>