<svg xmlns="http://www.w3.org/2000/svg" width="745" height="260" viewBox="0 0 745 260">
  <g id="logo-black" transform="translate(-311 -276)">
    <rect id="padding" width="745" height="260" transform="translate(311 276)" fill="#fff" opacity="0"/>
    <g id="isotipo" transform="translate(-62.399 477.454) rotate(-45)">
      <path id="Trazado_8" data-name="Trazado 8" d="M-1245.356,341.791a31.088,31.088,0,0,1-4.215-.288l-20.068-20.068c2.127.44,4.306.788,6.474,1.034l19.286,19.286C-1244.374,341.78-1244.871,341.791-1245.356,341.791Zm5.908-.569-18.344-18.344c.939.037,1.9.055,2.855.055.862,0,1.735-.015,2.594-.046l17.176,17.176a30.854,30.854,0,0,1-4.281,1.158Zm-16.772-1.4a30.547,30.547,0,0,1-10.91-7.047,30.561,30.561,0,0,1-7.048-10.912l17.959,17.958Zm24.547-1.226-16.019-16.019c1.6-.159,3.212-.375,4.8-.641l14.663,14.663a30.678,30.678,0,0,1-3.443,2Zm6.267-4.137-13.344-13.344c1.44-.33,2.891-.71,4.31-1.129l11.8,11.8c-.3.331-.621.663-.945.987-.584.585-1.2,1.151-1.823,1.684Zm5-5.4h0l-10.289-10.289c1.308-.466,2.625-.979,3.914-1.526l8.481,8.481a30.713,30.713,0,0,1-2.1,3.334Zm3.688-6.716h0l-6.651-6.651c1.2-.584,2.4-1.211,3.573-1.866l4.383,4.383a30.8,30.8,0,0,1-1.3,4.134Zm2.014-8.39h0l-1.972-1.972c.7-.44,1.413-.9,2.111-1.374a31.094,31.094,0,0,1-.138,3.346Z" transform="translate(1649.064 56.05)"/>
      <path id="Trazado_7" data-name="Trazado 7" d="M-1321.651,191.587a68.963,68.963,0,0,1-13.8-1.391,68.11,68.11,0,0,1-12.85-3.989,68.465,68.465,0,0,1-11.629-6.312,68.952,68.952,0,0,1-10.132-8.359,68.949,68.949,0,0,1-8.359-10.132,68.46,68.46,0,0,1-6.312-11.628,68.122,68.122,0,0,1-3.989-12.85,68.977,68.977,0,0,1-1.391-13.8,68.976,68.976,0,0,1,1.391-13.8,68.121,68.121,0,0,1,3.989-12.85,68.462,68.462,0,0,1,6.312-11.628,68.953,68.953,0,0,1,8.359-10.131,68.955,68.955,0,0,1,10.132-8.359,68.47,68.47,0,0,1,11.629-6.312,68.116,68.116,0,0,1,12.85-3.989,68.965,68.965,0,0,1,13.8-1.391,68.751,68.751,0,0,1,16.407,1.979,68.093,68.093,0,0,1,14.975,5.622,68.669,68.669,0,0,1,13.07,8.794A68.938,68.938,0,0,1-1266.5,82.56a43.4,43.4,0,0,0-28.277,40.57A43.4,43.4,0,0,0-1266.5,163.7a68.937,68.937,0,0,1-10.694,11.493,68.67,68.67,0,0,1-13.07,8.794,68.092,68.092,0,0,1-14.975,5.622A68.751,68.751,0,0,1-1321.651,191.587Z" transform="translate(1716.109 183.328)"/>
      <path id="Trazado_6" data-name="Trazado 6" d="M-1388.348,73.679h31.8a38.414,38.414,0,0,1-15.9,3.421A38.415,38.415,0,0,1-1388.348,73.679Zm-7.374-4.394a38.8,38.8,0,0,1-5.263-4.816h57.072a38.8,38.8,0,0,1-5.263,4.816Zm-8.713-9.21a38.535,38.535,0,0,1-2.765-4.816h69.5a38.536,38.536,0,0,1-2.765,4.816Zm-4.555-9.21a38.263,38.263,0,0,1-1.28-4.816h75.642a38.263,38.263,0,0,1-1.28,4.816Zm-1.886-9.21q-.122-1.536-.123-3.105,0-.86.037-1.71h77.025q.037.85.037,1.71,0,1.567-.123,3.105Zm.357-9.21a38.333,38.333,0,0,1,1.088-4.815h73.963a38.354,38.354,0,0,1,1.088,4.815Zm2.681-9.21a38.456,38.456,0,0,1,2.5-4.815h65.766a38.472,38.472,0,0,1,2.5,4.815Zm5.644-9.21a38.789,38.789,0,0,1,4.738-4.815h50.013a38.764,38.764,0,0,1,4.738,4.815Zm11.073-9.21A38.373,38.373,0,0,1-1372.449,0a38.373,38.373,0,0,1,18.671,4.815Z" transform="translate(1837 267.543)"/>
    </g>
    <path id="logo" d="M59.405,0H69.869L42.51-75.537H31.065L3.6,0H14.061l6.1-16.9H53.3ZM50.467-24.961H23L36.733-63.329ZM84.039-16.35c0,11.99,6,16.35,16.568,16.35h8.938V-8.393h-7.3c-6.1,0-8.284-2.071-8.284-7.957V-51.557h15.587v-8.175H93.958V-74.774H84.039v15.042H76.3v8.175h7.739Zm94.176-13.625c0-18.857-13.189-30.738-30.193-30.738-16.9,0-30.193,11.881-30.193,30.738,0,18.966,12.862,30.956,29.757,30.956C164.59.981,178.215-11.009,178.215-29.975Zm-50.249,0c0-15.042,9.483-22.127,19.947-22.127,10.246,0,20.165,7.085,20.165,22.127,0,15.151-10.137,22.236-20.492,22.236S127.966-14.824,127.966-29.975ZM277.514,0h9.81V-35.207c0-17.113-10.573-25.615-24.2-25.615-9.156,0-17.658,4.687-21.146,13.3-3.924-8.938-12.1-13.3-21.909-13.3-7.848,0-14.933,3.379-18.857,9.7v-8.611h-9.919V0h9.919V-32.918c0-12.862,6.867-19.293,16.9-19.293,9.81,0,16.35,6.213,16.35,18.421V0h9.81V-32.918c0-12.862,6.867-19.293,16.9-19.293,9.81,0,16.35,6.213,16.35,18.421Zm26.051,0h9.919V-59.732h-9.919Zm5.123-69.433a6.609,6.609,0,0,0,6.54-6.758,6.609,6.609,0,0,0-6.54-6.758,6.655,6.655,0,0,0-6.758,6.758A6.655,6.655,0,0,0,308.688-69.433Zm17.985,39.458c0,18.966,12.1,30.956,29.1,30.956C370.6.981,380.3-7.3,383.353-19.184H372.671c-2.18,7.521-8.066,11.772-16.895,11.772-10.9,0-18.966-7.739-18.966-22.563,0-14.606,8.066-22.345,18.966-22.345,8.829,0,14.824,4.578,16.895,11.772h10.682C380.3-53.083,370.6-60.713,355.776-60.713,338.772-60.713,326.673-48.723,326.673-29.975Zm126.549,0c0-18.857-13.189-30.738-30.193-30.738-16.9,0-30.193,11.881-30.193,30.738C392.836-11.009,405.7.981,422.593.981,439.6.981,453.222-11.009,453.222-29.975Zm-50.249,0c0-15.042,9.483-22.127,19.947-22.127,10.246,0,20.165,7.085,20.165,22.127,0,15.151-10.137,22.236-20.492,22.236S402.973-14.824,402.973-29.975Z" transform="translate(548 447)"/>
  </g>
</svg>
