<svg xmlns="http://www.w3.org/2000/svg" xmlns:xlink="http://www.w3.org/1999/xlink" width="150" height="52" viewBox="0 0 150 52"><defs><pattern id="a" preserveAspectRatio="xMidYMid slice" width="100%" height="100%" viewBox="0 0 400 400">
<image width="400" height="400" xlink:href="https://unavatar.io/twitter/andreatrakea"/></pattern></defs><g transform="translate(-105 -108)"><g transform="translate(106 109)" fill="#fff" stroke="#e9e9e9" stroke-width="1"><rect width="148" height="50" rx="12" stroke="none"/><rect x="-0.5" y="-0.5" width="149" height="51" rx="12.5" fill="none"/></g><path d="M12,0H50a0,0,0,0,1,0,0V50a0,0,0,0,1,0,0H12A12,12,0,0,1,0,38V12A12,12,0,0,1,12,0Z" transform="translate(106 109)" fill="url(#a)"/><path d="M7.616,0H9.3L5.81-9.744H3.962L.476,0H2.142l.7-1.988H6.916ZM6.468-3.29H3.29l1.6-4.522ZM16.282,0h1.582V-4.55A3,3,0,0,0,14.7-7.84a2.968,2.968,0,0,0-2.3,1.008v-.882h-1.6V0h1.6V-4.312A1.87,1.87,0,0,1,14.35-6.454c1.162,0,1.932.728,1.932,2.142Zm3.08-3.892A3.733,3.733,0,0,0,23,.126a3.2,3.2,0,0,0,2.674-1.288V0h1.61V-10.36h-1.61v3.724a3.553,3.553,0,0,0-2.66-1.2A3.674,3.674,0,0,0,19.362-3.892Zm6.314.028a2.4,2.4,0,0,1-2.338,2.6A2.43,2.43,0,0,1,21-3.892a2.367,2.367,0,0,1,2.338-2.562A2.392,2.392,0,0,1,25.676-3.864Zm5.306-.2c0-1.638.728-2.128,1.9-2.128h.406V-7.84a2.513,2.513,0,0,0-2.31,1.246v-1.12h-1.6V0h1.6ZM38.01-6.5A2,2,0,0,1,40.166-4.55H35.9A2.1,2.1,0,0,1,38.01-6.5Zm3.612,4.2H39.9a1.868,1.868,0,0,1-1.82,1.078,2.122,2.122,0,0,1-2.2-2.044h5.894a4.923,4.923,0,0,0,.056-.784A3.6,3.6,0,0,0,38.08-7.84a3.694,3.694,0,0,0-3.85,3.976A3.743,3.743,0,0,0,38.08.126,3.525,3.525,0,0,0,41.622-2.3Zm1.246-1.6A3.729,3.729,0,0,0,46.48.126a3.32,3.32,0,0,0,2.7-1.274V0h1.61V-7.714h-1.61v1.12A3.283,3.283,0,0,0,46.508-7.84,3.672,3.672,0,0,0,42.868-3.892Zm6.314.028a2.4,2.4,0,0,1-2.338,2.6,2.43,2.43,0,0,1-2.338-2.632,2.367,2.367,0,0,1,2.338-2.562A2.392,2.392,0,0,1,49.182-3.864ZM6.216,11.182c0,.966-.56,1.652-1.806,1.652H2.646V9.572H4.41C5.656,9.572,6.216,10.2,6.216,11.182ZM1.05,8.27V18h1.6V14.108H3.864L6.1,18h1.9L5.6,13.968a2.769,2.769,0,0,0,2.254-2.786C7.854,9.6,6.72,8.27,4.41,8.27Zm12.1,3.234A2,2,0,0,1,15.3,13.45h-4.27A2.1,2.1,0,0,1,13.146,11.5Zm3.612,4.2H15.036a1.868,1.868,0,0,1-1.82,1.078,2.122,2.122,0,0,1-2.2-2.044h5.894a4.923,4.923,0,0,0,.056-.784,3.6,3.6,0,0,0-3.752-3.794,3.694,3.694,0,0,0-3.85,3.976,3.743,3.743,0,0,0,3.85,3.99A3.525,3.525,0,0,0,16.758,15.7ZM24.01,18h1.582V13.45a3,3,0,0,0-3.164-3.29,2.968,2.968,0,0,0-2.3,1.008v-.882h-1.6V18h1.6V13.688a1.87,1.87,0,0,1,1.946-2.142c1.162,0,1.932.728,1.932,2.142Zm3.612,0h1.6V10.286h-1.6Zm.812-8.736a1.022,1.022,0,1,0-1.022-1.022A1.007,1.007,0,0,0,28.434,9.264Z" transform="translate(173 130)" fill="rgba(0,0,0,0.75)"/><rect width="1" height="50" transform="translate(156 109)" fill="#e9e9e9"/></g></svg>