<svg xmlns="http://www.w3.org/2000/svg" xmlns:xlink="http://www.w3.org/1999/xlink" width="150" height="52" viewBox="0 0 150 52"><defs><pattern id="a" preserveAspectRatio="xMidYMid slice" width="100%" height="100%" viewBox="0 0 400 400">
<image width="400" height="400" xlink:href="https://unavatar.io/twitter/jjenzz"/></pattern></defs><g transform="translate(-105 -108)"><g transform="translate(106 109)" fill="#fff" stroke="#e9e9e9" stroke-width="1"><rect width="148" height="50" rx="12" stroke="none"/><rect x="-0.5" y="-0.5" width="149" height="51" rx="12.5" fill="none"/></g><path d="M12,0H50a0,0,0,0,1,0,0V50a0,0,0,0,1,0,0H12A12,12,0,0,1,0,38V12A12,12,0,0,1,12,0Z" transform="translate(106 109)" fill="url(#a)"/><path d="M4.746-2.716c0,.812-.406,1.4-1.26,1.4S2.24-1.9,2.226-2.716H.616A2.668,2.668,0,0,0,3.486.1a2.668,2.668,0,0,0,2.87-2.814V-9.73H4.746ZM12.194-6.5A2,2,0,0,1,14.35-4.55H10.08A2.1,2.1,0,0,1,12.194-6.5Zm3.612,4.2H14.084a1.868,1.868,0,0,1-1.82,1.078,2.122,2.122,0,0,1-2.2-2.044H15.96a4.923,4.923,0,0,0,.056-.784A3.6,3.6,0,0,0,12.264-7.84a3.694,3.694,0,0,0-3.85,3.976,3.743,3.743,0,0,0,3.85,3.99A3.525,3.525,0,0,0,15.806-2.3ZM23.058,0H24.64V-4.55a3,3,0,0,0-3.164-3.29,2.968,2.968,0,0,0-2.3,1.008v-.882h-1.6V0h1.6V-4.312a1.87,1.87,0,0,1,1.946-2.142c1.162,0,1.932.728,1.932,2.142Zm9.086,0h1.582V-4.55a3,3,0,0,0-3.164-3.29,2.968,2.968,0,0,0-2.3,1.008v-.882h-1.6V0h1.6V-4.312a1.87,1.87,0,0,1,1.946-2.142c1.162,0,1.932.728,1.932,2.142Zm3.08-3.892A3.729,3.729,0,0,0,38.836.126a3.32,3.32,0,0,0,2.7-1.274V0h1.61V-7.714h-1.61v1.12A3.283,3.283,0,0,0,38.864-7.84,3.672,3.672,0,0,0,35.224-3.892Zm6.314.028A2.4,2.4,0,0,1,39.2-1.26a2.43,2.43,0,0,1-2.338-2.632A2.367,2.367,0,0,1,39.2-6.454,2.392,2.392,0,0,1,41.538-3.864Z" transform="translate(173 139)" fill="rgba(0,0,0,0.75)"/><rect width="1" height="50" transform="translate(156 109)" fill="#e9e9e9"/></g></svg>