<?xml version="1.0" standalone="no"?><!-- Generator: Gravit.io --><svg xmlns="http://www.w3.org/2000/svg" xmlns:xlink="http://www.w3.org/1999/xlink" style="isolation:isolate" viewBox="2079 6416.832 8381.933 2141.568" width="8381.933" height="2141.568"><g><path d=" M 5587.769 8018.56 L 5441.248 8018.56 L 5330.247 7753.638 L 4828.522 7753.638 L 4717.521 8018.56 L 4571 8018.56 L 5009.084 6985.511 L 5149.685 6985.511 L 5587.769 8018.56 Z  M 5078.645 7151.272 L 4881.803 7623.397 L 4881.803 7630.797 L 5276.966 7630.797 L 5276.966 7623.397 L 5081.605 7151.272 L 5078.645 7151.272 Z  M 6110.214 7263.753 L 6110.214 7379.194 L 5895.612 7379.194 L 5895.612 7826.159 L 5895.612 7826.159 Q 5895.612 7888.319 5929.652 7903.119 L 5929.652 7903.119 L 5929.652 7903.119 Q 5957.773 7914.959 6002.173 7914.959 L 6002.173 7914.959 L 6002.173 7914.959 Q 6046.573 7914.959 6099.854 7891.279 L 6099.854 7891.279 L 6110.214 7891.279 L 6110.214 8000.8 L 6110.214 8000.8 Q 6048.053 8033.36 5977.013 8033.36 L 5977.013 8033.36 L 5977.013 8033.36 Q 5760.931 8033.36 5760.931 7837.999 L 5760.931 7837.999 L 5760.931 7379.194 L 5620.33 7379.194 L 5620.33 7370.314 L 5895.612 7100.952 L 5895.612 7263.753 L 6110.214 7263.753 Z  M 6234.535 7641.157 L 6234.535 7641.157 L 6234.535 7641.157 Q 6234.535 7465.035 6338.136 7356.994 L 6338.136 7356.994 L 6338.136 7356.994 Q 6441.737 7248.953 6612.679 7248.953 L 6612.679 7248.953 L 6612.679 7248.953 Q 6783.62 7248.953 6887.961 7356.994 L 6887.961 7356.994 L 6887.961 7356.994 Q 6992.302 7465.035 6992.302 7641.157 L 6992.302 7641.157 L 6992.302 7641.157 Q 6992.302 7817.278 6887.961 7925.319 L 6887.961 7925.319 L 6887.961 7925.319 Q 6783.62 8033.36 6612.679 8033.36 L 6612.679 8033.36 L 6612.679 8033.36 Q 6441.737 8033.36 6338.136 7925.319 L 6338.136 7925.319 L 6338.136 7925.319 Q 6234.535 7817.278 6234.535 7641.157 Z  M 6442.477 7843.179 L 6442.477 7843.179 L 6442.477 7843.179 Q 6515.738 7910.519 6613.419 7910.519 L 6613.419 7910.519 L 6613.419 7910.519 Q 6711.099 7910.519 6784.36 7843.179 L 6784.36 7843.179 L 6784.36 7843.179 Q 6857.621 7775.838 6857.621 7640.417 L 6857.621 7640.417 L 6857.621 7640.417 Q 6857.621 7504.996 6784.36 7438.395 L 6784.36 7438.395 L 6784.36 7438.395 Q 6711.099 7371.794 6613.419 7371.794 L 6613.419 7371.794 L 6613.419 7371.794 Q 6515.738 7371.794 6442.477 7438.395 L 6442.477 7438.395 L 6442.477 7438.395 Q 6369.216 7504.996 6369.216 7640.417 L 6369.216 7640.417 L 6369.216 7640.417 Q 6369.216 7775.838 6442.477 7843.179 Z  M 8065.312 7248.953 L 8065.312 7248.953 L 8065.312 7248.953 Q 8186.673 7248.953 8249.573 7334.794 L 8249.573 7334.794 L 8249.573 7334.794 Q 8312.474 7420.635 8312.474 7533.116 L 8312.474 7533.116 L 8312.474 8018.56 L 8177.793 8018.56 L 8177.793 7559.756 L 8177.793 7559.756 Q 8177.793 7463.555 8143.012 7418.415 L 8143.012 7418.415 L 8143.012 7418.415 Q 8108.232 7373.274 8026.831 7373.274 L 8026.831 7373.274 L 8026.831 7373.274 Q 7899.55 7373.274 7813.71 7515.356 L 7813.71 7515.356 L 7813.71 8018.56 L 7679.028 8018.56 L 7679.028 7559.756 L 7679.028 7559.756 Q 7679.028 7463.555 7644.988 7418.415 L 7644.988 7418.415 L 7644.988 7418.415 Q 7610.948 7373.274 7528.067 7373.274 L 7528.067 7373.274 L 7528.067 7373.274 Q 7400.786 7373.274 7314.945 7515.356 L 7314.945 7515.356 L 7314.945 8018.56 L 7180.264 8018.56 L 7180.264 7263.753 L 7298.665 7263.753 L 7314.945 7358.474 L 7314.945 7380.674 L 7317.905 7380.674 L 7317.905 7380.674 Q 7412.626 7248.953 7566.547 7248.953 L 7566.547 7248.953 L 7566.547 7248.953 Q 7649.428 7248.953 7707.889 7291.874 L 7707.889 7291.874 L 7707.889 7291.874 Q 7766.349 7334.794 7791.509 7398.435 L 7791.509 7398.435 L 7795.949 7398.435 L 7795.949 7398.435 Q 7886.23 7248.953 8065.312 7248.953 Z  M 8680.997 8018.56 L 8546.316 8018.56 L 8546.316 7263.753 L 8680.997 7263.753 L 8680.997 8018.56 Z  M 8541.876 6958.871 L 8686.917 6958.871 L 8686.917 7103.912 L 8541.876 7103.912 L 8541.876 6958.871 Z  M 9523.125 7448.755 L 9517.205 7448.755 L 9517.205 7448.755 Q 9407.684 7374.754 9279.663 7374.754 L 9279.663 7374.754 L 9279.663 7374.754 Q 9151.642 7374.754 9079.121 7448.015 L 9079.121 7448.015 L 9079.121 7448.015 Q 9006.6 7521.276 9006.6 7641.157 L 9006.6 7641.157 L 9006.6 7641.157 Q 9006.6 7761.038 9079.121 7834.299 L 9079.121 7834.299 L 9079.121 7834.299 Q 9151.642 7907.559 9279.663 7907.559 L 9279.663 7907.559 L 9279.663 7907.559 Q 9407.684 7907.559 9517.205 7833.559 L 9517.205 7833.559 L 9523.125 7833.559 L 9523.125 7960.84 L 9523.125 7960.84 Q 9400.284 8033.36 9267.083 8033.36 L 9267.083 8033.36 L 9267.083 8033.36 Q 9102.801 8033.36 8987.36 7926.799 L 8987.36 7926.799 L 8987.36 7926.799 Q 8871.919 7820.238 8871.919 7641.157 L 8871.919 7641.157 L 8871.919 7641.157 Q 8871.919 7462.075 8987.36 7355.514 L 8987.36 7355.514 L 8987.36 7355.514 Q 9102.801 7248.953 9267.083 7248.953 L 9267.083 7248.953 L 9267.083 7248.953 Q 9400.284 7248.953 9523.125 7321.474 L 9523.125 7321.474 L 9523.125 7448.755 Z  M 9668.166 7641.157 L 9668.166 7641.157 L 9668.166 7641.157 Q 9668.166 7465.035 9771.767 7356.994 L 9771.767 7356.994 L 9771.767 7356.994 Q 9875.368 7248.953 10046.31 7248.953 L 10046.31 7248.953 L 10046.31 7248.953 Q 10217.251 7248.953 10321.592 7356.994 L 10321.592 7356.994 L 10321.592 7356.994 Q 10425.933 7465.035 10425.933 7641.157 L 10425.933 7641.157 L 10425.933 7641.157 Q 10425.933 7817.278 10321.592 7925.319 L 10321.592 7925.319 L 10321.592 7925.319 Q 10217.251 8033.36 10046.31 8033.36 L 10046.31 8033.36 L 10046.31 8033.36 Q 9875.368 8033.36 9771.767 7925.319 L 9771.767 7925.319 L 9771.767 7925.319 Q 9668.166 7817.278 9668.166 7641.157 Z  M 9876.108 7843.179 L 9876.108 7843.179 L 9876.108 7843.179 Q 9949.369 7910.519 10047.05 7910.519 L 10047.05 7910.519 L 10047.05 7910.519 Q 10144.731 7910.519 10217.991 7843.179 L 10217.991 7843.179 L 10217.991 7843.179 Q 10291.252 7775.838 10291.252 7640.417 L 10291.252 7640.417 L 10291.252 7640.417 Q 10291.252 7504.996 10217.991 7438.395 L 10217.991 7438.395 L 10217.991 7438.395 Q 10144.731 7371.794 10047.05 7371.794 L 10047.05 7371.794 L 10047.05 7371.794 Q 9949.369 7371.794 9876.108 7438.395 L 9876.108 7438.395 L 9876.108 7438.395 Q 9802.848 7504.996 9802.848 7640.417 L 9802.848 7640.417 L 9802.848 7640.417 Q 9802.848 7775.838 9876.108 7843.179 Z " fill-rule="evenodd" fill="rgb(35,35,41)" vector-effect="non-scaling-stroke" stroke-width="70" stroke="rgb(35,35,41)" stroke-linejoin="round" stroke-linecap="round" stroke-miterlimit="3"/><g><g><circle vector-effect="non-scaling-stroke" cx="0" cy="0" r="1" transform="matrix(324.228,324.228,-324.228,324.228,3143.317,7494.762)" fill="rgb(35,35,41)"/><path d=" M 2699.484 7605.579 C 2275.788 8069.558 2016.741 8463.74 2096.893 8543.892 L 2096.893 8543.892 C 2192.929 8639.928 2739.785 8249.011 3317.322 7671.474 L 3317.322 7671.474 C 3894.859 7093.937 4285.776 6547.081 4189.74 6451.045 L 4189.74 6451.045 C 4109.755 6371.06 3717.048 6628.861 3254.337 7050.965 C 3289.806 7057.674 3320.809 7072.858 3345.008 7097.056 C 3444.717 7196.765 3391.377 7412.006 3225.969 7577.415 C 3060.561 7742.823 2845.32 7796.162 2745.611 7696.453 C 2721.367 7672.209 2706.171 7641.133 2699.484 7605.579 Z " fill-rule="evenodd" fill="rgb(97,87,232)"/><path d=" M 3031.081 7050.251 C 2567.424 6626.959 2173.617 6368.229 2093.507 6448.339 L 2093.507 6448.339 C 1997.471 6544.374 2388.389 7091.23 2965.926 7668.767 L 2965.926 7668.767 C 3543.463 8246.304 4090.318 8637.222 4186.354 8541.186 L 4186.354 8541.186 C 4266.394 8461.146 4008.189 8067.962 3585.57 7604.841 C 3578.968 7640.647 3563.749 7671.933 3539.363 7696.319 C 3439.654 7796.028 3224.394 7742.67 3058.963 7577.239 C 2893.532 7411.808 2840.173 7196.548 2939.882 7096.839 C 2959.87 7076.916 2984.279 7063.618 3011.856 7055.485 C 3017.96 7053.684 3023.792 7052.092 3030.621 7050.363 C 3030.773 7050.324 3030.926 7050.286 3031.081 7050.251 Z " fill-rule="evenodd" fill="rgb(112,102,255)"/></g></g></g></svg>